<svg version="1.2" xmlns="http://www.w3.org/2000/svg" viewBox="0 0 187 40" width="187" height="40"><path class="a" d="m34.6 0.8v1.1q-1 0.2-2.1 1.2-1.2 1-2.1 3.4l-12.5 32.3q-0.1 0-0.2 0-0.2 0-0.3 0-0.1 0-0.2 0-0.1 0-0.2 0l-13-33.5q-0.8-2-1.8-2.7-1-0.7-1.9-0.7v-1.1q1.1 0.1 2.7 0.1 1.5 0.1 3 0.1 2.1 0 3.9-0.1 1.8 0 3-0.1v1.1q-1.9 0-2.8 0.4-0.9 0.4-1 1.3-0.1 0.9 0.6 2.8l9.9 26.2-0.8 1 9.3-24.2q1.1-2.8 1-4.5 0-1.6-1.2-2.3-1.2-0.7-3.4-0.7v-1.1q1.5 0.1 3.1 0.1 1.6 0.1 3 0.1 1.4 0 2.3-0.1 0.9 0 1.7-0.1z"></path><path class="a" d="m50.1 0.8v1.1q-1.8 0-2.8 0.4-0.9 0.3-1.2 1.3-0.3 0.9-0.3 2.9v26.4q0 1.9 0.3 2.9 0.3 1 1.2 1.3 1 0.3 2.8 0.4v1.1q-1.2-0.1-3.1-0.2-1.8 0-3.7 0-2.1 0-3.9 0-1.8 0.1-2.9 0.2v-1.1q1.8-0.1 2.7-0.4 1-0.3 1.3-1.3 0.3-1 0.3-2.9v-26.4q0-2-0.3-2.9-0.3-1-1.3-1.3-0.9-0.4-2.7-0.4v-1.1q1.1 0.1 2.9 0.1 1.8 0.1 3.9 0.1 1.9 0 3.7-0.1 1.9 0 3.1-0.1z"></path><path fill-rule="evenodd" class="a" d="m71.7 0.1q5 0 8.9 2.3 3.8 2.2 5.9 6.5 2.1 4.3 2.1 10.5 0 5.9-2.2 10.4-2.1 4.5-6 7-3.8 2.5-8.8 2.5-5 0-8.9-2.3-3.8-2.3-5.9-6.6-2.1-4.3-2.1-10.4 0-6 2.2-10.4 2.2-4.5 6-7 3.8-2.5 8.8-2.5zm-0.2 0.9q-3.5 0-6.1 2.4-2.5 2.4-3.9 6.6-1.4 4.2-1.4 9.8 0 5.6 1.5 9.8 1.6 4.2 4.3 6.5 2.7 2.3 5.9 2.3 3.5 0 6.1-2.4 2.5-2.4 3.9-6.7 1.5-4.2 1.5-9.7 0-5.7-1.6-9.9-1.6-4.1-4.3-6.4-2.6-2.3-5.9-2.3z"></path><path class="a" d="m106.8 0.8v1.1q-1.8 0-2.7 0.4-1 0.3-1.3 1.3-0.3 0.9-0.3 2.9v26.4q0 1.9 0.3 2.9 0.3 1 1.3 1.2 0.9 0.3 2.7 0.3h3.9q2.5 0 4.1-0.5 1.6-0.5 2.5-1.7 0.9-1.1 1.4-3 0.5-2 0.8-4.7h1.2q-0.2 1.6-0.2 4.3 0 1.1 0.1 2.9 0.1 1.9 0.3 4-2.7-0.1-6.1-0.2-3.4 0-6.1 0-1.2 0-3 0-1.9 0-4 0-2.1 0.1-4.3 0.1-2.2 0-4.2 0.1v-1.1q1.8-0.1 2.8-0.4 0.9-0.3 1.2-1.3 0.3-1 0.3-2.9v-26.4q0-2-0.3-2.9-0.3-1-1.2-1.3-1-0.4-2.8-0.4v-1.1q1.1 0.1 3 0.1 1.8 0.1 3.9 0.1 1.8 0 3.7-0.1 1.8 0 3-0.1z"></path><path fill-rule="evenodd" class="a" d="m151.2 0.8q-0.2 1.9-0.3 3.6-0.1 1.8-0.1 2.7 0 1 0.1 1.8 0 0.9 0.1 1.5h-1.2q-0.4-3.1-0.9-5-0.6-1.8-2-2.6-1.5-0.8-4.3-0.8h-4.4q-1.8 0-2.8 0.3-0.9 0.3-1.2 1.3-0.3 0.9-0.3 2.9v12.5h-1.6v1.1h1.6v12.8q0 1.9 0.3 2.9 0.3 1 1.2 1.2 1 0.3 2.8 0.3h3.9q3.3 0 5.1-0.9 1.7-0.9 2.5-2.9 0.8-2.1 1.1-5.6h1.3q-0.2 1.4-0.2 3.8 0 1.1 0.1 2.9 0.1 1.9 0.3 4-2.8-0.1-6.2-0.2-3.4 0-6 0-1.2 0-3.1 0-1.8 0-3.9 0-2.2 0.1-4.4 0.1-2.1 0-4.1 0.1v-1.1q1.8-0.1 2.7-0.4 1-0.3 1.3-1.3 0.3-1 0.3-2.9v-26.4q0-2-0.3-2.9-0.3-1-1.3-1.3-0.9-0.4-2.7-0.4v-1.1q2 0.1 4.1 0.1 2.2 0 4.4 0 2.1 0.1 3.9 0.1 1.9 0 3.1 0 2.4 0 5.5-0.1 3.2 0 5.6-0.1zm-17.3 19.3v-1.1h3.5v1.1zm8.2-1.1v1.1h-4.7q2.4 0 3.3 1.1 1 1 1.3 2.6 0.3 1.6 0.5 3.4h1.3q-0.3-3.1-0.3-4.7-0.1-1.6-0.1-2.9 0-1.4 0-3 0-1.6 0.2-4.6h-1.2q-0.2 1-0.3 2.2-0.2 1.2-0.6 2.3-0.5 1.1-1.4 1.8-0.9 0.7-2.7 0.7z"></path><path class="a" d="m186.4 0.8q-0.2 2-0.3 3.9-0.1 1.9-0.1 2.9 0 1.3 0.1 2.4 0 1.2 0.1 2h-1.2q-0.4-3.7-1-5.9-0.7-2.1-2.3-3.1-1.6-1-5-1h-2.8v30.4q0 2.1 0.4 3.2 0.4 1 1.5 1.4 1.2 0.4 3.5 0.5v1.1q-1.4-0.1-3.6-0.2-2.1 0-4.3 0-2.4 0-4.5 0-2.1 0.1-3.4 0.2v-1.1q2.3-0.1 3.4-0.5 1.2-0.4 1.6-1.4 0.4-1.1 0.4-3.2v-30.4h-2.9q-3.3 0-4.9 1-1.6 1-2.3 3.1-0.6 2.2-1 5.9h-1.2q0.1-0.8 0.1-2 0-1.1 0-2.4 0-1 0-2.9-0.1-1.9-0.3-3.9 2.2 0.1 4.9 0.1 2.6 0.1 5.3 0.1 2.6 0 4.8 0 2.2 0 4.8 0 2.7 0 5.4-0.1 2.6 0 4.8-0.1z"></path></svg>