<svg version="1.2" xmlns="http://www.w3.org/2000/svg" viewBox="0 0 109 74" width="109" height="74"><path class="a" d="m41.1 3.1q1.6 0.8 2.4 2.5c2.3 2.8 2.6 5.1 3.9 8.1 1.5 1.9 4.1 4.6 5.8 1.3 1.6-2 3-4.3 4.8-6.2 0.3-0.9 1.3-1.5 2.2-2 3-2.8 7.5-6.1 12.1-5.1 2 0.5 3.1 1.7 3.7 3.5 0 0.2 0 0.2-0.2 0.2q-0.1 0.2-0.2 0l-0.5-0.3c-0.3-1.1-1.2-1.8-2.3-2.2-7.5-2.9-16.7 9.1-19.9 14.3-1.5 1.4-4.9-0.8-5.9-2.1-0.4-0.6-1.1-2-0.7-2.6q-0.9 0-0.4-1-0.5-0.1-0.8-0.7c-7.8-20.3-34.4-3-41.8 8.7 0.1 0.6-0.6 2.2-1.3 2.2q-0.4 0.3-0.3-0.4c2.4-6 7.3-10.4 12.8-14.1 1.6-1.7 3.9-2.9 6.1-3.7 6.1-2.9 14.7-4.8 20.5-0.4z"></path><path class="a" d="m25.2 5.2q0.3-0.2 0.5 0c-3.9 1.6-7.7 3-11.2 5.4-6.4 4.4-14.8 14.2-10.6 22q0.6 0.5 0.9 1.2c2.7 2.8 8.9 3 12.5 1.9 5.7-1.6 10.6-8.7 12.6-13.6 0.9-2.2 0.4-1.7-0.1-3.7-0.4-1.8-0.7-4.2 1.5-5.3 2.1-1 3-0.6 4.9 0.2 0.7 0.3 1.7 1.3 1.6 1.9 0 0.2 0 0.3-0.2 0.2q-0.1 0.2-0.3 0l-0.4-0.1c-1-2.2-5.1-2.5-6.1-0.2l-0.5 0.1q0 2.4 1 4.6c0 0.4-0.1 0.8-0.3 1.1q0.2 0.1 0 0.2c0.1 0.1 0.2 0.2 0.2 0.3-0.1 0.8-2.1 4.2-2.6 5.1-4.4 7-9.6 11.8-18.9 10.4-3.9-0.5-7.7-3-7.3-7-0.6-0.1-0.6-0.5 0-0.6-0.3-3.8 1-8.6 3.5-11.6q0.2-0.3 0.7-0.3l-0.1-0.6c4.7-5.3 11-10.1 18.2-12z"></path><path class="a" d="m37.8 18.7c-2.2 3.3-2.9 5.2-4.6 8.7-4.3 9-11.8 15.4-23.2 12.9-8.3-1.9-10.2-6.6-9.6-14.1q0.2-1.1 0.5-2.2c0.2-1.3 0.4-1.6 0.8-2.7l0.3 0.4c0.5 0.5-0.2 2.4-0.9 2.7 0.1 0.4 0.2 0.9 0 1.2-0.5 4.2 0.3 9.7 4.6 12.1l0.2 0.6c6.3 2.4 13.2 2.8 18.9-1.2l0.1-0.6c3.4-2.5 5.8-6.1 7.6-9.7l0.4-0.2c-0.4-0.2 0.1-1.2 0.5-1.4q1.1-3.9 3.7-7.4c0.4-0.9 0.4-1.6 0.5-2.4l0.2-0.2c1 0.8 0.6 2.4 0 3.5z"></path><path class="a" d="m45.5 32.1c0.5 0.3 0.3 1.4-0.3 1.5 0.1 0.3 0.1 0.7 0 1-4.4 13.1-11.4 26.5-18.4 38.1q0.1 0.1 0 0.3l0.3-0.3c1.7 0.6 2.4 0.3 3.5-0.8l0.6 0.1q0.2-0.3 0.5-0.5c2.2-1.7 4.6-3.4 6.9-5 0.2-0.1 0.4-0.2 0.7-0.2 0.3-0.3 0.4-0.2 0.2 0.2-1.3 1-2.5 2.1-3.8 3-1.3 1-4.8 3.7-6 4.1-1.2 0.5-2.9 0-4-0.5 3.3-5.2 6.1-10.8 9-16.2q0.4-1 0.9-1.9c3.6-6.3 7.2-16.1 9.6-23.1q0.3-0.3 0.3 0.2z"></path><path class="a" d="m107.6 5.2c0.1 0.2 0.5 0.8 0.5 0.9 0.6 4.3-4 7.8-8.2 5.2-0.6-0.4-1.1-1.3-1.8-1.2-0.7 0.1-5.7 4.1-6.6 4.9-7.3 6.2-13.5 14.1-19.9 21-0.1 0.5-0.5 0.8-0.9 1.1-0.8 0.9-1.8 1.7-2.6 2.6-0.6 0.2-0.5 0-0.2-0.4q0.1-0.3 0.2-0.7 0.1-0.3 0.3-0.5c1.4-1.7 2.8-3.3 4.3-4.9 0.2-0.3 0.7-0.6 1.1-0.6q0.4-0.4 0.4-1c0.7-0.9 5.1-5.8 5.7-6q0.2-0.1 0.5-0.2l0.2-0.9c4.4-4.7 9.2-9.5 14.3-13.5 0.9-0.7 3.1-2.4 4.3-1.7 3 3.8 7.1 2 8.2-2.1-0.7-0.4-0.5-1.5-0.2-2 0-0.5 0.2-0.4 0.4 0z"></path><path class="a" d="m97.1 6.4c1.5-1.1 1-0.8 2.1-2 2.5-3 6.8-2.9 8.4 0.8h-0.4q-0.2 0.1-0.2-0.2-1-0.6-1.9-1.6c-3.1-0.7-4.7 0.2-5.9 2.7-2.4 1.5-4.7 3.1-6.7 5.1-6.2 6-12.3 12.2-18.3 18.4q-3.6 3.8-7.6 7.2c-0.6 0.3-0.5 0.1-0.3-0.4 3-3 5.8-6.2 8.8-9.2 0.2-0.6 0.7-1.1 1.3-1.2 3.3-3.2 6.4-6.6 9.7-9.8q0.7-1.3 2.2-2c1.6-1.6 3.2-3.3 4.8-4.8 1.1-1.2 2.4-2.4 4-3z"></path><path class="a" d="m57.3 21.1q0.7 0.4-0.2 1.3-0.7 2.7-1.8 5.2c-4.3 11.3-9.4 22.1-15.6 32.6-0.3 0.9-0.7 2.1-1.7 2.6q0.1 0.6-0.2 1c0.3 0.3 0.2 0.4-0.2 0.2q-1.6 0.4-0.2-2 3.7-6.1 7.2-12.5l0.6-0.6 0.2-0.9c2.4-5.3 4.9-10.6 7.3-15.7q-0.3-0.1-0.2-0.3c1.8-3.5 3-7.3 4.2-11.1-0.1-0.4 0.1-0.5 0.4-0.2 0.6-0.2 0.7 0 0.2 0.4z"></path><path class="a" d="m36 7.2c0.5 0.1 1 0.5 1.4 0.9l4.9 6.1c1.8 2.3 4 3.9 6.8 5 0.7 0.3 0.8 0.7 0.3 1.3l0.2 0.5q-2 5.5-3.8 11l-0.3 0.1-0.3-0.2c1-2.7 2.7-7.2 3.1-10q1-1.5-0.2-2c-6.9-3-8.8-10.2-14.3-13.9-2.4-1.6-4.3-1.5-7-0.8-0.4 0-0.8-0.1-1.1 0-0.2 0-0.3-0.1-0.5 0-0.1-0.2-0.1-0.5 0-0.6 2.3-0.8 5.3-1.4 7.6-0.4 1.1 0.5 3.1 1.8 3.2 3z"></path><path class="a" d="m66.6 36.8c0 0.5-0.7 1.1-1.1 1.3-3.8 4.3-8 8.4-12.2 12.5-0.9 0.9-14.1 13.4-15.2 13.4q-0.2-0.1-0.3-0.2c-0.2-0.4 0.1-0.7 0.2-1q0.7-0.4 1.3-1.3l0.4 0.1c9.5-7.8 18-16.5 26.6-25.2z"></path><path class="a" d="m68.1 39.7c-9.1 9.8-17.8 18.5-28.6 26.8l-0.2-0.2c0.9-1.3 2.5-2.5 4-3.3q5.9-5.7 12.3-11c0.5-0.8 1.1-1.6 1.8-2.4q4-4.2 8.1-8.4c0.7-0.7 1.6-1.3 2.4-1.9z"></path><path class="a" d="m76 5.2c0.9 2.8 0.3 4.9-1.8 7.1-0.2 0.5-0.7 1-1.3 1.2-1.3 1.2-2.2 1.7-3.7 2.5q-0.7 0.2-0.4-0.2l0.1-0.6c4.1-2.1 7.2-5.3 6.9-9.8z"></path><path class="a" d="m68.8 15.8l0.4 0.2c-3.4 1.9-7.5 3-10.6 4.7q-0.7 0.4-1.3 0.4l-0.2-0.4 0.2-0.4q5.2-2.3 10.5-4.5z"></path><path class="a" d="m0.4 26.2c0.1-0.7-0.1-1.6 0.5-2.2-0.2 0.7-0.1 1.6-0.5 2.2z"></path><path class="a" d="m45.9 11.5c0.2 1.5-0.9 0.5-1.5-0.3-0.2 1-0.8 1.6-1.8 0.9q-1.3 0.2-2.4-1.2c-1.2-0.5-2.4-2.1-2.6-3.3-1-0.6-1.8-1.2-2.6-2-2.2-2.1-4.8-2.3-7.8-1.6-8.2 1.9-15.4 6.5-20.6 12.7l-0.9 0.3c-0.3 0.5-1.7 2.6-2.1 2.6-0.1 0.1-0.2 0-0.3-0.1 0-0.7 0.5-1.2 0.9-1.8 6-9.2 27.3-23.4 37.8-13.1 2.2 2.3 2.8 4.2 3.9 6.9z"></path><path class="a" d="m63.5 7.4l0.1 0.4c-1.2 1.4-5.6 7.3-4.9 9.1q0.2 0.2 0.4 0.3c0.1-0.6 0.7-0.5 0.9 0l-0.1 0.4q1.5-0.8 2.5-0.2c0.5 0.9-2.3 1.8-2.9 1.3-1.5 0-2.4 0.5-3.7 1.1q-2.3-0.3-4.5 0.4c-0.9 0-1.2-0.1-1.2-0.9q-0.3 0-0.2-0.2c-0.9-0.9-2-1.3-3.1-1.7h-0.8c-2.2-1.5-4.2-3.7-5.8-5.8v-0.7c0.6 0 0.7 0.7 1 0.8 0.4 0.2 1 0 1.5 0 0.4 0.1 0.7 0.7 1.1 0 0.3-0.5 0.1-1.5 1-0.7 0.2 0.1 1.1 1.6 1.1 0.5 0.1 0.3 0.3 0.6 0.4 1-0.9 2.5 4.7 6.7 6.8 4.5l2-3.1c0.8-1.3 1.8-2 3.3-2.4 0.3-0.8 1.1-2.3 1.7-3 0.5-0.6 2.7-1.9 3.4-1.1z"></path><path class="a" d="m75.6 5.4c1 6.6-6.9 10.6-12.7 12.3l-0.5-0.3c-0.5 0.1-1.1 0.2-1.6 0.3-0.7 0.1-1.7 1.1-2.2-0.3 0.6 0.2 1-0.1 1.4-0.2l0.2-0.5c4.4-1.5 9.9-3.4 12.7-7.1q0.4-1 1.1-1.4c2.1-5.6-5.3-5.7-8.3-2.4q-1 1.2-2.2 1.6c-1.1 0-3.3 1.2-3.6 2.1-0.4 1.3-0.2 0.5-0.8 1.3-0.3 0.3-0.2 0.7-0.3 0.9-0.2 0.2-1.4 0.5-1.8 0.8-2.1 1.2-2.8 4.9-4.5 5.4-1.4 0.4-4-1-5.1-1.8-0.8-0.7-1.4-2-1.6-3-0.2-0.5 0.1-0.5 0.5-0.6 0.4 1 0.6 1.9 1.4 2.8 0.8 1 3.6 3 4.9 1.7 3.1-5.1 10.1-14 16.8-14.9 2.4-0.3 5.8 0.6 6.2 3.3z"></path><path class="a" d="m75.8 5.4c0 1.1 0 2.3-0.3 3.5 0 0.1-0.3 1-0.4 1.2-1 2.5-4 4.4-6.3 5.7-3.6 2-8 3-11.7 4.9q-0.2 0.1-0.4 0.2-0.2 0.5-0.5 0.2-0.2-0.1 0-0.4c-1-1.4 2.2-2.1 3.3-2 0.9-0.4 2.2-0.5 2.9-1.3 5.4-1.3 14.1-5.9 13.2-12z"></path><path class="a" d="m5.7 17.4c0.1 0.7-0.9 2.2-1.5 2.3-0.6 0.9-1 1.8-1.4 2.8 0.5 0 0.5 0.3 0 0.4q-0.6 1.6-0.8 3.2-0.3 0.2-0.7 0.1l-0.2-1.8c0.1-0.7 0.6-2 0.9-2.7 0.1-0.4 1-2.1 1.3-2.2 0.6-0.2 1.7-1.7 2.4-2.5 0.6 0.1 0.5 0.2 0 0.4z"></path><path class="a" d="m30.5 16q0-0.2 0-0.3c0.2-1 2.3 0.2 2.8 0.6q1.3-0.1 2.2 0.4c0-1 1.5-1.4 1.8-0.5 0.4 0.7-0.3 2.7-1.3 2.7q-1.9 2.3-2.9 5.3-1.3 0.2-2.5 0.4l-0.9 1.8c-0.2 0.3-0.5 0.2-0.7 0l-0.2-0.2q1.4-2.5 2.2-4.7v-0.4c0-0.1-0.1-0.1 0-0.2l0.3-1.1q-0.9-2-0.8-3.8z"></path><path class="a" d="m37.6 7.6q-0.2 0.7-1.1-0.2l-0.5-0.2c-3.1-3.1-4.9-3.7-9.4-2.6-0.5 0.2-1 0.3-1.4 0.6-5.9 0.6-15.2 7.7-18.6 12.2-0.4 0.4-0.6 0.4-0.9 0v-0.4c1.9-2.1 4-4.4 6.4-6.2 4.4-3.3 10.6-6.5 16.2-7.4 4.5-0.8 6.6 1.2 9.3 4.2z"></path><path class="a" d="m31 21.1c0.9-0.1 0.2 1.5 0 1.8-1.2 1.3-1.2 1.9-2 3.5l0.1 0.8c-0.9 1.7-2.2 3-3.6 4.3 0.2 0.9-1.2 1.8-2 2.2l-4 2.5q-0.1 0.2-0.2 0.4-0.2 0.2-0.4 0.3c-1.9 0.6-3.5 0.7-5.5 0.7q-3.7 0.8-6.6-1c-0.4 0.4-0.5 0.4-0.4-0.2-2-0.7-3.7-2.5-4.4-4.4-0.2-0.7-0.7-2.4 0.4-2.1 0.6 4.9 4.9 6.8 9.8 7 7 0.2 11.8-3.9 15.2-9.1 0.9-1.4 3.2-5.3 3.6-6.7z"></path><path class="a" d="m37.3 15.4c0.3 0.1 0.3 0.7 0 0.8-1.9-0.2-1 0.3-1.5 1.1-0.4 0.6-0.5-0.4-0.8-0.5-0.5-0.1-1.2 0.1-1.8-0.1-0.9-0.3-1.5-1.4-2.7-0.7-0.4 0-0.3-0.5-0.2-0.8 1-3.2 6.5-2.4 7 0.2z"></path><path class="a" d="m2.4 29.3c0 0.2 0 0.4 0 0.6 0 0.1-0.3 0.3-0.4 0.7-0.1 2.3 2.4 4.8 4.4 5.8-0.1 0.6-0.6 0.4-1 0.2-4.3-1.8-4.7-7.2-4.3-11 0-0.4-0.1-0.8 0-1.2 0.4-0.1 0 2 0.6 1.4 0.2-0.2 0.3-2.6 1.1-2.9l0.3 0.3c-0.6 2-0.9 4-0.7 6.1z"></path><path class="a" d="m6.6 17.4c-2.6 3.5-4.5 7.6-4.2 11.9-0.3-3.2 0-3.3 0.4-6.4 0.1-0.1 0-0.2 0-0.4 0.4-1 0.8-1.9 1.4-2.8 0.2-0.6 1-2 1.5-2.3 0.3-0.2 0.6-0.1 0.9 0z"></path><path class="a" d="m33.4 25.2q-0.4 0.3-0.2-0.4-0.5-0.5 0.2-1.2c0.6-1.8 1.3-3.3 2.6-4.7 0.6-0.8 1.2-1.7 1.3-2.7 0.1-0.2 0.1-0.6 0-0.8h0.3c0.6 2.8-1.2 4-2.5 6-0.7 1.1-1.2 2.7-1.7 3.8z"></path><path class="a" d="m30.5 16c0.2 0.7 0.3 1.5 0.5 2.3 0.3 0.9 1.3 1.6 0 2.6 0.3-2-1.5-3.3-0.7-5.7-0.2 0.3 0.2 0.6 0.2 0.8z"></path><path class="a" d="m32.9 26.6c-0.8 1.9-1.8 3.4-2.9 4.9-1.2 1.8-3.1 4.5-5.2 5.6-0.7 0.4-1.4 0.8-2.2 1.2-1.5 0.7-3.6 1.7-5.3 1.4-0.3-0.3-0.2-0.4 0.1-0.7-1.4-0.9-2.5-1.1-4.3-0.9-1.2 0.1-2.3 0.3-3 1.2-0.9 0.2-2.5-0.4-3.1-1q0-0.8-0.2-1.7c4.3 1.3 8.5 1.1 12.7-0.4l4.9-3.1h0.6c1.7 1.1 3-0.5 3.9-1.7l3.4-4.6q-0.3-0.1 0-0.2 0.5-0.7 0.6 0z"></path><path class="a" d="m1.1 25.6c-0.2 3.9 0.4 8.6 4.4 10.7 0.3 0.1 0.7 0.1 0.9 0.1 0.1 0.1 0.2 0.1 0.4 0.2 0.9 0.6 0.7 0.9 0.2 1.7q-0.4 0.1-1.1 0c-4.8-2.3-5.1-7-5-11.6 0-0.3-0.2-0.9 0.2-1.1z"></path><path class="a" d="m24.8 37.1c-5 4.3-13.1 4-18.9 1.2 0.2-0.4 0.8-0.1 1.1 0 1.1 0.3 2 0.8 3.1 1l0.7-0.3c1.9 0.5 3.9 0.6 5.8 0.4l0.7 0.3c2.7-0.4 5.1-1.5 7.5-2.6z"></path><path class="a" d="m33.4 25.2c-0.2 0.3-0.2 0.9-0.5 1.4h-0.6c-0.3-0.8 0-1.4 0.9-1.8z"></path><path class="a" d="m40.8 46.3l0.5 0.1c0.3 1.9 1 3.2 3.1 2 0.5-0.1 0.9-0.1 0.8 0.5-1.2 2.4-2.3 4.7-3.6 6.9-1.1 2.1-3.4 5.3-4.4 7.6-0.1 0.4-0.3 0.7 0.4 0.6q-0.1 0.2 0 0.3c0.1 0.5 6.5-5.2 7.1-5.7q2.8-2.5 5.4-5l0.9-0.4q0.5 0.1 0.2 1l1.4-0.9 0.6 0.1c-0.1 0.3-0.2 0.5-0.4 0.7-3 3.1-6.5 6.2-10 8.7l-0.6 0.8q-5.5 4.4-11 8.4c-0.6 0.4-1.5 1.3-2.2 1.4-0.3 0.1-2-0.2-2.2-0.4l-0.1-0.2c4.8-7.9 9.7-16.8 13.4-25.6z"></path><path class="a" d="m59.5 18.7c-0.6 0.2-2.3 0.7-2.7 1-0.6 0.4-0.4 0.7-0.6 1l-1 3.5q-0.6 2.7-2.8 1.6c-3.5-0.2-4 1.3-5 4.1l-0.8 1.4c0.3 0.9 0 2.2-0.9 2.7-0.4 0.8-0.7 0.3-0.5-0.4 0.2-0.4 0.1-1.1 0.3-1.5 1.1-3.1 2.5-8.8 3.9-11.6 0.1-0.5 0.2-0.9 0.7-1.2 1.2 1.2 1.8 0 3.4 0 0.7 0 1.2 0.3 2.1 0.1 0.9-0.1 1.6-0.8 2.3-0.9 0.5-0.1 1.1 0.3 1.6 0.2z"></path><path class="a" d="m45.2 33.6c0 0.4 0 0.4 0.5 0.4q0.1 0.3-0.2 0.6 0 1.4-1.1 2.9c-0.4 3-1.7 6.2-3.6 8.8-3.3 7.9-7.3 15.5-11.6 23.2l-2.4 3.5c-0.4-0.2-0.2-0.3-0.1-0.6 0.6-1.8 2.9-4.7 3.9-6.5 5.6-10.2 10.8-21.5 14.6-32.3z"></path><path class="a" d="m43.3 63c-1.4 1.1-2.6 2.3-4 3.3-2.6 2-5.4 3.9-8.1 5.7-0.5-0.1 0.2-0.5 0.3-0.6 3.8-2.8 7.6-5.6 11.3-8.6 0.4-0.2 0.6-0.2 0.5 0.2z"></path><path class="a" d="m73.4 31.7c1.1-0.7 1.1 0 0.4 0.9-0.3 0.8-0.6 0.5-0.8 0.8-1.6 2.1-3.4 4-5.1 5.9q-6 6.5-12.3 12.7-1.1 0.6-2.2 1.6l-0.2-0.2c-0.8 0.7-1.6 1.3-2.7 1.4l0.5-1.6c0.1-0.4 0.3-0.7 0.6-1 4.1-4.3 8.6-8.6 12.9-12.9q0.4-0.3 1-0.6 3.9-3.4 7.5-7z"></path><path class="a" d="m94.5 10.7c-0.2-1.1 1.2-2.2 2.1-2.9q2.8-1.2 3.8-3.7c0.6-0.8 3.6-1.2 4.5-0.8 0.4 0.1 1.9 1.7 2 1.9 0 0.1-0.5 0 0.1-0.2 0 0 0.2 0.1 0.2 0.2 0.3 0.6 0.2 1.3 0.2 2-0.9 4-5.3 5.4-8.3 2l-0.6-0.2q-1.9 0.7-3.6 2z"></path><path class="a" d="m107.4 7.2c0 3.1-3.1 5.6-6.4 4.2-0.7-0.3-2.1-1.9-2.3-1.9-0.5-0.2-1.4 0.4-1.8 0.7-5.7 3.6-12 10.3-16.5 15.2l-0.4-0.1c-0.3 0.5-1 1-1.4 0.3 0.1-0.4 0.3-0.9 0.6-1.2 4.5-4.5 9.3-8.8 14-13.1 0.4-0.3 0.8-0.5 1.3-0.6 1.3-0.3 2.6-2.1 4-2.1 1.5 0 1.8 2 4 2.1 3.1 0.2 3.4-1.6 4.9-3.5z"></path><path class="a" d="m78.6 25.6c0.2-0.1 0.5 0 0.8-0.2 0.3-0.2 0.4-1 1-0.8v0.8c-2.2 2.4-4.2 5-6.6 7.2 0.3-0.7 0.5-1-0.4-0.9v-0.4q2.6-2.9 5.2-5.7z"></path><path class="a" d="m107 5c-0.1 0.3 0.2 0.7-0.4 0.4-0.5-0.3-1.3-2-1.7-2-1 0.2-3.3 0.1-4.1 0.6-0.2 0.2-0.3 1.2-0.7 1.8-1 1.2-2.1 1.3-3.2 2.1-1 0.7-1.6 1.9-2.4 2.8-5.1 5.2-11 9.5-15.9 14.9l-1.1 1.1c-3.4 4.1-7.4 8.2-11.8 11.6-0.3 0.2-0.4 0.1-0.2-0.2 0.3-0.4 0.7-0.9 1.1-1.3 6.6-6.7 13.1-13.7 19.9-20.3 2.5-2.4 5.4-5.4 8-7.6 1.1-0.9 3.5-2.1 4.4-3 0.5-0.6 0.6-1.3 1.4-2 2.1-1.8 5.3-1.3 6.7 1.1z"></path><path class="a" d="m52.7 32.3c-0.3 1.7-1.1 3.3-1.8 4.8-1.7 3.9-3.6 7.9-5.7 11.8-0.6-0.5-1.3 0.4-1.8 0.4-0.2 0-1.7-0.3-1.8-0.4-0.1 0-0.7-2.3-0.8-2.6 1.3-2.9 2.4-5.9 3.6-8.8q0.7-2.2 2.2-2.1c3.2 0.9 3.9 0.3 5.1-2.6q0.5-0.7 1-0.5z"></path><path class="a" d="m56.7 20.9c-0.4 1.7-0.9 3.5-1.4 5.1-0.4 1.1-2.1 6-2.6 6.3-0.8 0.7-0.9 1.5-1.5 2.4-0.4 0.7-1 1.5-1.9 1.5-0.7 0-2.8-0.5-3.5-0.3-0.8 0.2-0.8 1.1-1.4 1.6q0.5-1.5 1.1-2.9 1.1-2 4-2.2 2.8 0.2 3.4-3l0.9-1.1-0.3-0.5q1.6-3.3 2.7-6.7 0.2-0.1 0.5-0.2z"></path><path class="a" d="m65.7 38.3q0.1 0.1-0.2 0.4c-4.8 4.8-9.6 9.8-14.5 14.5-2.4 2.3-4.9 4.6-7.4 6.8-0.8 0.6-6 5.2-6.6 5.1-0.9-1-0.1-0.7 0.6-1.1 0 0 0.1-0.1 0.2-0.2 1.6-0.9 3.6-2.7 5-4 7.8-6.7 15.4-14.4 22.7-21.7z"></path><path class="a" d="m37.6 7.6c0.9 1.1 1.7 2.2 2.6 3.3 2.2 2.6 3.5 4.6 6.6 6.5 1.1 0.4 2.2 0.8 3.1 1.7q0.1 0.1 0.2 0.2c0.3 0.7-0.6 1-0.7 1.2 0.1-0.4 0-0.7-0.4-0.9-0.8-0.5-2.1-0.8-3-1.4-3.9-2.5-6.7-7.7-10-11 0.8-0.4 0.9 0.3 1.6 0.4z"></path><path class="a" d="m55.6 52c-4 3.8-8 7.5-12.3 11l-0.5-0.2c3.7-3 7-6.2 10.4-9.4 0 0 0.8-0.5 1.2-0.8 0.1-0.2 1-1.1 1.2-0.6z"></path><path class="a" d="m74 8.2c0.8-3-1.1-4.5-4.2-4-4.6 0.5-9.6 8.2-10.8 12-0.1 0.4-0.2 0.7 0.1 1-1.1-0.2-0.6-2-0.3-2.8 0.6-1.5 3.5-5.7 4.7-7 1-1.1 1.8-1.7 3-2.6 0.5-0.4 0.8-0.8 1.5-1 0.7-0.3 2.4-0.7 3-0.7 3 0.1 4.8 2.8 3 5.1z"></path><path class="a" d="m49.9 19.1c-1.2-0.4-2.1-1.1-3.1-1.7 1.2 0.2 1.8 0.2 2.7 1.1 0.2 0.1 0.2 0.4 0.4 0.6z"></path><path class="a" d="m56.2 21.1c-0.1 2-1.6 5.2-2.4 7.2-1 2.3-3.6 2.4-5.9 2.1q-0.7 1.3-1.3 0.9c0.2-0.6 0.3-1.4 0.6-2.2 0.2-0.4 1.2-2.6 1.5-2.9 0.5-0.5 2.5-0.8 3.3-0.8 1.7-0.1 1.9 1.5 2.8-1.2 0.6-1.4 0.5-2.1 1.4-3.5q0 0.2 0 0.4z"></path><path class="a" d="m2.8 22.5c0.1-0.9 0.2-1.1 0.7-2.1 0.2-0.3 0.2-0.6 0.7-0.7-0.1 0.1-0.1 0.6-0.3 0.9-0.2 0.7-0.8 1.3-1.1 1.9z"></path><path class="a" d="m36 18.9c-0.3 0.8-1 1.5-1.5 2.4-0.5 1-0.8 2.4-1.3 3.5q-0.5 0.9-0.9 1.8c0 0.1 0 0.2 0 0.2l-2.1 2.8c-1.7 0.4-2.9 0.8-4.2 2.1l-0.5-0.2c1.2-1.7 2.5-3.2 3.5-5.1 0.6-0.3 0.9-1.9 1.3-2.1 0.6-0.5 2.3-0.1 2.8-0.5 0.3-0.3 1.1-2.9 1.6-3.7 0.3-0.4 1-0.8 1.3-1.2z"></path><path class="a" d="m19.5 36.2c1.3-1.1 2.9-2 4.3-3 0.5-0.4 1.1-1.2 1.7-1.7 0.4-0.3 1-0.7 1.6-1.2 1.2-1 2.1-0.5 2.9-1 0.6-0.4 1.5-2.1 2.3-2.5-0.8 1.7-2.9 5.2-4.3 6.3-0.3 0.3-1.3 0.8-1.6 0.8-1.1 0.1-1.2-1-2.9 0-1.3 0.8-2.4 1.8-4 2.3z"></path><path class="a" d="m10.1 39.3l-0.1-0.8c1.8-0.8 3.2-1 5.3-0.8 1.5 0.1 1.6 1.1 2.9 1l-0.9 1c-2.5 0.4-4.7 0.2-7.2-0.4z"></path><path class="a" d="m45.5 34.6q0.1-0.3 0.2-0.6c0.3-0.8 0.5-1.7 0.9-2.7 0.5-0.2 0.6-1.1 1.1-1.3 0.4-0.1 1.6 0.1 2.3 0.1 1.6-0.1 2.8-0.7 3.8-1.8-0.5 1.2-1.1 4-2.8 4.4-0.5 0.1-1 0-1.4 0.1-1.6 0.4-3 0.6-4.1 1.8z"></path><path class="a" d="m78.6 25.6c-1.8 2-3.2 4.2-5.2 6.1-0.3 0.3-0.6 0.9-1.1 1.3-2 1.5-3.5 3.3-5.4 4.9-0.2 0.1-1.1 0.6-1.4 0.8 0-0.1 0.1-0.3 0.2-0.4 2.9-2.9 6-5.7 8.9-8.6 1.3-1.3 2.4-3.2 4-4.1z"></path></svg>