<svg version="1.2" xmlns="http://www.w3.org/2000/svg" viewBox="0 0 209 199" width="209" height="199"><defs><clipPath clipPathUnits="userSpaceOnUse" id="cp1"><path d="m-519.3 0.24h799.33v552.34h-799.33z"></path></clipPath><clipPath clipPathUnits="userSpaceOnUse" id="cp2"><path d="m119.16 81.49c-0.18-0.11-0.36-0.42-0.57-0.39-0.24 0.04-1.89 1.35-2.19 1.61-2.38 2.05-4.42 4.63-6.53 6.92q-0.07 0.23-0.29 0.34c-0.28 0.29-0.59 0.57-0.87 0.87-3 3.23-5.84 6.08-9.39 8.81-0.43 0.32-0.83 0.68-1.27 1-0.41 0.3-1.56 1.19-1.95 1.34-0.41 0.16-0.95 0-1.33-0.16 1.09-1.73 2-3.55 2.96-5.34q0.12-0.31 0.29-0.61c1.21-2.08 2.39-5.3 3.18-7.59 0.31-0.92 0.86-2.39 1.01-3.3q0.31-0.5-0.07-0.67c-2.26-0.97-2.91-3.36-4.7-4.57-0.8-0.5-1.41-0.49-2.31-0.27q-0.18 0-0.36 0c-1.27 0.56-2.54 1-3.68 1.79-2.09 1.46-4.85 4.68-3.47 7.22q0.18 0.17 0.29 0.4c0.86 0.92 2.93 0.98 4.12 0.64 1.87-0.54 3.46-2.87 4.12-4.49 0.3-0.72 0.12-0.54-0.03-1.2-0.15-0.61-0.22-1.4 0.48-1.74 0.71-0.34 0.98-0.21 1.64 0.07 0.23 0.08 0.54 0.4 0.5 0.61 0.34 0.27 0.2 0.8 0 1.14-0.72 1.11-0.95 1.71-1.5 2.87-1.42 2.97-3.89 5.05-7.62 4.23-2.72-0.6-3.37-2.15-3.16-4.62 0.02-0.24-0.03-0.52 0.15-0.73 0.07-0.42 0.14-0.52 0.28-0.88 0.78-1.96 2.41-3.42 4.19-4.64 0.54-0.54 1.31-0.94 2.03-1.21 1.99-0.94 4.83-1.58 6.71-0.13q0.53 0.25 0.8 0.81c0.76 0.92 0.84 1.7 1.3 2.68 0.47 0.63 1.33 1.49 1.88 0.41 0.55-0.65 1-1.4 1.59-2.02 0.11-0.31 0.42-0.51 0.72-0.67 1-0.92 2.49-2.02 3.99-1.66 0.66 0.15 1.02 0.53 1.21 1.12 0.3 0.93 0.09 1.63-0.58 2.35q-0.15 0.27-0.43 0.41c-0.44 0.37-0.73 0.53-1.23 0.8-1.11 0.62-2.47 0.98-3.47 1.55q-0.25 0.12-0.43 0.13 0.21 0.12-0.09 0.43-0.21 0.89-0.56 1.73c-1.43 3.68-3.09 7.25-5.13 10.68-0.08 0.24-0.18 0.5-0.36 0.7q0.11-0.11 0.21-0.26l0.15 0.03c3.1-2.57 5.92-5.41 8.74-8.26 0.98-1 1.91-2.04 2.89-3.03 0.05-0.2 0.22-0.36 0.43-0.4 1.06-1.07 2.1-2.18 3.18-3.23q0.24-0.41 0.73-0.67c0.52-0.51 1.03-1.06 1.58-1.55 0.34-0.42 0.79-0.79 1.3-1.01 0.5-0.35 0.35-0.27 0.7-0.66 0.83-0.96 2.24-0.93 2.77 0.26 0.03 0.07 0.15 0.28 0.15 0.3 0.2 1.43-1.33 2.58-2.7 1.71zm-8.87-0.55q0.12-0.34 0.37-0.45c0.27-0.99-0.36-1.47-1.4-1.34-1.5 0.2-3.15 2.73-3.55 3.97-0.04 0.13-0.06 0.21 0.04 0.33 0.04-0.19 0.22-0.18 0.29 0l0.07-0.17c1.45-0.49 3.27-1.12 4.18-2.34zm0.95-1.39q0 0.16 0 0.33 0.01-0.16 0-0.33z"></path></clipPath></defs><g clip-path="url(#cp1)"><path fill-rule="evenodd" class="a" d="m104.2 198.5q0 0 0 0c-1.9 0-3.8-1.2-5.9-3.8-2.6-3.1-6.9-9.4-5.9-16.4 0.6-3.9 2.7-7.1 4.8-10.3q0.7-1 1.3-2.1 0 0-0.1-0.1-0.4-0.2-0.6-0.4-0.6 0.7-1.2 1.5c-3 3.7-6 7.5-11 9.1-5.4 1.7-12.1 0.1-16.2-1.8-2.5-1.2-4-2.6-4.4-4.3-0.6-2 0.1-4.2 2.3-7.5 2.5-3.7 6.8-8.4 12.7-9.7 4-0.8 8 0.3 11.8 1.3q1.2 0.3 2.5 0.6 0-0.1 0-0.2c0.1-0.1 0.2-0.4 0.3-0.6q-0.9-0.3-1.9-0.7c-4.4-1.7-9-3.4-12-7.7-2.7-3.9-3.9-9.8-3.2-15.7 0.3-2.8 1.2-4.7 2.6-5.6 1.5-1.1 3.7-1.2 7.1-0.4 6.3 1.6 14.1 5.4 15.8 14.6 0.4 1.9 0.5 3.9 0.6 5.8q0 1.5 0.1 2.9 0.3 0 0.5 0.1 0.2 0 0.4 0 0.1-1.3 0.1-2.5c0.2-3.9 0.4-8 2.4-11.5 2.5-4.3 7.3-7.6 13.8-9.4 3.4-0.9 5.8-0.8 7.3 0.3 1.6 1.2 2.5 3.4 2.7 6.9 0.6 9.6-2.8 16.5-9.8 19.9-1.8 0.9-3.7 1.6-5.5 2.3q-0.9 0.3-1.7 0.6l0.2 0.8q1.3-0.3 2.5-0.6c3.7-1 7.5-2 11.4-1.3 5.2 1 10.4 5.1 13.8 11.1 1.6 2.6 2.1 4.5 1.6 6.2-0.5 1.5-1.7 2.8-3.9 3.9-4.2 2.1-10.7 3.6-16 2.3-5.4-1.4-8.5-5.3-11.8-9.3q-0.5-0.7-1-1.4-0.2 0.1-0.5 0.3-0.1 0.1-0.3 0.3 0.6 0.9 1.3 1.9c1.9 2.9 3.9 5.9 4.6 9.2 1.2 5.6-0.9 12.1-5.8 17.8-2.1 2.4-3.9 3.6-5.8 3.6zm-6.1-34.3l0.1 0.5c0.1 0 0.5 0.3 0.7 0.4 0.4 0.3 0.6 0.5 0.6 0.7v0.2 0.1q-0.8 1.2-1.6 2.4c-2 3.1-4.1 6.3-4.6 9.9-1 6.7 3.1 12.7 5.6 15.7 2 2.4 3.7 3.5 5.3 3.5q0 0 0 0c1.6 0 3.2-1 5.2-3.3 4.7-5.5 6.7-11.7 5.6-17-0.7-3.2-2.7-6.1-4.5-8.9q-0.8-1.2-1.5-2.3l-0.1-0.1c-0.1-0.4 0.1-0.5 0.8-1 0.2-0.1 0.5-0.3 0.6-0.4l0.2-0.2 0.5 0.1 0.1 0.1q0.7 0.8 1.3 1.6c3.2 4 6.2 7.8 11.3 9.1 5.1 1.3 11.4-0.2 15.4-2.3 2-1 3.1-2.1 3.5-3.4 0.4-1.4-0.1-3.1-1.5-5.5-3.4-5.8-8.3-9.7-13.3-10.7-3.7-0.7-7.4 0.3-11 1.3q-1.4 0.4-2.8 0.8h-0.4l-0.8-2.3 0.4-0.1q1-0.4 2.1-0.8c1.8-0.7 3.7-1.4 5.4-2.3 6.8-3.3 10-9.7 9.4-19.1-0.2-3.2-1-5.2-2.3-6.2-1.4-0.9-3.5-1-6.7-0.1-4.4 1.2-10.3 3.7-13.2 8.9-1.9 3.4-2.1 7.3-2.3 11.1q-0.1 1.5-0.2 2.9v0.1l-0.1 0.1c-0.1 0.2-0.4 0.2-1.1 0.2-0.2 0-0.6 0-0.7 0l-0.5 0.3-0.1-0.6c-0.1-1.2-0.1-2.3-0.2-3.5-0.1-1.8-0.2-3.8-0.5-5.6-1.6-8.8-9.2-12.4-15.2-13.9-3.1-0.8-5.1-0.8-6.4 0.2-1.2 0.8-1.9 2.4-2.2 5-0.7 5.7 0.4 11.4 3 15.1 2.8 4.1 7.1 5.7 11.6 7.4q1.1 0.4 2.1 0.8 0.3 0.2 0.4 0.4c0 0.2 0 0.4-0.4 1.2 0 0.3-0.1 0.5-0.1 0.6l-0.1 0.4-0.4-0.1q-1.5-0.4-2.9-0.8c-3.7-1-7.6-2-11.4-1.2-5.7 1.2-9.8 5.7-12.2 9.3-2 3-2.7 5.1-2.2 6.8 0.4 1.4 1.7 2.6 4 3.7 4.3 2 10.7 3.3 15.5 1.8 4.7-1.5 7.6-5.1 10.6-8.8q0.7-0.9 1.4-1.8l0.1-0.1z"></path><path fill-rule="evenodd" class="a" d="m80.8 174.9c-3 0-5.8-0.8-8-1.6-2.1-0.8-5-2.1-5.4-4.4-0.4-1.7 0.6-4.2 3-7.3 4.1-5.6 9.1-8.1 14.7-7.4 2 0.2 4.1 0.8 6.1 1.4 1.1 0.3 2.2 0.6 3.2 0.8l0.3 0.1v0.3q0.1 0.4 0.1 0.9 0 0.3 0 0.6c0.2 1.8 0.9 3.5 2.1 5l0.2 0.3-0.3 0.3q-0.9 1.1-2 2.4c-2.3 3-4.8 6.2-8.3 7.6-1.9 0.7-3.8 1-5.7 1zm-12.6-6.2c0.4 1.9 3 3.1 4.9 3.8 3.4 1.3 8.4 2.4 13 0.6 3.4-1.3 5.8-4.4 8.1-7.3q0.9-1.2 1.8-2.2c-1.1-1.6-1.9-3.4-2-5.2q-0.1-0.4-0.1-0.7 0-0.3 0-0.5c-1-0.2-2-0.5-2.9-0.8-2-0.6-4-1.1-6-1.4-5.3-0.6-10 1.8-13.9 7.1-2.8 3.6-3.1 5.6-2.9 6.6z"></path><path fill-rule="evenodd" class="a" d="m104.2 195.9q-0.7 0-1.3-0.3c-3.5-1.3-7.4-7.9-8.3-11.1-0.6-1.9-0.7-3.8-0.5-5.7 0.3-3.6 2.4-6.6 4.3-9.6 0.6-0.9 1.2-1.8 1.8-2.8l0.1-0.1 0.5-0.1h0.1c1.8 0.7 3.7 0.8 5.7 0.3q0.1 0 0.3-0.1c0.5-0.2 0.9-0.3 1.2-0.1h0.1v0.1c0.6 0.9 1.2 1.8 1.7 2.7 2 2.9 4 6 4.5 9.6 0.6 4.9-1.8 9.3-3.8 12.2-1.1 1.6-3.6 5-6.4 5zm-3.4-28.8c-0.5 0.9-1.1 1.8-1.7 2.6-1.9 2.9-3.8 5.8-4.2 9.2-0.2 1.7 0 3.6 0.5 5.3 1 3.4 4.8 9.5 7.8 10.6 2.5 1 4.9-1.8 6.7-4.4 1.9-2.8 4.2-7 3.6-11.6-0.4-3.4-2.4-6.4-4.3-9.3q-0.8-1.2-1.6-2.4c-0.1 0-0.3 0.1-0.4 0.1q-0.3 0.1-0.4 0.2c-2.1 0.4-4.1 0.3-6-0.3z"></path><path fill-rule="evenodd" class="a" d="m95.7 152.5l-0.1-0.1q-1.3-0.5-2.6-1c-4.1-1.5-8.3-3.1-10.9-7-2.2-3.3-3.1-8-2.7-13 0.3-2.6 0.9-4.2 2.1-5.1 1.1-0.9 2.7-1.1 5.1-0.6 4.5 0.8 10.7 3.7 13.4 8.8 1.6 3 1.8 6.5 1.9 9.8 0.1 1.2 0.1 2.3 0.2 3.5l0.1 0.3-0.4 0.1c-2 0.5-3.6 1.6-5 3.3q-0.1 0.1-0.2 0.2c-0.2 0.4-0.4 0.7-0.8 0.7zm-11.3-26.1q-1.6 0-2.4 0.7c-1 0.7-1.5 2.1-1.7 4.5-0.5 4.8 0.4 9.3 2.5 12.4 2.4 3.7 6.5 5.2 10.4 6.7q1.3 0.4 2.5 0.9c0.1-0.1 0.2-0.2 0.2-0.2q0.1-0.2 0.2-0.3 2.2-2.6 5.1-3.5c-0.1-1-0.1-2.1-0.2-3.2-0.1-3.2-0.2-6.5-1.7-9.4-2.6-4.9-8.6-7.6-12.9-8.4q-1.2-0.2-2-0.2z"></path><path fill-rule="evenodd" class="a" d="m127.4 174.8q-1.7 0-3.3-0.3c-4.9-1.1-7.8-4.8-10.7-8.3q-0.9-1.2-1.8-2.3c-0.1-0.1-0.1-0.3-0.1-0.5 0-0.1 0.1-0.2 0.4-0.6 0.2-0.2 0.4-0.4 0.4-0.5 1-1.6 1.5-3.6 1.4-5.6v-0.3l0.3-0.1q1.5-0.4 2.9-0.8c4-1.1 8.2-2.2 12.4-0.8 4.6 1.5 8.3 5.7 10.3 9.2 1.3 2.2 1.7 3.8 1.3 5.2-0.4 1.2-1.4 2.2-3.1 3.1-2.7 1.5-6.6 2.6-10.4 2.6zm-15-11.3c0.6 0.7 1.1 1.4 1.7 2.1 2.9 3.6 5.6 7 10.2 8 3.8 0.9 9.1 0 13.1-2.1 1.5-0.8 2.4-1.7 2.7-2.7 0.3-1.1-0.1-2.5-1.2-4.5-2-3.3-5.5-7.4-9.8-8.8-4.1-1.4-7.9-0.3-11.9 0.8q-1.3 0.4-2.7 0.8c0.1 2-0.5 4-1.5 5.6 0 0.1-0.2 0.4-0.4 0.6q-0.1 0.1-0.2 0.2z"></path><path fill-rule="evenodd" class="a" d="m112.3 152.5l-0.2-0.3c-0.8-1.3-2.2-2.6-3.7-3.4-0.2 0-0.5-0.1-0.8-0.2-0.5-0.2-0.9-0.3-1.1-0.4 0-0.1-0.2-0.2-0.2-0.4l-0.1-0.1h0.1q0-1.5 0.1-2.9c0.2-4.6 0.4-9.3 3.9-13.2 2.6-2.8 7.5-5.3 12-6.1 2.1-0.3 3.7 0 4.8 0.9 1.8 1.6 1.9 4.7 1.9 7.4 0 8.4-3.1 13.2-10.4 16.3-1.4 0.6-2.7 1.1-4.1 1.6q-0.9 0.3-1.9 0.7zm-5.1-5c0.1 0 0.5 0.1 0.7 0.2 0.3 0.1 0.7 0.2 0.9 0.3 1.5 0.8 3 2.1 3.9 3.4q0.8-0.3 1.6-0.6c1.3-0.4 2.7-0.9 4-1.5 7-3 9.9-7.5 9.9-15.5 0-3.2-0.3-5.5-1.6-6.7-0.9-0.8-2.3-1-4.1-0.7-4.3 0.7-9.1 3-11.6 5.8-3.2 3.6-3.4 8-3.6 12.7q-0.1 1.3-0.1 2.6z"></path><path fill-rule="evenodd" class="a" d="m104.3 166.3q-1.1 0-2.2-0.3c-3.3-0.9-5.8-3.6-6.6-7-0.6-2.7 0.3-5.6 2.3-7.8 2.2-2.2 5.2-3.1 8.1-2.6 3.2 0.7 5.7 2.9 6.7 6 1.1 3.1 0.4 6.3-1.8 8.7-1.7 1.9-4.1 3-6.5 3zm-8-7.5c0.7 3.1 3 5.5 6 6.3 2.9 0.8 5.8-0.1 7.9-2.4 1.9-2.1 2.5-5.1 1.6-7.8-0.9-2.8-3.2-4.8-6-5.4-2.7-0.5-5.4 0.3-7.4 2.3-1.8 1.9-2.6 4.6-2.1 7z"></path><path fill-rule="evenodd" class="a" d="m168.7 151.9q0 0 0 0c-1.9 0-3.8-1.3-6-3.8-2.6-3.1-6.8-9.4-5.8-16.5 0.5-3.8 2.7-7 4.8-10.2q0.7-1 1.3-2.1-0.1 0-0.1-0.1-0.4-0.2-0.7-0.4-0.6 0.7-1.2 1.5c-2.9 3.7-6 7.5-10.9 9.1-5.4 1.7-12.1 0-16.2-1.9-2.5-1.1-4-2.5-4.5-4.2-0.5-2 0.2-4.2 2.4-7.5 2.5-3.7 6.7-8.4 12.7-9.7 4-0.8 7.9 0.2 11.8 1.3q1.2 0.3 2.4 0.6 0.1-0.1 0.1-0.2c0.1-0.2 0.2-0.4 0.2-0.6q-0.9-0.4-1.8-0.7c-4.5-1.7-9.1-3.4-12-7.7-2.7-3.9-3.9-9.8-3.2-15.7 0.3-2.8 1.2-4.7 2.6-5.7 1.5-1 3.7-1.1 7-0.3 6.3 1.6 14.2 5.4 15.9 14.6 0.4 1.9 0.4 3.9 0.5 5.8q0.1 1.5 0.2 2.9 0.2 0 0.5 0c0.1 0 0.3 0 0.4 0q0.1-1.2 0.1-2.4c0.2-3.9 0.4-8 2.4-11.5 2.5-4.4 7.2-7.6 13.8-9.4 3.4-0.9 5.7-0.8 7.3 0.3 1.6 1.2 2.5 3.3 2.7 6.9 0.6 9.5-2.8 16.4-9.8 19.9-1.8 0.9-3.7 1.6-5.6 2.2q-0.8 0.4-1.7 0.7l0.3 0.8q1.2-0.3 2.4-0.6c3.7-1 7.6-2.1 11.5-1.3 5.2 0.9 10.3 5.1 13.8 11 1.6 2.7 2 4.6 1.5 6.3-0.4 1.5-1.7 2.7-3.8 3.8-4.2 2.2-10.8 3.7-16 2.4-5.4-1.4-8.5-5.3-11.8-9.4q-0.5-0.6-1.1-1.3-0.1 0.1-0.4 0.3-0.2 0.1-0.4 0.2 0.7 1 1.3 2c2 2.9 4 5.9 4.7 9.2 1.2 5.6-0.9 12-5.8 17.8-2.1 2.4-4 3.6-5.8 3.6zm-6.2-34.3l0.2 0.5c0 0 0.4 0.3 0.6 0.4 0.5 0.3 0.7 0.4 0.7 0.7v0.1l-0.1 0.2q-0.7 1.2-1.5 2.4c-2.1 3-4.1 6.2-4.7 9.9-0.9 6.7 3.2 12.7 5.7 15.7 2 2.4 3.7 3.5 5.3 3.5q0 0 0 0c1.6 0 3.2-1 5.1-3.3 4.8-5.5 6.8-11.7 5.6-17-0.6-3.2-2.6-6.1-4.5-8.9q-0.8-1.2-1.5-2.3v-0.2c-0.1-0.3 0.1-0.4 0.8-0.9 0.2-0.1 0.5-0.4 0.6-0.4l0.1-0.2 0.6 0.1 0.1 0.1q0.6 0.8 1.3 1.6c3.1 4 6.1 7.7 11.3 9 5 1.3 11.3-0.2 15.4-2.2 1.9-1 3-2.1 3.4-3.4 0.4-1.4 0-3.2-1.4-5.5-3.4-5.8-8.3-9.8-13.3-10.7-3.7-0.7-7.4 0.3-11 1.3q-1.5 0.4-2.9 0.7l-0.4 0.1-0.7-2.3 0.4-0.2q1-0.4 2-0.8c1.9-0.6 3.8-1.3 5.5-2.2 6.8-3.3 9.9-9.7 9.3-19.1-0.2-3.2-0.9-5.2-2.3-6.2-1.4-1-3.5-1-6.6-0.2-4.4 1.3-10.3 3.8-13.3 9-1.9 3.3-2.1 7.3-2.2 11.1q-0.1 1.4-0.2 2.8v0.2l-0.1 0.1c-0.2 0.2-0.5 0.2-1.1 0.2-0.2 0-0.6 0-0.7 0l-0.6 0.2v-0.6c-0.1-1.1-0.2-2.3-0.2-3.4-0.1-1.9-0.2-3.8-0.5-5.7-1.7-8.7-9.2-12.3-15.3-13.9-3.1-0.7-5-0.7-6.3 0.2-1.2 0.9-2 2.5-2.3 5.1-0.6 5.7 0.5 11.4 3.1 15.1 2.8 4.1 7.1 5.7 11.6 7.4q1 0.4 2.1 0.8c0.2 0.1 0.3 0.3 0.3 0.4 0.1 0.2 0 0.3-0.3 1.2-0.1 0.2-0.1 0.4-0.2 0.5l-0.1 0.4-0.4-0.1q-1.4-0.3-2.9-0.7c-3.7-1-7.5-2.1-11.3-1.2-5.7 1.2-9.8 5.7-12.2 9.3-2 3-2.7 5.1-2.2 6.7 0.4 1.5 1.7 2.7 4 3.8 4.2 1.9 10.7 3.3 15.5 1.8 4.7-1.5 7.6-5.1 10.6-8.9q0.6-0.8 1.3-1.7l0.2-0.1z"></path><path fill-rule="evenodd" class="a" d="m145.3 128.3c-3 0-5.9-0.8-8.1-1.6-2.1-0.8-4.9-2.1-5.4-4.4-0.3-1.8 0.7-4.2 3.1-7.4 4.1-5.5 9.1-8 14.6-7.3 2.1 0.2 4.2 0.8 6.2 1.4 1 0.3 2.1 0.6 3.2 0.8l0.3 0.1v0.3q0.1 0.4 0 0.8 0 0.4 0.1 0.7c0.2 1.7 0.9 3.5 2 5l0.2 0.3-0.2 0.2q-1 1.2-2 2.5c-2.4 3-4.8 6.1-8.4 7.6-1.8 0.7-3.7 1-5.6 1zm2.6-20c-4.7 0-8.8 2.4-12.4 7.1-2.7 3.7-3 5.7-2.8 6.7 0.4 1.9 2.9 3.1 4.8 3.8 3.4 1.3 8.5 2.4 13.1 0.6 3.3-1.4 5.7-4.4 8-7.3q0.9-1.2 1.8-2.3c-1.1-1.5-1.8-3.3-2-5.1q0-0.4 0-0.8 0-0.2 0-0.4c-1-0.3-2-0.6-3-0.8-1.9-0.6-4-1.2-6-1.4q-0.8-0.1-1.5-0.1z"></path><path fill-rule="evenodd" class="a" d="m168.6 149.3q-0.6 0-1.3-0.3c-3.4-1.3-7.3-7.9-8.2-11.1-0.6-1.9-0.8-3.9-0.6-5.7 0.4-3.6 2.4-6.6 4.4-9.6 0.6-0.9 1.2-1.9 1.8-2.8l0.1-0.1 0.5-0.2 0.1 0.1c1.7 0.7 3.7 0.8 5.6 0.3q0.2 0 0.3-0.1c0.6-0.2 1-0.3 1.2-0.1h0.1l0.1 0.1c0.5 0.9 1.1 1.8 1.7 2.6 2 3 4 6 4.4 9.7 0.6 4.8-1.7 9.3-3.8 12.2-1.1 1.6-3.5 5-6.4 5zm-3.3-28.8c-0.6 0.8-1.1 1.7-1.7 2.6-1.9 2.8-3.9 5.8-4.2 9.2-0.2 1.7 0 3.6 0.5 5.3 1 3.4 4.8 9.5 7.7 10.6 2.5 0.9 4.9-1.9 6.7-4.4 2-2.8 4.3-7 3.7-11.6-0.4-3.5-2.4-6.4-4.3-9.3q-0.8-1.2-1.6-2.4c-0.2 0-0.3 0.1-0.5 0.1q-0.2 0.1-0.4 0.1c-2 0.5-4.1 0.4-5.9-0.2z"></path><path fill-rule="evenodd" class="a" d="m160.2 105.8h-0.1q-1.3-0.5-2.7-1c-4.1-1.5-8.3-3.1-10.9-7.1-2.1-3.2-3.1-7.9-2.6-12.9 0.2-2.7 0.8-4.2 2-5.1 1.1-0.9 2.8-1.1 5.1-0.6 4.6 0.8 10.8 3.6 13.5 8.8 1.6 3 1.7 6.5 1.9 9.8 0 1.1 0.1 2.3 0.2 3.5v0.3l-0.3 0.1c-2 0.5-3.6 1.6-5.1 3.3q0 0.1-0.1 0.2c-0.2 0.3-0.4 0.7-0.8 0.7zm-11.4-26.1q-1.5 0-2.4 0.6c-0.9 0.8-1.5 2.2-1.7 4.6-0.4 4.8 0.5 9.3 2.5 12.4 2.5 3.7 6.4 5.1 10.5 6.7q1.3 0.4 2.5 0.9c0.1-0.1 0.1-0.2 0.2-0.3q0.1-0.1 0.2-0.2 2.1-2.7 5.1-3.5c-0.1-1.1-0.1-2.1-0.2-3.2-0.1-3.2-0.3-6.6-1.8-9.5-2.5-4.8-8.5-7.5-12.8-8.3q-1.2-0.2-2.1-0.2z"></path><path fill-rule="evenodd" class="a" d="m191.9 128.2q-1.7 0-3.3-0.3c-5-1.1-7.9-4.8-10.7-8.4q-0.9-1.1-1.8-2.2l-0.1-0.1c0-0.1-0.1-0.2 0-0.4 0-0.1 0-0.2 0.4-0.6 0.1-0.2 0.3-0.5 0.4-0.6 0.9-1.5 1.4-3.5 1.3-5.5v-0.3l0.4-0.1q1.4-0.4 2.9-0.8c4-1.1 8.1-2.3 12.4-0.8 4.5 1.5 8.3 5.7 10.3 9.2 1.3 2.2 1.7 3.8 1.3 5.1-0.4 1.3-1.4 2.3-3.1 3.2-2.7 1.4-6.6 2.6-10.4 2.6zm-15-11.3c0.5 0.7 1.1 1.4 1.7 2.1 2.8 3.6 5.5 7 10.2 8 3.7 0.8 9.1-0.1 13.1-2.1 1.5-0.8 2.4-1.7 2.6-2.7 0.4-1.1 0-2.5-1.2-4.5-1.9-3.3-5.5-7.4-9.8-8.8-4-1.4-7.8-0.3-11.9 0.8q-1.3 0.4-2.6 0.7c0 2.1-0.5 4-1.5 5.7-0.1 0.1-0.3 0.4-0.5 0.6q-0.1 0.1-0.1 0.2z"></path><path fill-rule="evenodd" class="a" d="m176.7 105.9l-0.1-0.3c-0.8-1.3-2.2-2.6-3.8-3.4-0.1-0.1-0.5-0.2-0.8-0.3-0.5-0.1-0.8-0.2-1-0.4-0.1 0-0.2-0.1-0.3-0.3v-0.1-0.1q0.1-1.4 0.2-2.8c0.2-4.6 0.4-9.4 3.8-13.2 2.7-2.9 7.6-5.4 12.1-6.1 2.1-0.3 3.6 0 4.7 0.9 1.9 1.6 2 4.6 2 7.4 0 8.3-3.2 13.2-10.5 16.3-1.3 0.6-2.7 1.1-4 1.5q-1 0.4-1.9 0.8zm-5.2-5.1c0.2 0.1 0.5 0.2 0.7 0.3 0.4 0.1 0.7 0.2 1 0.3 1.5 0.8 3 2.1 3.8 3.4q0.8-0.3 1.7-0.6c1.3-0.5 2.6-1 3.9-1.5 7.1-3 9.9-7.5 10-15.5 0-3.2-0.3-5.6-1.7-6.8-0.9-0.7-2.2-0.9-4.1-0.7-4.3 0.7-9 3.1-11.5 5.9-3.3 3.6-3.4 8-3.6 12.6q-0.1 1.3-0.2 2.6z"></path><path fill-rule="evenodd" class="a" d="m168.8 119.6q-1.2 0-2.3-0.3c-3.3-0.8-5.8-3.5-6.5-6.9-0.6-2.8 0.2-5.7 2.3-7.8 2.2-2.2 5.2-3.2 8.1-2.6 3.2 0.7 5.7 2.9 6.7 6 1 3 0.3 6.3-1.8 8.7-1.8 1.9-4.1 2.9-6.5 2.9zm-0.1-16.9c-2.1 0-4.2 0.9-5.8 2.5-1.9 1.9-2.6 4.5-2.1 7 0.7 3.1 3 5.5 5.9 6.3 2.9 0.8 5.9-0.1 8-2.4 1.9-2.2 2.5-5.1 1.6-7.9-0.9-2.8-3.2-4.8-6.1-5.3q-0.7-0.2-1.5-0.2z"></path><path fill-rule="evenodd" class="a" d="m143.9 75.6q0 0 0 0c-1.9 0-3.8-1.2-5.9-3.8-2.6-3.1-6.9-9.3-5.9-16.4 0.6-3.8 2.7-7.1 4.8-10.2q0.7-1.1 1.3-2.1 0-0.1-0.1-0.1-0.4-0.3-0.6-0.5-0.6 0.8-1.2 1.5c-3 3.7-6 7.6-11 9.1-5.4 1.7-12.1 0.1-16.2-1.8-2.5-1.2-4-2.6-4.4-4.3-0.6-1.9 0.1-4.2 2.3-7.4 2.5-3.7 6.8-8.4 12.7-9.7 4-0.9 8 0.2 11.8 1.2q1.2 0.4 2.5 0.7 0-0.1 0-0.2c0.1-0.2 0.2-0.5 0.3-0.7q-0.9-0.3-1.9-0.7c-4.4-1.6-9-3.4-12-7.7-2.7-3.9-3.9-9.8-3.2-15.7 0.3-2.8 1.2-4.6 2.6-5.6 1.5-1.1 3.7-1.2 7.1-0.3 6.3 1.6 14.1 5.4 15.8 14.5 0.4 1.9 0.5 3.9 0.6 5.8q0 1.5 0.1 3 0.3 0 0.5 0 0.2 0 0.4 0 0.1-1.2 0.1-2.5c0.2-3.9 0.4-7.9 2.4-11.5 2.5-4.3 7.2-7.5 13.8-9.3 3.4-1 5.7-0.9 7.3 0.3 1.6 1.1 2.5 3.3 2.7 6.8 0.6 9.6-2.8 16.5-9.8 19.9-1.8 0.9-3.7 1.6-5.5 2.3q-0.9 0.3-1.7 0.6l0.2 0.9q1.3-0.3 2.5-0.7c3.7-1 7.5-2 11.4-1.3 5.2 1 10.4 5.1 13.8 11.1 1.6 2.6 2.1 4.6 1.6 6.2-0.5 1.5-1.7 2.8-3.9 3.9-4.2 2.1-10.7 3.7-16 2.3-5.4-1.4-8.5-5.2-11.8-9.3q-0.5-0.7-1-1.4-0.2 0.2-0.5 0.4-0.1 0.1-0.3 0.2 0.6 1 1.3 2c1.9 2.8 3.9 5.8 4.6 9.2 1.2 5.5-0.9 12-5.8 17.7-2.1 2.5-4 3.6-5.8 3.6zm-6.1-34.3l0.1 0.5c0.1 0.1 0.4 0.3 0.7 0.5 0.4 0.3 0.6 0.4 0.6 0.7v0.1 0.1q-0.8 1.2-1.6 2.4c-2 3.1-4.1 6.3-4.6 9.9-1 6.7 3.1 12.8 5.6 15.8 2 2.3 3.7 3.5 5.3 3.5q0 0 0 0c1.6 0 3.2-1.1 5.2-3.3 4.7-5.5 6.7-11.7 5.6-17-0.7-3.2-2.7-6.1-4.5-9q-0.8-1.1-1.5-2.3l-0.1-0.1c-0.1-0.3 0.1-0.5 0.8-0.9 0.2-0.2 0.5-0.4 0.6-0.5l0.2-0.1h0.5l0.1 0.2q0.7 0.8 1.3 1.6c3.2 3.9 6.2 7.7 11.3 9 5.1 1.3 11.4-0.2 15.4-2.3 1.9-0.9 3.1-2 3.5-3.3 0.4-1.4-0.1-3.2-1.5-5.6-3.4-5.7-8.3-9.7-13.3-10.6-3.7-0.7-7.4 0.3-11 1.3q-1.4 0.3-2.8 0.7l-0.4 0.1-0.8-2.4 0.4-0.1q1-0.4 2.1-0.8c1.8-0.7 3.7-1.4 5.4-2.2 6.8-3.4 10-9.8 9.4-19.1-0.2-3.3-1-5.2-2.4-6.2-1.3-1-3.4-1.1-6.6-0.2-4.4 1.2-10.3 3.8-13.2 8.9-1.9 3.4-2.1 7.4-2.3 11.2q-0.1 1.4-0.2 2.8v0.1l-0.1 0.1c-0.1 0.3-0.4 0.3-1.1 0.2-0.2 0-0.6 0-0.7 0.1l-0.5 0.2-0.1-0.6c-0.1-1.1-0.1-2.3-0.2-3.4-0.1-1.9-0.2-3.9-0.5-5.7-1.6-8.7-9.2-12.4-15.2-13.9-3.1-0.8-5.1-0.7-6.4 0.2-1.2 0.8-1.9 2.5-2.2 5-0.7 5.7 0.4 11.4 3 15.2 2.8 4 7.1 5.6 11.6 7.3q1.1 0.4 2.1 0.8c0.2 0.2 0.3 0.3 0.4 0.4 0 0.2 0 0.4-0.4 1.3 0 0.2-0.1 0.4-0.1 0.5l-0.1 0.4-0.4-0.1q-1.5-0.3-2.9-0.7c-3.7-1.1-7.6-2.1-11.4-1.3-5.7 1.2-9.8 5.8-12.2 9.3-2 3.1-2.7 5.1-2.2 6.8 0.4 1.4 1.7 2.7 4 3.7 4.3 2 10.7 3.3 15.5 1.8 4.7-1.5 7.6-5 10.6-8.8q0.7-0.9 1.4-1.7l0.1-0.1z"></path><path fill-rule="evenodd" class="a" d="m120.5 52c-3 0-5.8-0.7-8-1.5-2.1-0.8-5-2.2-5.4-4.5-0.4-1.7 0.6-4.2 3-7.3 4.1-5.5 9.1-8 14.7-7.4 2 0.3 4.1 0.8 6.1 1.4 1.1 0.3 2.2 0.6 3.2 0.9h0.3v0.3q0.1 0.5 0.1 0.9 0 0.3 0 0.6c0.2 1.8 0.9 3.6 2.1 5.1l0.2 0.2-0.3 0.3q-0.9 1.2-2 2.5c-2.3 3-4.8 6.1-8.3 7.5-1.9 0.8-3.8 1-5.7 1zm-12.6-6.1c0.4 1.9 3 3 4.9 3.8 3.4 1.2 8.4 2.4 13 0.5 3.4-1.3 5.8-4.3 8.1-7.3q0.9-1.1 1.8-2.2c-1.1-1.5-1.9-3.4-2-5.2q-0.1-0.3-0.1-0.7 0-0.2 0-0.5c-1-0.2-2-0.5-2.9-0.8-2-0.5-4-1.1-6-1.3-5.3-0.6-10 1.7-13.9 7-2.8 3.7-3.1 5.6-2.9 6.7z"></path><path fill-rule="evenodd" class="a" d="m143.9 73q-0.7 0-1.3-0.2c-3.5-1.3-7.4-8-8.3-11.2-0.6-1.8-0.7-3.8-0.5-5.7 0.3-3.5 2.4-6.6 4.3-9.5 0.6-0.9 1.2-1.9 1.8-2.8l0.1-0.2 0.5-0.1 0.1 0.1c1.8 0.6 3.7 0.7 5.7 0.3q0.1-0.1 0.3-0.1c0.5-0.2 0.9-0.4 1.2-0.2l0.1 0.1v0.1c0.6 0.8 1.2 1.7 1.7 2.6 2 3 4 6 4.5 9.7 0.6 4.8-1.8 9.3-3.8 12.1-1.2 1.6-3.6 5-6.4 5zm-3.4-28.8c-0.5 0.9-1.1 1.8-1.7 2.7-1.9 2.8-3.8 5.8-4.2 9.1-0.2 1.8 0 3.6 0.5 5.4 1 3.4 4.8 9.5 7.8 10.6 2.5 0.9 4.9-1.9 6.7-4.4 1.9-2.8 4.2-7.1 3.6-11.6-0.4-3.5-2.4-6.5-4.3-9.3-0.5-0.8-1.1-1.7-1.6-2.5-0.1 0.1-0.3 0.1-0.4 0.2q-0.3 0.1-0.4 0.1c-2.1 0.5-4.1 0.4-6-0.3z"></path><path fill-rule="evenodd" class="a" d="m135.4 29.6h-0.1q-1.3-0.6-2.6-1.1c-4.1-1.5-8.3-3-10.9-7-2.2-3.2-3.1-7.9-2.7-12.9 0.3-2.7 0.9-4.3 2.1-5.2 1.1-0.8 2.7-1 5.1-0.6 4.5 0.9 10.7 3.7 13.4 8.8 1.6 3.1 1.8 6.5 1.9 9.9 0.1 1.1 0.1 2.3 0.2 3.4l0.1 0.4-0.4 0.1c-2 0.5-3.6 1.5-5 3.3q-0.1 0-0.2 0.2c-0.2 0.3-0.4 0.7-0.8 0.7zm-11.3-26.2q-1.6 0-2.4 0.7c-1 0.7-1.5 2.1-1.7 4.5-0.5 4.8 0.4 9.3 2.5 12.4 2.4 3.8 6.5 5.3 10.4 6.7q1.3 0.5 2.5 1c0.1-0.1 0.2-0.2 0.2-0.3q0.1-0.2 0.2-0.3 2.2-2.6 5.1-3.5c-0.1-1-0.1-2.1-0.2-3.1-0.1-3.3-0.2-6.6-1.7-9.5-2.6-4.8-8.6-7.5-12.9-8.3q-1.2-0.3-2-0.3z"></path><path fill-rule="evenodd" class="a" d="m167.1 51.9q-1.7 0.1-3.3-0.3c-4.9-1.1-7.8-4.7-10.7-8.3q-0.9-1.1-1.8-2.2v-0.1c-0.1-0.1-0.2-0.2-0.1-0.5 0-0.1 0.1-0.1 0.4-0.6 0.2-0.2 0.4-0.4 0.4-0.5 1-1.6 1.5-3.5 1.4-5.5v-0.4h0.3q1.5-0.4 2.9-0.8c4-1.2 8.2-2.3 12.4-0.9 4.5 1.5 8.3 5.8 10.3 9.2 1.3 2.3 1.7 3.8 1.3 5.2-0.4 1.2-1.4 2.3-3.1 3.2-2.7 1.4-6.6 2.5-10.4 2.5zm-15-11.2c0.6 0.6 1.1 1.4 1.7 2.1 2.9 3.6 5.6 7 10.2 8 3.8 0.8 9.1-0.1 13.1-2.2 1.5-0.8 2.4-1.6 2.7-2.6 0.3-1.1-0.1-2.5-1.2-4.5-2-3.4-5.5-7.4-9.8-8.9-4.1-1.3-7.9-0.2-11.9 0.9q-1.3 0.4-2.7 0.7c0.1 2-0.5 4-1.5 5.6 0 0.2-0.2 0.4-0.4 0.7q-0.1 0.1-0.2 0.2z"></path><path fill-rule="evenodd" class="a" d="m152 29.6l-0.2-0.3c-0.8-1.3-2.2-2.6-3.7-3.3-0.2-0.1-0.5-0.2-0.8-0.3-0.5-0.2-0.9-0.3-1.1-0.4 0-0.1-0.2-0.2-0.2-0.4h-0.1l0.1-0.1q0-1.4 0.1-2.8c0.2-4.6 0.4-9.4 3.9-13.2 2.6-2.9 7.5-5.4 12-6.1 2.1-0.3 3.7-0.1 4.8 0.9 1.8 1.5 1.9 4.6 1.9 7.3 0 8.4-3.1 13.3-10.4 16.4-1.4 0.5-2.7 1-4.1 1.5q-0.9 0.4-1.9 0.7zm-5.1-5c0.1 0.1 0.5 0.2 0.7 0.3 0.3 0.1 0.7 0.2 0.9 0.3 1.5 0.7 3 2 3.9 3.4q0.8-0.3 1.6-0.6c1.3-0.5 2.7-1 4-1.5 7-3 9.9-7.5 9.9-15.6 0-3.2-0.3-5.5-1.6-6.7-0.9-0.8-2.3-1-4.1-0.7-4.3 0.7-9.1 3.1-11.6 5.8-3.2 3.6-3.4 8-3.6 12.7q-0.1 1.3-0.1 2.6z"></path><path fill-rule="evenodd" class="a" d="m144 43.4q-1.1 0-2.2-0.3c-3.3-0.9-5.8-3.5-6.6-6.9-0.6-2.8 0.3-5.7 2.3-7.8 2.2-2.2 5.2-3.2 8.1-2.6 3.2 0.6 5.7 2.8 6.7 5.9 1.1 3.1 0.4 6.4-1.8 8.7-1.7 2-4.1 3-6.5 3zm0-16.9c-2.2 0-4.3 0.9-5.9 2.5-1.8 1.9-2.6 4.5-2.1 7 0.7 3.1 3 5.5 6 6.3 2.9 0.7 5.8-0.2 7.9-2.4 1.9-2.2 2.5-5.1 1.6-7.9-0.9-2.8-3.2-4.8-6-5.4q-0.8-0.1-1.5-0.1z"></path><path fill-rule="evenodd" class="a" d="m64.2 75.9q0 0-0.1 0c-1.8 0-3.7-1.2-5.9-3.8-2.6-3.1-6.8-9.3-5.8-16.4 0.5-3.8 2.7-7.1 4.8-10.2q0.7-1.1 1.3-2.1-0.1-0.1-0.1-0.1-0.4-0.3-0.7-0.5-0.6 0.8-1.2 1.5c-2.9 3.8-6 7.6-10.9 9.1-5.4 1.7-12.1 0.1-16.2-1.8-2.5-1.2-4-2.6-4.5-4.3-0.5-1.9 0.2-4.1 2.4-7.4 2.5-3.7 6.7-8.4 12.7-9.7 4-0.9 7.9 0.2 11.8 1.2q1.2 0.4 2.4 0.7 0.1-0.1 0.1-0.2c0.1-0.2 0.2-0.5 0.2-0.6q-0.9-0.4-1.8-0.7c-4.5-1.7-9.1-3.4-12-7.7-2.7-4-3.9-9.8-3.2-15.8 0.3-2.8 1.1-4.6 2.6-5.6 1.5-1.1 3.7-1.2 7-0.3 6.3 1.6 14.2 5.4 15.9 14.6 0.3 1.9 0.4 3.8 0.5 5.8q0.1 1.4 0.2 2.9 0.2 0 0.5 0 0.2 0 0.4 0 0-1.2 0.1-2.4c0.2-4 0.4-8 2.4-11.6 2.5-4.3 7.2-7.5 13.8-9.3 3.4-0.9 5.7-0.8 7.3 0.3 1.6 1.1 2.5 3.3 2.7 6.8 0.6 9.6-2.8 16.5-9.8 20-1.8 0.8-3.7 1.5-5.6 2.2q-0.8 0.3-1.7 0.7l0.3 0.8q1.2-0.3 2.4-0.7c3.7-1 7.6-2 11.5-1.3 5.2 1 10.3 5.1 13.8 11.1 1.6 2.6 2 4.6 1.5 6.2-0.4 1.5-1.7 2.8-3.8 3.9-4.2 2.1-10.8 3.7-16 2.3-5.4-1.3-8.5-5.2-11.8-9.3q-0.5-0.7-1.1-1.3-0.1 0.1-0.4 0.3-0.2 0.1-0.4 0.2 0.7 1 1.3 2c2 2.9 4 5.8 4.7 9.2 1.2 5.6-0.9 12-5.8 17.7-2.1 2.5-4 3.6-5.8 3.6zm-6.2-34.3l0.2 0.6c0 0 0.4 0.2 0.6 0.4 0.5 0.3 0.7 0.4 0.7 0.7v0.1l-0.1 0.1q-0.7 1.2-1.5 2.4c-2.1 3.1-4.1 6.3-4.7 9.9-0.9 6.8 3.2 12.8 5.7 15.8 2 2.4 3.7 3.5 5.3 3.5 1.5 0 3.2-1.1 5.1-3.3 4.8-5.5 6.8-11.7 5.6-17-0.6-3.2-2.6-6.1-4.5-9q-0.8-1.1-1.5-2.2v-0.2c-0.1-0.3 0.1-0.4 0.8-0.9 0.2-0.2 0.5-0.4 0.6-0.5l0.1-0.1h0.6l0.1 0.2q0.6 0.8 1.3 1.6c3.1 4 6.1 7.7 11.3 9 5 1.3 11.3-0.2 15.4-2.2 1.9-1 3-2.1 3.4-3.4 0.4-1.4 0-3.2-1.4-5.6-3.4-5.7-8.3-9.7-13.3-10.6-3.7-0.7-7.4 0.3-11 1.3q-1.5 0.4-2.9 0.7l-0.4 0.1-0.7-2.3 0.3-0.2q1.1-0.4 2.1-0.8c1.9-0.7 3.8-1.4 5.5-2.2 6.8-3.3 9.9-9.8 9.3-19.1-0.2-3.3-0.9-5.2-2.3-6.2-1.4-1-3.5-1-6.6-0.2-4.4 1.2-10.3 3.8-13.3 9-1.9 3.3-2.1 7.3-2.2 11.1q-0.1 1.4-0.2 2.8v0.1l-0.1 0.1c-0.2 0.3-0.5 0.3-1.1 0.3-0.2 0-0.6-0.1-0.7 0l-0.6 0.2v-0.6c-0.1-1.1-0.2-2.3-0.2-3.4-0.1-1.9-0.2-3.8-0.5-5.7-1.7-8.7-9.2-12.4-15.3-13.9-3.1-0.8-5-0.7-6.3 0.2-1.3 0.8-2 2.5-2.3 5-0.6 5.8 0.5 11.4 3.1 15.2 2.8 4.1 7.1 5.7 11.6 7.4q1 0.3 2.1 0.7c0.2 0.2 0.3 0.3 0.3 0.4 0.1 0.2 0 0.4-0.3 1.3-0.1 0.2-0.2 0.4-0.2 0.5l-0.1 0.4-0.4-0.1q-1.4-0.3-2.9-0.7c-3.7-1-7.5-2.1-11.3-1.3-5.7 1.3-9.8 5.8-12.2 9.4-2 3-2.7 5-2.2 6.7 0.4 1.4 1.7 2.7 4 3.7 4.2 2 10.7 3.3 15.5 1.8 4.7-1.4 7.5-5 10.6-8.8q0.6-0.9 1.3-1.7l0.2-0.1z"></path><path fill-rule="evenodd" class="a" d="m40.8 52.4c-3 0-5.9-0.8-8.1-1.6-2.1-0.8-4.9-2.1-5.4-4.5-0.3-1.7 0.7-4.2 3-7.3 4.2-5.5 9.2-8 14.7-7.4 2.1 0.3 4.2 0.9 6.2 1.4 1 0.3 2.1 0.6 3.2 0.9h0.3v0.3q0.1 0.5 0 0.9 0 0.3 0.1 0.6c0.2 1.8 0.9 3.6 2 5.1l0.2 0.2-0.2 0.3q-1 1.2-2 2.5c-2.4 3-4.8 6.1-8.4 7.5-1.8 0.8-3.7 1.1-5.6 1.1zm-12.6-6.2c0.3 1.9 2.9 3 4.8 3.8 3.4 1.2 8.5 2.4 13.1 0.5 3.3-1.3 5.7-4.3 8-7.2q0.9-1.2 1.8-2.3c-1.1-1.5-1.8-3.4-2-5.2q0-0.3 0-0.7 0-0.2 0-0.5c-1-0.2-2-0.5-3-0.8-1.9-0.5-4-1.1-6-1.3-5.2-0.6-9.9 1.7-13.9 7-2.7 3.7-3 5.6-2.8 6.7z"></path><path fill-rule="evenodd" class="a" d="m64.1 73.3q-0.6 0-1.3-0.2c-3.4-1.3-7.3-8-8.2-11.2-0.6-1.8-0.8-3.8-0.6-5.6 0.4-3.6 2.4-6.7 4.4-9.6 0.6-0.9 1.2-1.9 1.8-2.8l0.1-0.2 0.5-0.1 0.1 0.1c1.7 0.6 3.7 0.7 5.6 0.3q0.2 0 0.3-0.1c0.6-0.2 1-0.3 1.2-0.2l0.1 0.1 0.1 0.1c0.5 0.9 1.1 1.8 1.7 2.6 2 3 4 6 4.4 9.7 0.6 4.8-1.7 9.3-3.8 12.2-1.1 1.5-3.5 4.9-6.4 4.9zm-8.7-11.6c1 3.4 4.8 9.5 7.7 10.6 2.5 0.9 4.9-1.9 6.7-4.4 2-2.8 4.3-7.1 3.7-11.6-0.4-3.5-2.4-6.4-4.3-9.3q-0.8-1.2-1.6-2.5c-0.2 0.1-0.3 0.1-0.5 0.2q-0.2 0.1-0.4 0.1c-2 0.5-4.1 0.4-5.9-0.3-0.6 0.9-1.2 1.8-1.7 2.7-1.9 2.8-3.9 5.8-4.2 9.2-0.2 1.7 0 3.5 0.5 5.3z"></path><path fill-rule="evenodd" class="a" d="m55.7 29.9h-0.1q-1.3-0.6-2.7-1.1c-4.1-1.5-8.3-3-10.9-7-2.1-3.2-3.1-7.9-2.6-12.9 0.2-2.7 0.8-4.3 2-5.2 1.1-0.8 2.8-1 5.1-0.6 4.6 0.9 10.8 3.7 13.5 8.8 1.6 3.1 1.7 6.5 1.9 9.9 0 1.1 0.1 2.3 0.2 3.4v0.4l-0.3 0.1c-2 0.5-3.6 1.6-5.1 3.3q0 0-0.1 0.2c-0.2 0.3-0.4 0.7-0.8 0.7zm-11.4-26.1q-1.5 0-2.4 0.6c-0.9 0.8-1.5 2.2-1.7 4.6-0.4 4.7 0.5 9.3 2.5 12.3 2.5 3.8 6.6 5.3 10.5 6.7q1.3 0.5 2.5 1c0.1-0.1 0.1-0.2 0.2-0.3q0.1-0.2 0.2-0.3 2.1-2.6 5.1-3.5c-0.1-1-0.1-2.1-0.2-3.1-0.1-3.2-0.3-6.6-1.8-9.5-2.5-4.8-8.5-7.5-12.8-8.3q-1.2-0.2-2.1-0.2z"></path><path fill-rule="evenodd" class="a" d="m87.4 52.3q-1.7 0-3.3-0.4c-5-1-7.9-4.7-10.7-8.3q-0.9-1.1-1.8-2.2l-0.1-0.1c0-0.1-0.1-0.2 0-0.4 0-0.2 0-0.2 0.4-0.7 0.1-0.2 0.3-0.4 0.4-0.5 0.9-1.6 1.4-3.5 1.3-5.5v-0.4h0.4q1.4-0.4 2.9-0.8c4-1.1 8.1-2.3 12.4-0.9 4.5 1.5 8.3 5.8 10.3 9.3 1.3 2.2 1.7 3.8 1.3 5.1-0.4 1.2-1.4 2.3-3.1 3.2-2.7 1.4-6.6 2.6-10.4 2.6zm-15-11.3c0.5 0.7 1.1 1.4 1.7 2.1 2.8 3.6 5.5 7 10.2 8 3.7 0.8 9.1-0.1 13.1-2.2 1.5-0.8 2.4-1.6 2.6-2.6 0.4-1.1 0-2.5-1.2-4.5-1.9-3.4-5.5-7.4-9.8-8.9-4-1.3-7.8-0.2-11.9 0.9q-1.3 0.4-2.6 0.7c0 2-0.5 4-1.5 5.7-0.1 0.1-0.3 0.3-0.5 0.6q-0.1 0.1-0.1 0.2z"></path><path fill-rule="evenodd" class="a" d="m72.2 30l-0.1-0.4c-0.8-1.3-2.2-2.6-3.8-3.3-0.1-0.1-0.5-0.2-0.8-0.3-0.5-0.2-0.8-0.3-1-0.4-0.1 0-0.2-0.1-0.3-0.4v-0.1q0.1-1.4 0.2-2.8c0.2-4.6 0.4-9.4 3.8-13.2 2.7-2.9 7.6-5.4 12.1-6.1 2.1-0.3 3.6 0 4.7 0.9 1.8 1.6 2 4.6 2 7.4 0 8.3-3.2 13.2-10.5 16.3-1.3 0.5-2.7 1-4 1.5q-1 0.4-1.9 0.7zm-5.2-5c0.2 0.1 0.5 0.2 0.7 0.3 0.4 0.1 0.7 0.2 1 0.3 1.5 0.8 3 2 3.8 3.4q0.8-0.3 1.6-0.6c1.4-0.5 2.7-1 4-1.5 7.1-3 9.9-7.5 10-15.6 0-3.1-0.3-5.5-1.7-6.7-0.9-0.7-2.2-1-4.1-0.7-4.3 0.7-9 3.1-11.5 5.8-3.3 3.6-3.5 8-3.6 12.7q-0.1 1.3-0.2 2.6z"></path><path fill-rule="evenodd" class="a" d="m64.3 43.7q-1.2 0-2.3-0.3c-3.3-0.9-5.8-3.5-6.5-6.9-0.6-2.8 0.2-5.7 2.3-7.8 2.2-2.2 5.2-3.2 8.1-2.6 3.2 0.6 5.7 2.9 6.7 5.9 1 3.1 0.3 6.4-1.8 8.7-1.8 2-4.1 3-6.5 3zm-8-7.4c0.7 3.1 3 5.5 5.9 6.3 2.9 0.8 5.9-0.2 8-2.4 1.9-2.2 2.5-5.1 1.6-7.9-0.9-2.8-3.2-4.8-6.1-5.4-2.6-0.5-5.3 0.4-7.3 2.4-1.9 1.9-2.6 4.5-2.1 7z"></path><path fill-rule="evenodd" class="a" d="m39.6 151.4q0 0 0 0c-1.9 0-3.7-1.2-5.9-3.8-2.6-3.1-6.8-9.4-5.8-16.4 0.5-3.8 2.6-7.1 4.7-10.3q0.7-1 1.4-2-0.1-0.1-0.2-0.1-0.4-0.3-0.6-0.5-0.6 0.8-1.2 1.5c-3 3.7-6 7.6-11 9.1-5.4 1.7-12 0.1-16.1-1.8-2.6-1.2-4-2.6-4.5-4.3-0.6-1.9 0.2-4.2 2.4-7.5 2.5-3.7 6.7-8.4 12.6-9.6 4.1-0.9 8 0.2 11.8 1.2q1.3 0.4 2.5 0.7 0-0.1 0.1-0.3c0-0.1 0.1-0.4 0.2-0.6q-0.9-0.3-1.8-0.7c-4.5-1.6-9.1-3.4-12.1-7.7-2.7-3.9-3.8-9.8-3.2-15.7 0.4-2.8 1.2-4.6 2.6-5.6 1.6-1.1 3.7-1.2 7.1-0.3 6.3 1.5 14.1 5.4 15.9 14.5 0.3 1.9 0.4 3.9 0.5 5.8q0.1 1.5 0.2 3 0.2 0 0.5 0 0.1 0 0.3 0 0.1-1.2 0.2-2.5c0.1-3.9 0.3-8 2.4-11.5 2.4-4.3 7.2-7.5 13.7-9.3 3.4-1 5.8-0.9 7.4 0.3 1.6 1.1 2.4 3.3 2.6 6.8 0.7 9.6-2.7 16.5-9.8 19.9-1.8 0.9-3.7 1.6-5.5 2.3q-0.9 0.3-1.7 0.6l0.3 0.8q1.2-0.3 2.4-0.6c3.7-1 7.5-2 11.4-1.3 5.2 1 10.4 5.1 13.9 11.1 1.5 2.6 2 4.5 1.5 6.2-0.4 1.5-1.7 2.8-3.9 3.9-4.1 2.1-10.7 3.7-16 2.3-5.4-1.4-8.5-5.2-11.7-9.3q-0.6-0.7-1.1-1.4-0.2 0.1-0.5 0.3-0.1 0.2-0.3 0.3 0.6 0.9 1.3 1.9c1.9 2.9 3.9 5.9 4.6 9.3 1.3 5.5-0.9 12-5.8 17.7-2.1 2.5-3.9 3.6-5.8 3.6zm-6.1-34.3l0.1 0.5c0.1 0 0.5 0.3 0.7 0.4 0.4 0.3 0.6 0.5 0.7 0.7v0.2l-0.1 0.1q-0.8 1.2-1.6 2.4c-2 3.1-4.1 6.3-4.6 9.9-1 6.7 3.1 12.7 5.6 15.7 2 2.4 3.7 3.5 5.3 3.5 1.6 0.1 3.2-1 5.2-3.3 4.7-5.5 6.8-11.7 5.6-17-0.7-3.1-2.6-6.1-4.5-8.9q-0.8-1.1-1.5-2.3l-0.1-0.1c0-0.3 0.2-0.5 0.9-1 0.2-0.1 0.5-0.3 0.5-0.4l0.2-0.2 0.5 0.1 0.1 0.1q0.7 0.8 1.3 1.6c3.2 4 6.2 7.8 11.3 9.1 5.1 1.3 11.4-0.2 15.4-2.3 2-1 3.1-2.1 3.5-3.3 0.4-1.4-0.1-3.2-1.5-5.6-3.3-5.7-8.3-9.7-13.2-10.7-3.8-0.7-7.5 0.4-11.1 1.3q-1.4 0.4-2.8 0.8l-0.4 0.1-0.8-2.4 0.4-0.1q1-0.4 2.1-0.8c1.8-0.7 3.7-1.4 5.5-2.2 6.8-3.4 9.9-9.8 9.3-19.1-0.2-3.3-1-5.3-2.3-6.3-1.4-0.9-3.5-1-6.7-0.1-4.4 1.2-10.2 3.7-13.2 8.9-1.9 3.4-2.1 7.3-2.3 11.2q0 1.4-0.1 2.8l-0.1 0.1v0.1c-0.2 0.2-0.5 0.2-1.2 0.2-0.2 0-0.6 0-0.7 0l-0.5 0.3v-0.6c-0.2-1.2-0.2-2.3-0.3-3.4 0-1.9-0.1-3.9-0.5-5.7-1.6-8.7-9.2-12.4-15.2-13.9-3.1-0.8-5.1-0.7-6.4 0.2-1.2 0.8-1.9 2.4-2.2 5-0.7 5.7 0.5 11.4 3 15.1 2.8 4.1 7.1 5.7 11.7 7.4q1 0.4 2 0.8c0.3 0.1 0.3 0.3 0.4 0.4 0 0.2 0 0.4-0.3 1.2-0.1 0.3-0.2 0.5-0.2 0.6l-0.1 0.4-0.4-0.1q-1.5-0.4-2.9-0.8c-3.7-1-7.5-2-11.4-1.2-5.7 1.2-9.7 5.7-12.1 9.3-2.1 3-2.8 5.1-2.3 6.8 0.4 1.4 1.7 2.6 4 3.7 4.3 2 10.8 3.3 15.6 1.8 4.7-1.5 7.5-5 10.5-8.8q0.7-0.9 1.4-1.7l0.1-0.2z"></path><path fill-rule="evenodd" class="a" d="m16.3 127.8c-3 0-5.9-0.7-8.1-1.6-2.1-0.8-4.9-2.1-5.4-4.4-0.4-1.7 0.7-4.2 3-7.3 4.2-5.6 9.1-8 14.7-7.4 2.1 0.2 4.1 0.8 6.1 1.4 1.1 0.3 2.2 0.6 3.2 0.8l0.3 0.1 0.1 0.3q0 0.4 0 0.9 0 0.3 0 0.6c0.2 1.8 0.9 3.6 2.1 5l0.2 0.3-0.2 0.3q-1 1.1-2 2.4c-2.4 3.1-4.9 6.2-8.4 7.6-1.9 0.7-3.8 1-5.6 1zm2.5-19.9c-4.6 0-8.7 2.3-12.3 7.1-2.8 3.6-3.1 5.6-2.9 6.6 0.4 1.9 3 3.1 4.9 3.8 3.4 1.3 8.4 2.4 13.1 0.6 3.3-1.3 5.7-4.4 8-7.3q0.9-1.2 1.8-2.2c-1.1-1.6-1.8-3.4-2-5.2q0-0.4 0-0.7 0-0.3-0.1-0.5c-0.9-0.2-1.9-0.5-2.9-0.8-2-0.5-4-1.1-6-1.4q-0.8 0-1.6 0z"></path><path fill-rule="evenodd" class="a" d="m39.6 148.8q-0.6 0-1.3-0.2c-3.5-1.3-7.3-8-8.3-11.2-0.5-1.9-0.7-3.8-0.5-5.7 0.4-3.6 2.4-6.6 4.3-9.5 0.6-1 1.3-1.9 1.8-2.8l0.1-0.2 0.5-0.1h0.1c1.8 0.7 3.8 0.8 5.7 0.3q0.1 0 0.3-0.1c0.6-0.2 0.9-0.3 1.2-0.1h0.1v0.1c0.6 0.9 1.2 1.8 1.8 2.7 1.9 2.9 4 6 4.4 9.6 0.6 4.9-1.7 9.3-3.8 12.2-1.1 1.6-3.6 5-6.4 5zm-8.8-11.6c1 3.4 4.8 9.4 7.8 10.6 2.5 0.9 4.9-1.9 6.7-4.5 2-2.7 4.2-7 3.7-11.6-0.5-3.4-2.4-6.4-4.4-9.2-0.5-0.8-1-1.7-1.6-2.5-0.1 0-0.3 0.1-0.4 0.1q-0.3 0.1-0.4 0.2c-2 0.5-4.1 0.4-6-0.3-0.5 0.9-1.1 1.8-1.7 2.6-1.9 2.9-3.8 5.8-4.2 9.2-0.2 1.7 0 3.6 0.5 5.4z"></path><path fill-rule="evenodd" class="a" d="m31.2 105.4l-0.1-0.1q-1.4-0.5-2.7-1c-4.1-1.5-8.3-3.1-10.9-7-2.1-3.3-3.1-8-2.7-12.9 0.3-2.7 0.9-4.3 2.1-5.2 1.1-0.8 2.7-1 5.1-0.6 4.5 0.9 10.8 3.7 13.4 8.8 1.6 3.1 1.8 6.5 1.9 9.8 0.1 1.2 0.1 2.4 0.2 3.5l0.1 0.4h-0.4c-1.9 0.5-3.6 1.6-5 3.3q-0.1 0.1-0.1 0.2c-0.3 0.4-0.5 0.7-0.9 0.8zm-11.3-26.2q-1.6 0-2.4 0.7c-1 0.7-1.5 2.1-1.7 4.5-0.4 4.8 0.5 9.3 2.5 12.4 2.4 3.7 6.3 5.2 10.5 6.7q1.2 0.5 2.5 0.9c0 0 0.1-0.2 0.1-0.2q0.1-0.2 0.2-0.3 2.2-2.6 5.2-3.5c-0.1-1-0.2-2.1-0.2-3.1-0.2-3.3-0.3-6.6-1.8-9.5-2.6-4.9-8.5-7.5-12.9-8.4q-1.1-0.2-2-0.2z"></path><path fill-rule="evenodd" class="a" d="m62.9 127.7q-1.7 0-3.3-0.3c-5-1.1-7.9-4.8-10.7-8.3q-0.9-1.1-1.9-2.2v-0.1c0-0.1-0.1-0.3-0.1-0.5 0-0.1 0.1-0.2 0.4-0.6 0.2-0.2 0.4-0.4 0.4-0.5 1-1.6 1.5-3.6 1.4-5.5v-0.4l0.3-0.1q1.5-0.3 3-0.8c4-1.1 8.1-2.2 12.4-0.8 4.5 1.5 8.2 5.7 10.2 9.2 1.3 2.2 1.7 3.8 1.3 5.2-0.3 1.2-1.3 2.2-3.1 3.2-2.7 1.4-6.6 2.5-10.3 2.5zm-15.1-11.2c0.6 0.6 1.2 1.3 1.7 2 2.9 3.6 5.6 7 10.3 8.1 3.7 0.8 9.1-0.1 13-2.2 1.5-0.8 2.4-1.7 2.7-2.7 0.3-1.1 0-2.5-1.2-4.5-1.9-3.3-5.5-7.4-9.8-8.8-4-1.3-7.9-0.3-11.9 0.9q-1.3 0.3-2.6 0.7c0 2-0.5 4-1.5 5.6-0.1 0.1-0.3 0.4-0.5 0.6q-0.1 0.2-0.2 0.3z"></path><path fill-rule="evenodd" class="a" d="m47.7 105.4l-0.2-0.3c-0.8-1.3-2.2-2.6-3.7-3.3-0.2-0.1-0.5-0.2-0.8-0.3-0.5-0.2-0.8-0.3-1-0.4-0.1-0.1-0.3-0.2-0.3-0.4v-0.1q0.1-1.4 0.1-2.8c0.2-4.7 0.4-9.4 3.9-13.3 2.6-2.8 7.6-5.3 12-6 2.1-0.4 3.7-0.1 4.8 0.9 1.8 1.5 2 4.6 1.9 7.3 0 8.4-3.1 13.3-10.4 16.3-1.3 0.6-2.7 1.1-4 1.6q-1 0.3-2 0.7zm-5.1-5c0.2 0.1 0.5 0.2 0.7 0.2 0.4 0.1 0.7 0.3 0.9 0.4 1.6 0.7 3 2 3.9 3.3q0.8-0.3 1.6-0.5c1.3-0.5 2.7-1 4-1.6 7-2.9 9.9-7.4 9.9-15.5 0-3.2-0.2-5.5-1.6-6.7-0.9-0.8-2.3-1-4.1-0.7-4.3 0.7-9 3.1-11.5 5.8-3.3 3.6-3.5 8-3.7 12.7q0 1.3-0.1 2.6z"></path><path fill-rule="evenodd" class="a" d="m39.7 119.2q-1.1 0-2.2-0.3c-3.3-0.9-5.8-3.5-6.6-7-0.6-2.7 0.3-5.6 2.4-7.7 2.1-2.2 5.1-3.2 8.1-2.6 3.1 0.6 5.6 2.8 6.7 5.9 1 3.1 0.3 6.3-1.8 8.7-1.8 1.9-4.1 3-6.6 3zm0-17c-2.2 0-4.2 0.9-5.8 2.6-1.9 1.9-2.7 4.5-2.1 7 0.6 3.1 2.9 5.5 5.9 6.3 2.9 0.7 5.9-0.2 7.9-2.5 2-2.1 2.6-5 1.7-7.8-1-2.8-3.2-4.8-6.1-5.4q-0.8-0.2-1.5-0.2z"></path><g clip-path="url(#cp2)"></g><path fill-rule="evenodd" class="a" d="m39.8 117.6h-0.3l-0.1-0.1q0-0.2 0-0.5-0.1 0-0.1 0l-0.1 0.6c-0.1 0-0.3 0-0.3 0h-0.1v-0.1-0.5q0 0 0 0l-0.2 0.5c-0.1 0.1-0.3 0-0.3 0q-0.1 0-0.1-0.1 0-0.3 0-0.5 0 0 0 0l-0.3 0.5c-0.1 0-0.2 0-0.3 0q0 0 0-0.1v-0.6q0 0 0 0-0.1 0.3-0.3 0.5h-0.1q0 0 0 0c0 0-0.2 0-0.2-0.1l0.1-0.6q0 0 0 0-0.2 0.2-0.4 0.5c0 0-0.1 0-0.2 0q-0.1-0.1-0.1-0.2l0.1-0.5q0 0 0 0l-0.4 0.4c-0.1 0-0.2-0.1-0.2-0.1h-0.1v-0.1l0.2-0.5-0.4 0.4c-0.1 0-0.2-0.1-0.3-0.1 0-0.1 0-0.2 0-0.2q0.1-0.2 0.2-0.5 0 0 0 0l-0.4 0.4h-0.1c0 0-0.2-0.1-0.2-0.2v-0.1l0.3-0.4-0.5 0.3c0 0 0 0-0.1-0.1-0.1 0-0.2-0.1-0.1-0.2q0.1-0.2 0.3-0.5 0 0 0 0l-0.5 0.3q-0.1 0-0.2-0.1c0 0-0.1-0.1-0.1-0.2l0.4-0.4-0.6 0.2c-0.1 0-0.2-0.2-0.2-0.2v-0.1h0.1l0.4-0.4-0.6 0.2-0.1-0.1c0 0-0.1-0.1-0.1-0.2l0.1-0.1 0.4-0.3-0.6 0.1h-0.1c0 0-0.1-0.2-0.1-0.2v-0.1h0.1q0.2-0.2 0.4-0.3l-0.6 0.1v-0.1c-0.1 0-0.1-0.2-0.1-0.3l0.5-0.3q0 0 0 0h-0.6c-0.1 0-0.1-0.2-0.1-0.3q0 0 0.1 0l0.5-0.3q-0.3 0-0.6 0c-0.1 0-0.1-0.2-0.1-0.3l0.1-0.1 0.5-0.1q-0.3-0.1-0.6-0.1l-0.1-0.1c0 0 0-0.2 0-0.2l0.1-0.1 0.5-0.1-0.6-0.1v-0.1-0.3l0.6-0.1q0 0 0 0l-0.6-0.2v-0.1q0 0 0-0.1 0 0 0 0v-0.1h0.1l0.6-0.1q0 0 0 0l-0.6-0.2c0-0.1 0-0.2 0-0.2q0 0 0-0.1v-0.1h0.1 0.6l-0.6-0.3 0.1-0.3 0.6 0.1v-0.1l-0.5-0.3v-0.1q0 0 0 0 0-0.1 0.1-0.1v-0.1h0.1l0.5 0.1q0 0 0.1 0l-0.6-0.4 0.2-0.3 0.6 0.2q0 0 0 0l-0.5-0.4c0-0.1 0.1-0.2 0.1-0.2q0 0 0 0v-0.2l0.1 0.1 0.6 0.2q0 0 0 0c-0.1-0.1-0.2-0.2-0.2-0.3q-0.2-0.1-0.2-0.1c-0.1-0.1 0-0.2 0-0.3q0 0 0.1 0v-0.1l0.1 0.1c0 0 0.1 0 0.3 0.1 0 0 0.2 0.1 0.2 0.1q0 0 0 0 0-0.1-0.1-0.2c-0.2-0.3-0.3-0.3-0.2-0.4q0 0 0-0.1 0 0 0 0h0.1l0.1-0.1v0.1l0.5 0.2q0 0 0 0l-0.4-0.5 0.1-0.1c0 0 0.1-0.1 0.1-0.1h0.1q0.1 0 0.3 0.2c0 0 0.1 0.1 0.2 0.1q0 0 0 0l-0.3-0.5c0-0.1 0.1-0.1 0.2-0.2h0.1l0.5 0.3q-0.1 0-0.1-0.1c-0.2-0.4-0.2-0.4-0.1-0.5 0 0 0.1-0.1 0.1-0.1h0.1l0.4 0.4h0.1q-0.1-0.1-0.1-0.2-0.1-0.2-0.1-0.3l-0.1-0.1 0.3-0.2 0.4 0.5q0.1 0 0.1 0l-0.2-0.7h0.1q0 0 0 0 0.1 0 0.2 0l0.4 0.5q0 0 0 0 0 0 0 0 0-0.1 0-0.2c-0.1-0.4-0.1-0.5 0-0.5 0 0 0.1-0.1 0.2 0l0.3 0.5q0 0 0 0v-0.7l0.3-0.1 0.3 0.6v-0.7h0.1q0 0 0.1 0 0 0 0.1 0l0.1 0.1 0.2 0.5 0.1-0.6 0.2-0.1 0.1 0.1 0.2 0.5q0 0 0 0l0.1-0.6h0.3l0.1 0.6h0.1l0.1-0.5 0.1-0.1 0.3 0.1v0.6h0.1l0.1-0.5c0.1-0.1 0.2-0.1 0.3-0.1 0 0 0.1 0.1 0.1 0.1v0.6q0 0 0 0l0.3-0.5h0.1 0.2v0.6l0.3-0.4c0.1-0.1 0.1 0 0.2 0q0 0 0 0h0.2l-0.1 0.1-0.1 0.5q0 0 0 0 0 0 0.1 0.1l0.3-0.5c0.1 0 0.2 0.1 0.2 0.1h0.1v0.1l-0.1 0.5q0 0 0 0l0.4-0.5 0.2 0.2h0.1v0.1l-0.2 0.5 0.4-0.4h0.1q0 0 0.1 0c0 0.1 0.1 0.1 0.1 0.1v0.1l-0.2 0.5q0 0 0 0 0 0 0 0l0.4-0.3q0.1 0 0.2 0.1 0 0 0 0h0.1v0.1l-0.3 0.5q0 0 0 0 0 0 0.1 0l0.4-0.3c0.1 0 0.2 0.2 0.2 0.2h0.1l-0.1 0.1-0.3 0.4h0.1l0.5-0.3v0.1c0.2 0.1 0.2 0.2 0.2 0.2l-0.1 0.1-0.3 0.4q0 0 0 0 0 0 0 0l0.6-0.3 0.2 0.3-0.4 0.4q0 0 0 0 0 0.1 0 0.1 0.1-0.1 0.1-0.1c0.4-0.1 0.4-0.1 0.5-0.1 0 0 0.1 0.2 0.1 0.3q-0.1 0-0.2 0.2c-0.1 0-0.2 0.1-0.2 0.1q0 0 0 0.1 0 0 0 0l0.6-0.2 0.1 0.3-0.1 0.1q-0.2 0.1-0.4 0.3 0 0 0 0 0 0 0 0l0.6-0.1 0.1 0.3-0.5 0.3q0 0 0 0.1 0 0 0 0l0.6-0.1 0.1 0.3-0.1 0.1-0.4 0.2q0 0 0 0 0 0 0 0.1h0.6v0.3l-0.5 0.2 0.6 0.1v0.1q0 0 0 0c0 0.1 0 0.2-0.1 0.2l-0.5 0.2 0.6 0.1v0.1q0 0 0 0.1 0 0.1 0 0.2h-0.1l-0.5 0.1 0.6 0.2v0.1q0 0 0 0.1v0.1h-0.1l-0.5 0.1q0 0 0.1 0.1c0.4 0.1 0.4 0.1 0.4 0.2q0 0 0 0.1 0 0 0 0v0.1h-0.1q-0.3 0-0.5 0 0 0.1 0 0.1l0.5 0.2-0.1 0.4-0.6-0.1q0 0 0 0.1l0.5 0.2-0.1 0.4-0.1-0.1q-0.1 0-0.3 0-0.1 0-0.2 0 0 0 0 0 0 0 0 0l0.5 0.4-0.2 0.3-0.5-0.2q0 0 0 0.1l0.4 0.3c0 0.1-0.1 0.1-0.1 0.2q0 0 0 0v0.1h-0.1q-0.1 0-0.3-0.1c-0.1 0-0.2-0.1-0.2-0.1q0 0 0 0 0 0 0 0.1 0 0 0.1 0.1 0.1 0.1 0.2 0.2v0.1c0 0.1-0.1 0.2-0.1 0.2h-0.1l-0.5-0.2 0.4 0.5-0.2 0.3-0.5-0.3h-0.1l0.3 0.4c0 0.1-0.1 0.3-0.1 0.3-0.1 0-0.1 0-0.4-0.2q-0.1-0.1-0.2-0.1 0 0 0 0 0 0 0 0l0.3 0.5c0 0.1-0.2 0.2-0.2 0.2-0.1 0-0.1 0-0.4-0.2q-0.1-0.1-0.1-0.1l0.2 0.5-0.1 0.1q0 0 0 0-0.1 0-0.1 0v0.1h-0.1l-0.4-0.4 0.2 0.6-0.3 0.1-0.4-0.4q0 0-0.1 0l0.2 0.7-0.1-0.1q0 0 0 0.1c-0.1 0-0.2 0-0.2 0l-0.1-0.1-0.2-0.4q-0.1 0-0.1 0 0 0 0 0.1l0.1 0.5-0.3 0.2-0.3-0.6q0 0 0 0 0 0.1 0 0.1v0.5l-0.3 0.1-0.3-0.5q0 0 0 0v0.6h-0.1q0 0-0.1 0 0 0-0.1 0h-0.1l-0.2-0.5-0.1 0.6q-0.1 0-0.1 0-0.1 0-0.2 0l-0.1-0.6h-0.1zm-0.6-0.8h0.1q0.1 0 0.2 0l0.1 0.1q0 0.3 0 0.5l0.1-0.6h0.4l0.2 0.5v-0.5h0.4l0.2 0.4v-0.4-0.1h0.1c0 0 0.2 0 0.2 0h0.1l0.2 0.4-0.1-0.5h0.1q0.1 0 0.1-0.1 0.2 0 0.2 0l0.3 0.4-0.1-0.4c0-0.1 0.1-0.1 0.2-0.2q0 0 0 0h0.1 0.1l0.2 0.4-0.1-0.5h0.1c0 0 0.2-0.1 0.2-0.1l0.1-0.1 0.3 0.4-0.2-0.5 0.3-0.2 0.4 0.4-0.2-0.5 0.3-0.2h0.1q0 0 0.2 0.2 0 0 0.1 0.1l-0.2-0.4v-0.1q0 0 0.1-0.1 0 0 0 0h0.1v-0.1h0.1q0 0.1 0.2 0.2 0.1 0.1 0.2 0.1l-0.3-0.4 0.2-0.3h0.1l0.4 0.2-0.3-0.3v-0.1l0.2-0.3 0.5 0.3q-0.1-0.1-0.2-0.2-0.1-0.1-0.2-0.2l0.1-0.1q0 0 0-0.1 0 0 0.1-0.1c0 0 0.1 0 0.4 0.1q0 0 0.1 0l-0.4-0.3c0 0 0-0.1 0.1-0.1 0-0.2 0-0.2 0.1-0.2h0.1l0.4 0.1-0.4-0.3v-0.1q0 0 0-0.1 0-0.1 0.1-0.1l0.1-0.1q0.1 0.1 0.3 0.1 0 0 0.1 0l-0.3-0.2q-0.1 0-0.1-0.1c0 0 0-0.3 0.1-0.3h0.1 0.4l-0.4-0.2c-0.1 0 0-0.1 0-0.2q0-0.1 0-0.1v-0.1h0.1q0.2 0 0.4 0-0.1 0-0.2 0-0.2-0.1-0.2-0.1v-0.1-0.3l0.5-0.1-0.5-0.1v-0.4l0.5-0.1-0.5-0.1v-0.4l0.5-0.1-0.5-0.1v-0.4l0.4-0.1h-0.5v-0.1q0-0.1 0-0.1-0.1-0.2 0-0.2l0.4-0.2h-0.5v-0.1q-0.1 0-0.1-0.1 0-0.1 0-0.2h0.1l0.3-0.2-0.5 0.1v-0.1q0-0.1-0.1-0.1 0-0.1 0-0.1v-0.1-0.1q0.2-0.1 0.4-0.2l-0.5 0.1-0.1-0.1q0 0 0 0-0.1-0.1-0.1-0.2c0 0 0-0.1 0.4-0.3q0 0 0-0.1-0.1 0.1-0.2 0.1c-0.1 0.1-0.2 0.1-0.2 0.1-0.1 0-0.1-0.1-0.2-0.2q0 0 0 0l-0.1-0.1 0.1-0.1 0.2-0.3-0.3 0.2h-0.1q-0.1 0-0.1-0.1-0.1 0-0.1-0.1h-0.1l0.1-0.1 0.3-0.4-0.4 0.3h-0.1v-0.1l-0.2-0.2 0.3-0.4-0.4 0.3c-0.1 0-0.1-0.1-0.2-0.2q0 0-0.1 0v-0.1-0.1l0.2-0.3-0.4 0.3h-0.1v-0.1q0 0 0 0-0.2-0.1-0.2-0.2l0.2-0.4-0.3 0.4-0.4-0.2 0.2-0.5-0.3 0.3h-0.1-0.1q0 0 0 0-0.1 0-0.1-0.1l-0.1-0.1 0.2-0.4-0.3 0.4q-0.1 0-0.3-0.1 0 0 0 0h-0.1v-0.1l0.1-0.5-0.3 0.5-0.3-0.1v-0.6l-0.3 0.6v-0.1q-0.1 0-0.1 0c-0.1 0-0.2 0-0.2-0.1v-0.5l-0.2 0.5h-0.4v-0.6l-0.2 0.6-0.3-0.1-0.1-0.5-0.1 0.5c0 0-0.1 0.1-0.2 0.1-0.1 0-0.2 0-0.2-0.1l-0.1-0.5-0.1 0.6h-0.4l-0.2-0.5v0.6l-0.3 0.1-0.3-0.6 0.1 0.6h-0.1q0 0 0 0c-0.2 0.1-0.2 0.1-0.3 0.1l-0.3-0.5q0.1 0.1 0.1 0.2 0 0.3 0 0.3v0.1h-0.1q0 0 0 0.1c-0.1 0-0.2 0-0.2 0l-0.1-0.1-0.2-0.3 0.1 0.5-0.1 0.1c0 0-0.1 0-0.1 0l-0.1 0.1-0.1-0.1-0.3-0.4q0.1 0.1 0.1 0.2 0 0.2 0.1 0.3v0.1l-0.3 0.2-0.1-0.1-0.3-0.3q0.1 0.1 0.1 0.2 0.1 0.2 0.1 0.2v0.1l-0.2 0.2-0.5-0.3 0.3 0.4v0.1h-0.1q0 0.1 0 0.1-0.1 0-0.1 0.1c-0.1 0-0.1 0-0.5-0.3q0 0 0 0l0.3 0.4-0.1 0.1c-0.1 0.2-0.2 0.2-0.2 0.2l-0.5-0.3q0.1 0.1 0.2 0.2c0.1 0.1 0.1 0.2 0.2 0.2v0.1c0 0-0.1 0.2-0.2 0.2 0 0-0.1 0-0.4-0.1q-0.1-0.1-0.1-0.1 0 0 0 0.1c0.3 0.3 0.4 0.3 0.3 0.4 0 0-0.1 0.1-0.1 0.2h-0.1l-0.5-0.2 0.4 0.4c0.1 0.1-0.1 0.3-0.1 0.3h-0.1l-0.4-0.1 0.4 0.3v0.1q0 0 0 0c-0.1 0.2-0.1 0.2-0.2 0.2h-0.5l0.5 0.2-0.1 0.4-0.6-0.1 0.5 0.3v0.3h-0.6l0.5 0.2v0.2c0 0.1 0 0.2 0 0.2h-0.1l-0.5 0.1 0.6 0.1v0.1q0 0.1 0 0.2l-0.1 0.1-0.6 0.1 0.6 0.1c0 0.1 0.1 0.3 0 0.3l-0.6 0.2q0.3 0 0.6 0.1h0.1q0 0.1 0 0.2v0.1l-0.6 0.2q0.3 0 0.6 0c0.1 0.1 0.1 0.3 0.1 0.3v0.1l-0.5 0.2h0.6q0 0.1 0.1 0.2v0.1l-0.6 0.3 0.7-0.1 0.1 0.3-0.1 0.1q-0.2 0.1-0.4 0.3l0.5-0.1h0.1c0 0 0 0 0.1 0.2l-0.4 0.5q0 0 0 0l0.5-0.2c0.1 0 0.1 0 0.2 0.2l-0.4 0.5 0.6-0.3 0.2 0.3-0.4 0.5 0.5-0.3h0.1q0 0.1 0.1 0.2h0.1l-0.1 0.1q-0.2 0.2-0.3 0.4l0.5-0.3h0.1q0 0.1 0.1 0.2h0.1l-0.3 0.5 0.4-0.3h0.1q0.1 0.1 0.1 0.1l0.1 0.1v0.1q-0.1 0.2-0.3 0.4l0.5-0.4 0.1 0.1q0 0 0.1 0l0.1 0.1-0.2 0.6 0.4-0.5q0.1 0.1 0.2 0.1l0.1 0.1-0.2 0.6q0.2-0.3 0.3-0.5h0.1 0.1q0.1 0 0.1 0.1h0.1l-0.1 0.6q0.1-0.2 0.3-0.5h0.1q0.1 0 0.2 0.1v0.6l0.2-0.5q0.1-0.1 0.2 0c0.1 0 0.2 0 0.2 0.1q0 0.3 0 0.5l0.2-0.5c0.1-0.1 0.3 0 0.4 0v0.1 0.5z"></path><path fill-rule="evenodd" class="a" d="m39.7 116.5q-0.3 0-0.5 0c-2.9-0.2-5.3-2.5-5.7-5.4-0.2-1.8 0.3-3.5 1.4-4.9 1.2-1.3 2.8-2.1 4.6-2.1 3.3-0.2 6.1 2.4 6.4 5.7 0.1 1.8-0.6 3.6-1.8 4.9-1.2 1.1-2.8 1.8-4.4 1.8zm-0.2-11.8c-1.6 0.1-3.1 0.8-4.1 2-1 1.2-1.5 2.7-1.3 4.3 0.4 2.6 2.5 4.6 5.1 4.8 1.7 0.2 3.3-0.4 4.4-1.6 1.2-1.1 1.8-2.7 1.6-4.4-0.2-2.9-2.7-5.2-5.7-5.1z"></path><path fill-rule="evenodd" class="a" d="m39.7 111.7c-0.8 0-1.4-0.7-1.4-1.4 0-0.8 0.6-1.4 1.4-1.4 0.7 0 1.3 0.6 1.3 1.4 0 0.7-0.6 1.4-1.3 1.4zm0-2.5c-0.6 0-1.1 0.5-1.1 1.1 0 0.5 0.5 1 1.1 1 0.5 0 1-0.5 1-1 0-0.6-0.5-1.1-1-1.1z"></path><path class="a" d="m38.8 104.6q0.1 0.1 0.1 0.1 0.1 0.1 0.1 0.2 0.3 2 0.5 4.1h0.4q1.2-1.9 2.5-3.8-0.1-0.1-0.1-0.1-0.3 0.5-0.6 1-0.7 1-1.4 2-0.2-1.5-0.4-3.1 0 0 0.1-0.1 0-0.1 0-0.2 0.1 0 0.1 0 0.1-0.1 0.2-0.1 0 0 0-0.1-0.3 0-0.8 0-0.4 0-0.7 0.1z"></path><path class="a" d="m35.1 113.8h0.1q0-0.1 0-0.2 0-0.1 0.1-0.1 1.6-1.2 3.3-2.5l-0.2-0.3q-2.3-0.1-4.6-0.3 0 0.1 0 0.2 0.6 0 1.2 0 1.2 0.1 2.4 0.2-1.2 0.9-2.5 1.8 0 0.1-0.1 0.1-0.1 0-0.1 0-0.1 0-0.2-0.1-0.1 0-0.1-0.1 0 0.1-0.1 0.1 0.2 0.3 0.4 0.7 0.2 0.3 0.4 0.5z"></path><path class="a" d="m45 112.5l-0.1-0.1q0 0.1-0.1 0.1-0.1 0-0.2 0-1.9-0.8-3.8-1.6l-0.2 0.2q1.1 2.1 2.1 4.1 0.1 0 0.2 0-0.3-0.5-0.6-1-0.6-1.2-1.1-2.2 1.4 0.6 2.9 1.2 0 0 0.1 0.1 0.1 0.1 0.1 0.1 0 0 0 0.2 0 0.1-0.1 0.1 0.1 0 0.1 0.1 0.2-0.3 0.4-0.7 0.2-0.4 0.3-0.6z"></path><path fill-rule="evenodd" class="a" d="m64.3 42.2h-0.3-0.1v-0.1q0-0.3-0.1-0.5 0 0 0 0l-0.1 0.5h-0.1c0 0.1-0.2 0.1-0.2 0h-0.1v-0.6q-0.1 0-0.1 0l-0.2 0.5c0 0.1-0.2 0.1-0.2 0.1q-0.1-0.1-0.1-0.1 0-0.3 0-0.6 0 0 0 0l-0.3 0.5v0.1c-0.1 0-0.2-0.1-0.3-0.1q0 0 0 0v-0.1-0.5q0 0 0 0-0.1 0.2-0.3 0.4v0.1h-0.1c0 0-0.2-0.1-0.2-0.1v-0.1-0.5q0 0 0 0-0.1 0.2-0.3 0.4c0 0-0.1 0-0.2 0q-0.1-0.1-0.1-0.1l0.1-0.6q0 0 0 0l-0.4 0.4c-0.1 0.1-0.2 0-0.2-0.1h-0.1v-0.1l0.2-0.5-0.4 0.4c-0.1 0-0.2-0.1-0.3-0.1 0-0.1 0-0.1 0-0.1q0.1-0.3 0.2-0.5 0 0 0 0l-0.4 0.3h-0.1c-0.1 0-0.2-0.1-0.2-0.1v-0.1l0.3-0.5-0.5 0.3c0 0 0 0-0.1 0-0.1-0.1-0.2-0.2-0.2-0.3q0.2-0.2 0.4-0.4 0 0 0 0l-0.5 0.2q-0.1 0.1-0.2 0c0 0-0.1-0.1-0.1-0.2l0.4-0.5-0.6 0.3v-0.1c-0.1 0-0.2-0.1-0.2-0.2l0.1-0.1 0.3-0.4-0.5 0.2h-0.1c0 0-0.1-0.2-0.1-0.2v-0.1l0.4-0.4-0.5 0.2-0.1-0.1c0 0-0.1-0.1-0.1-0.2l0.1-0.1q0.2-0.1 0.4-0.3l-0.6 0.1c-0.1-0.1-0.1-0.3-0.1-0.3v-0.1l0.5-0.3q0 0 0 0l-0.6 0.1c-0.1-0.1-0.1-0.3-0.1-0.3q0-0.1 0.1-0.1l0.5-0.2q-0.3 0-0.6 0l-0.1-0.1c0 0 0-0.2 0-0.2v-0.1l0.6-0.2q-0.3 0-0.6-0.1h-0.1c0-0.1 0-0.2 0-0.3h0.1l0.5-0.2-0.6-0.1v-0.1-0.3l0.6-0.1q0 0 0 0l-0.6-0.2v-0.1q0 0 0 0 0-0.1 0-0.1v-0.1h0.1l0.6-0.1q0 0 0 0l-0.6-0.2c0 0 0-0.1 0-0.2q0 0 0 0v-0.1h0.1 0.6v-0.1l-0.6-0.2 0.1-0.4 0.6 0.1-0.6-0.4 0.1-0.1q0 0 0 0 0 0 0.1-0.1h0.1 0.5q0 0 0 0l-0.5-0.4 0.1-0.2 0.7 0.1q0 0 0 0l-0.5-0.4c0-0.1 0-0.1 0.1-0.2q0 0 0 0v-0.1h0.1l0.6 0.2q0 0 0 0c-0.1-0.1-0.2-0.2-0.2-0.2q-0.2-0.2-0.2-0.2c-0.1-0.1 0-0.2 0-0.2q0 0 0 0l0.1-0.1h0.1c0 0 0.1 0 0.2 0.1 0.1 0 0.2 0.1 0.3 0.1q0 0 0 0 0-0.1-0.1-0.1c-0.3-0.3-0.3-0.4-0.3-0.4q0.1-0.1 0.1-0.1 0 0 0-0.1h0.1 0.1l0.5 0.3q0 0 0 0l-0.4-0.6h0.1c0-0.1 0.1-0.1 0.1-0.1v-0.1h0.1q0.1 0.1 0.2 0.2c0.1 0 0.2 0.1 0.3 0.2q0 0 0-0.1l-0.3-0.5q0-0.1 0.2-0.2h0.1l0.4 0.4h0.1q-0.1-0.1-0.1-0.2c-0.2-0.3-0.2-0.4-0.2-0.4 0.1-0.1 0.2-0.2 0.2-0.2h0.1v0.1l0.4 0.3q0-0.1 0-0.2-0.1-0.1-0.1-0.3l-0.1-0.1 0.3-0.1 0.4 0.5q0-0.1 0.1-0.1l-0.2-0.7 0.1 0.1q0 0 0-0.1 0.1 0 0.2 0l0.4 0.5q0 0 0 0 0 0 0 0 0-0.1 0-0.2c-0.1-0.4-0.1-0.4-0.1-0.5 0 0 0.2-0.1 0.3 0l0.3 0.5q0 0 0 0v-0.6l0.3-0.1 0.3 0.5v-0.6h0.1q0 0 0.1 0 0 0 0 0 0.1 0 0.1 0h0.1l0.1 0.5h0.1v-0.6h0.3 0.1v0.1l0.1 0.5q0.1 0 0.1 0l0.1-0.6h0.3l0.1 0.6h0.1l0.1-0.6h0.1 0.3v0.6l0.2-0.5c0.1 0 0.2 0 0.2 0 0.1 0 0.2 0 0.2 0.1v0.5q0 0 0 0l0.3-0.5h0.1l0.2 0.1v0.6l0.3-0.5c0 0 0.1 0 0.2 0q0 0 0 0h0.1v0.1l-0.1 0.6q0 0 0 0 0 0 0.1 0l0.3-0.5c0.1 0 0.2 0.1 0.2 0.1h0.1v0.1l-0.1 0.5q0 0 0 0l0.4-0.4 0.2 0.1v0.1l-0.1 0.5 0.4-0.4 0.1 0.1q0 0 0 0c0.1 0 0.1 0 0.2 0.1v0.1l-0.3 0.4q0.1 0 0.1 0.1 0 0 0 0l0.4-0.4c0.1 0 0.1 0.1 0.2 0.1q0 0 0 0l0.1 0.1v0.1l-0.3 0.4q0 0 0 0 0 0 0 0.1l0.5-0.4c0.1 0 0.2 0.2 0.2 0.2v0.1l-0.3 0.4 0.1 0.1 0.5-0.3c0.2 0.2 0.2 0.2 0.1 0.3l-0.3 0.4q0 0 0 0 0 0 0 0l0.6-0.2 0.2 0.2-0.4 0.5q0 0 0 0 0 0 0 0 0 0 0.1-0.1c0.4-0.1 0.4-0.1 0.5 0 0 0 0.1 0.1 0.1 0.2q-0.1 0.1-0.2 0.2c-0.1 0-0.2 0.1-0.3 0.2q0 0 0.1 0 0 0 0 0l0.5-0.1 0.2 0.3h-0.1q-0.2 0.2-0.4 0.3 0 0 0 0 0 0 0 0.1l0.6-0.1 0.1 0.3-0.5 0.3q0 0 0 0 0 0 0 0h0.6l0.1 0.3h-0.1l-0.4 0.2q0 0.1 0 0.1 0 0 0 0h0.6v0.3l-0.5 0.2v0.1h0.6v0.2q0 0 0 0c0 0 0 0.1-0.1 0.2l-0.5 0.1v0.1l0.6 0.1v0.1q0 0 0 0 0 0.1-0.1 0.2l-0.5 0.1v0.1l0.6 0.1v0.1q0 0.1 0 0.1v0.1h-0.1l-0.5 0.1q0 0.1 0.1 0.1c0.3 0.1 0.4 0.1 0.4 0.2q0 0 0 0.1 0 0 0 0.1v0.1h-0.1q-0.3 0-0.5 0 0 0 0 0l0.5 0.3-0.1 0.3-0.6-0.1q0 0.1 0 0.1l0.5 0.3-0.1 0.3h-0.1q-0.1 0-0.3-0.1-0.1 0-0.2 0 0 0 0 0 0 0 0 0.1l0.5 0.3-0.2 0.3-0.5-0.2q0 0.1-0.1 0.1l0.4 0.3c0.1 0.1 0 0.2 0 0.2q0 0 0 0.1v0.1l-0.1-0.1q-0.1 0-0.3-0.1c-0.1 0-0.2 0-0.2 0q0 0 0 0 0 0-0.1 0 0.1 0.1 0.1 0.1 0.2 0.1 0.3 0.3v0.1c0 0-0.1 0.1-0.1 0.1v0.1h-0.1l-0.5-0.3v0.1l0.4 0.4-0.2 0.3-0.6-0.3 0.3 0.5c0 0.1-0.1 0.2-0.1 0.2-0.1 0-0.2 0-0.4-0.2q-0.1 0-0.2-0.1 0 0 0 0 0 0 0 0l0.3 0.5c0 0.1-0.2 0.2-0.2 0.2-0.1 0.1-0.1 0-0.4-0.2q-0.1-0.1-0.1-0.1h-0.1l0.3 0.5-0.1 0.1q0 0-0.1 0.1 0 0 0 0l-0.1 0.1v-0.1l-0.4-0.4-0.1 0.1 0.3 0.5-0.3 0.2-0.4-0.5q0 0-0.1 0l0.2 0.7h-0.1q0 0-0.1 0c0 0-0.1 0.1-0.1 0h-0.1l-0.3-0.4q0 0 0 0 0 0 0 0l0.1 0.6-0.3 0.1-0.3-0.5q0 0 0 0-0.1 0-0.1 0l0.1 0.6-0.3 0.1-0.3-0.6q0 0 0 0v0.7h-0.1q-0.1 0-0.1 0 0 0-0.1 0h-0.1v-0.1l-0.2-0.5-0.1 0.6-0.1 0.1q-0.1 0-0.2-0.1l-0.2-0.5zm-0.6-0.8h0.1q0 0 0.1 0h0.1v0.1q0.1 0.2 0.1 0.4l0.1-0.5h0.4l0.2 0.5v-0.6h0.4l0.2 0.5v-0.5q0 0 0.1-0.1c0 0 0.1 0 0.2 0l0.1 0.1 0.2 0.4-0.1-0.6h0.1q0 0 0.1 0c0.1-0.1 0.1-0.1 0.2 0l0.3 0.4-0.1-0.5c0-0.1 0-0.1 0.2-0.1q0 0 0 0l0.1-0.1 0.1 0.1 0.2 0.3-0.1-0.4 0.1-0.1c0 0 0.1-0.1 0.2-0.1l0.4 0.4-0.2-0.5 0.3-0.2 0.4 0.3-0.2-0.4 0.3-0.3v0.1q0.1 0 0.2 0.1 0.1 0.1 0.2 0.2l-0.2-0.5q0-0.1 0.1-0.1 0-0.1 0-0.1h0.1 0.1q0 0 0.2 0.1 0.1 0.1 0.1 0.1l-0.2-0.4 0.2-0.2v-0.1l0.1 0.1 0.4 0.2-0.3-0.4v-0.1l0.2-0.2 0.4 0.2q0-0.1-0.1-0.1-0.1-0.1-0.2-0.2v-0.1-0.1q0.1 0 0.1 0 0-0.1 0.1-0.2c0 0 0.1 0 0.4 0.1q0 0.1 0.1 0.1l-0.4-0.3c0-0.1 0-0.1 0-0.2h0.2-0.1c0-0.1 0-0.1 0-0.2h0.1l0.4 0.1-0.3-0.2v-0.1-0.1q0 0 0 0 0-0.1 0.1-0.2h0.1q0.1 0 0.3 0 0 0 0.1 0.1l-0.4-0.3v-0.1c0 0 0-0.2 0.1-0.3l0.5 0.1-0.4-0.2v-0.1c-0.1 0-0.1-0.1 0-0.2q0 0 0 0v-0.1h0.1q0.2 0 0.4 0-0.1-0.1-0.2-0.1-0.2-0.1-0.2-0.1h-0.1l0.1-0.4 0.5-0.1-0.5-0.1v-0.4l0.5-0.1-0.5-0.1v-0.4l0.5-0.1h-0.5l-0.1-0.4 0.5-0.2h-0.5v-0.1q0 0 0-0.1c-0.1-0.1-0.1-0.1 0-0.2l0.4-0.2h-0.6v-0.1q0 0 0 0 0-0.2 0-0.2v-0.1l0.4-0.2-0.5 0.1v-0.1q-0.1 0-0.1-0.1 0 0 0-0.1v-0.1q0.2-0.1 0.4-0.3l-0.6 0.2v-0.1q0-0.1 0-0.1-0.1-0.1-0.1-0.1c0-0.1 0-0.1 0.3-0.4q0.1 0 0.1 0-0.1 0-0.2 0c-0.1 0.1-0.2 0.1-0.2 0.1-0.1 0-0.2 0-0.2-0.1q0-0.1-0.1-0.1v-0.1l0.3-0.3-0.4 0.2q-0.1-0.1-0.1-0.2-0.1 0-0.1 0l-0.1-0.1 0.1-0.1 0.3-0.3-0.4 0.2h-0.1l-0.2-0.2 0.3-0.5-0.4 0.3q-0.1 0-0.2-0.1-0.1 0-0.1-0.1v-0.1l0.2-0.4-0.4 0.3h-0.1q0 0-0.1-0.1-0.1 0-0.1-0.1v-0.1l0.2-0.4-0.4 0.4-0.3-0.2 0.2-0.5-0.3 0.4h-0.1l-0.1-0.1q0 0 0 0-0.1 0-0.1-0.1h-0.1v-0.1l0.1-0.4-0.2 0.4q-0.1 0-0.3 0 0-0.1 0-0.1h-0.1v-0.1l0.1-0.4-0.3 0.4-0.4-0.1 0.1-0.5-0.3 0.5h-0.1q0-0.1 0-0.1c-0.1 0-0.2 0-0.2-0.1v-0.5l-0.2 0.6-0.4-0.1v-0.5l-0.2 0.5h-0.3l-0.1-0.5-0.1 0.4q-0.1 0.1-0.2 0.1c-0.1 0-0.2 0-0.2-0.1l-0.2-0.4v0.5l-0.4 0.1-0.2-0.5v0.5l-0.3 0.1-0.3-0.5 0.1 0.5-0.2 0.1c-0.1 0-0.1 0-0.2 0l-0.3-0.4q0 0.1 0.1 0.2 0 0.2 0 0.3v0.1h-0.1q0 0 0 0-0.1 0.1-0.2 0h-0.1l-0.2-0.4 0.1 0.5-0.1 0.1c0 0-0.1 0.1-0.2 0.1h-0.1l-0.3-0.4q0 0.1 0.1 0.2 0 0.1 0.1 0.2v0.1l-0.3 0.2-0.1-0.1-0.3-0.3q0 0.1 0.1 0.2 0.1 0.2 0.1 0.3l-0.3 0.3-0.4-0.4 0.3 0.4-0.1 0.1v0.1q0 0 0 0-0.1 0.1-0.1 0.1c-0.1 0-0.1 0-0.5-0.2q0-0.1-0.1-0.1l0.4 0.5h-0.1c-0.1 0.2-0.2 0.2-0.2 0.2h-0.1l-0.4-0.2q0.1 0 0.2 0.1c0.1 0.2 0.1 0.2 0.2 0.3v0.1c-0.1 0-0.2 0.1-0.2 0.1-0.1 0.1-0.1 0.1-0.4-0.1q-0.1 0-0.2-0.1 0.1 0.1 0.1 0.1c0.3 0.3 0.4 0.3 0.3 0.4 0 0.1-0.1 0.2-0.1 0.2v0.1l-0.1-0.1-0.5-0.1 0.4 0.3c0.1 0.1-0.1 0.3-0.1 0.3v0.1l-0.1-0.1-0.5-0.1 0.5 0.4q0 0.1 0 0.1c-0.1 0.1-0.1 0.1-0.2 0.2l-0.5-0.1 0.5 0.3-0.1 0.3h-0.6l0.5 0.2v0.4h-0.6l0.5 0.2v0.1c0 0.1 0 0.2-0.1 0.2l-0.5 0.1 0.5 0.1v0.1q0.1 0.1 0 0.2v0.1l-0.6 0.1 0.6 0.1v0.1c0 0 0.1 0.2 0 0.2v0.1l-0.6 0.1q0.3 0.1 0.6 0.1h0.1v0.1q0 0.1 0 0.2l-0.6 0.3q0.3 0 0.5 0h0.1c0.1 0 0.1 0.2 0.1 0.2v0.1l-0.6 0.3 0.7-0.1v0.1q0 0.1 0 0.2h0.1l-0.6 0.4 0.6-0.1 0.2 0.3h-0.1q-0.2 0.2-0.4 0.3l0.5-0.1h0.1c0 0 0 0 0.1 0.2v0.1l-0.5 0.4q0 0 0 0l0.6-0.2c0.1 0 0.1 0 0.2 0.2v0.1l-0.4 0.4 0.6-0.2 0.2 0.2-0.4 0.5 0.5-0.3 0.1 0.1q0 0 0.1 0.1v0.1q-0.2 0.2-0.3 0.5l0.5-0.4 0.1 0.1q0 0 0.1 0.1v0.1l-0.2 0.5 0.4-0.4h0.1q0.1 0.1 0.1 0.2h0.1v0.1q-0.2 0.2-0.3 0.5l0.5-0.5v0.1q0.1 0 0.2 0.1h0.1l-0.2 0.6 0.4-0.4q0.1 0 0.2 0.1h0.1l-0.2 0.6q0.2-0.2 0.3-0.4l0.1-0.1q0.1 0.1 0.2 0.1l0.1 0.1-0.1 0.5q0.1-0.2 0.3-0.4v-0.1h0.1q0.1 0.1 0.2 0.1v0.6l0.2-0.5c0.1 0 0.1 0 0.2 0q0.1 0 0.2 0.1 0 0.3 0 0.6l0.2-0.5v-0.1c0.1 0 0.3 0 0.3 0.1h0.1v0.5z"></path><path fill-rule="evenodd" class="a" d="m64.1 41q-0.2 0-0.4 0c-3-0.2-5.4-2.5-5.7-5.4-0.2-1.7 0.3-3.5 1.4-4.8 1.1-1.3 2.8-2.1 4.5-2.2 3.4-0.1 6.2 2.4 6.5 5.7 0.1 1.8-0.6 3.6-1.8 4.9-1.2 1.2-2.8 1.8-4.5 1.8zm-0.1-11.8c-1.6 0.1-3.1 0.8-4.1 2-1 1.2-1.5 2.8-1.3 4.3 0.3 2.6 2.5 4.7 5.1 4.9 1.7 0.1 3.2-0.5 4.4-1.6 1.1-1.2 1.7-2.8 1.6-4.4-0.2-3-2.7-5.3-5.7-5.2z"></path><path fill-rule="evenodd" class="a" d="m64.1 36.2c-0.7 0-1.3-0.6-1.3-1.4 0-0.7 0.6-1.4 1.3-1.4 0.8 0 1.4 0.7 1.4 1.4 0 0.8-0.6 1.4-1.4 1.4zm0-2.4c-0.5 0-1 0.4-1 1 0 0.6 0.5 1.1 1 1.1 0.6 0 1.1-0.5 1.1-1.1 0-0.6-0.5-1-1.1-1z"></path><path class="a" d="m63.3 29.1v0.1q0.1 0 0.1 0.1 0.1 0.1 0.1 0.1 0.3 2.1 0.5 4.1h0.4q1.2-1.9 2.5-3.8-0.1 0-0.2-0.1-0.3 0.5-0.6 1-0.6 1.1-1.3 2-0.2-1.5-0.4-3 0-0.1 0-0.2 0.1-0.1 0.1-0.1 0-0.1 0.1-0.1 0.1 0 0.2 0 0-0.1 0-0.1-0.4-0.1-0.8-0.1-0.4 0-0.7 0.1z"></path><path class="a" d="m59.6 38.4l0.1-0.1q0 0 0-0.1 0-0.1 0.1-0.2 1.6-1.2 3.3-2.5l-0.2-0.3q-2.3-0.1-4.6-0.2 0 0.1 0 0.1 0.6 0.1 1.2 0.1 1.2 0 2.4 0.1-1.2 1-2.5 1.9 0 0-0.1 0-0.1 0.1-0.2 0.1 0-0.1-0.1-0.1-0.1-0.1-0.1-0.1 0 0-0.1 0 0.2 0.3 0.4 0.7 0.2 0.3 0.4 0.6z"></path><path class="a" d="m69.5 37h-0.1q0 0-0.1 0-0.1 0-0.2 0-1.9-0.8-3.8-1.6l-0.2 0.3q1.1 2 2.1 4.1 0.1-0.1 0.1-0.1-0.2-0.5-0.5-1-0.6-1.1-1.1-2.2 1.4 0.6 2.8 1.2 0.1 0.1 0.2 0.1 0 0.1 0.1 0.1 0 0.1 0 0.2 0 0.1-0.1 0.1 0.1 0.1 0.1 0.1 0.2-0.3 0.4-0.7 0.2-0.3 0.3-0.6z"></path><path fill-rule="evenodd" class="a" d="m144.1 41.9h-0.3l-0.1-0.1q0-0.3-0.1-0.5 0 0 0 0l-0.1 0.5h-0.1c0 0.1-0.2 0.1-0.2 0h-0.1v-0.1l-0.1-0.5q0 0 0 0l-0.2 0.5c0 0.1-0.2 0.1-0.2 0.1-0.1-0.1-0.1-0.1-0.1-0.2q0-0.2 0-0.5 0 0-0.1 0l-0.2 0.5h-0.1c0 0.1-0.2 0-0.2 0q0 0 0-0.1h-0.1l0.1-0.5q0 0 0 0-0.2 0.2-0.3 0.4l-0.1 0.1c0 0-0.2-0.1-0.2-0.1l-0.1-0.1 0.1-0.5q0 0 0-0.1-0.1 0.3-0.3 0.5-0.1 0-0.2 0c-0.1-0.1-0.1-0.1-0.1-0.1v-0.1l0.1-0.5q0 0 0 0l-0.4 0.4c-0.1 0.1-0.2 0-0.3-0.1v-0.1l0.2-0.5-0.4 0.4c-0.1 0-0.2-0.1-0.3-0.1 0-0.1 0-0.1 0-0.1q0.1-0.3 0.2-0.5 0 0 0 0l-0.5 0.3c-0.1 0-0.2-0.1-0.2-0.1v-0.1l0.3-0.5-0.5 0.3c0 0-0.1 0-0.2 0 0-0.1-0.1-0.2-0.1-0.3q0.2-0.2 0.3-0.4 0 0 0 0l-0.4 0.2q-0.1 0-0.2 0c0-0.1-0.1-0.1-0.1-0.2v-0.1l0.4-0.4-0.6 0.3-0.1-0.1c0 0-0.1-0.1-0.1-0.2l0.1-0.1 0.3-0.4-0.5 0.2h-0.1c0-0.1-0.1-0.2-0.1-0.2v-0.1l0.4-0.4-0.6 0.2v-0.1c0 0-0.1-0.1-0.1-0.2v-0.1q0.3-0.2 0.5-0.3l-0.6 0.1c-0.1-0.1-0.2-0.3-0.1-0.3v-0.1l0.5-0.3q0 0 0 0l-0.6 0.1c-0.1-0.1-0.1-0.3-0.1-0.3q0-0.1 0.1-0.1l0.4-0.2q-0.2 0-0.5 0v-0.1h-0.1c0 0 0-0.2 0-0.2v-0.1l0.5-0.2q-0.2-0.1-0.5-0.1h-0.1c0-0.1 0-0.2 0-0.3l0.1-0.1 0.5-0.1-0.6-0.1v-0.1-0.3l0.6-0.1q0 0 0 0l-0.6-0.2v-0.1q0 0 0 0 0-0.1 0-0.1v-0.1h0.1l0.6-0.1q0 0 0 0l-0.6-0.2c0-0.1 0-0.1 0-0.2q0 0 0 0v-0.2l0.1 0.1 0.6-0.1-0.6-0.2 0.1-0.4 0.6 0.1-0.6-0.4 0.1-0.1q0 0 0 0 0-0.1 0-0.1h0.1l0.1-0.1 0.5 0.1q0 0 0 0l-0.5-0.4 0.1-0.3 0.7 0.2q0 0 0 0l-0.5-0.4c0-0.1 0-0.1 0.1-0.2q0 0 0 0v-0.1h0.1l0.6 0.2q0 0 0 0c-0.1-0.1-0.2-0.2-0.2-0.2q-0.2-0.2-0.2-0.2c-0.1-0.1 0-0.2 0-0.2q0 0 0-0.1l0.1-0.1 0.1 0.1c0 0 0.1 0 0.2 0.1 0.1 0 0.2 0.1 0.3 0.1q0 0 0 0 0-0.1-0.1-0.2c-0.3-0.2-0.3-0.3-0.3-0.4q0.1 0 0.1 0 0-0.1 0-0.1h0.1 0.1l0.5 0.3q0 0 0 0l-0.4-0.6 0.1-0.1c0 0 0.1 0 0.1-0.1h0.1q0 0 0.2 0.2c0.1 0 0.2 0.1 0.3 0.2q0-0.1 0-0.1l-0.3-0.5q0-0.1 0.2-0.2h0.1l0.4 0.4h0.1q-0.1-0.1-0.1-0.2c-0.2-0.4-0.2-0.4-0.2-0.5 0.1 0 0.2-0.1 0.2-0.1h0.1l0.4 0.4q0-0.1 0-0.2-0.1-0.1-0.2-0.3v-0.1l0.3-0.2 0.4 0.5q0 0 0 0l-0.1-0.7h0.1q0 0 0 0 0.1 0 0.2 0l0.3 0.5q0.1 0 0.1 0 0 0 0 0 0-0.1-0.1-0.2c0-0.4 0-0.4 0-0.5 0 0 0.2-0.1 0.3 0l0.3 0.5q0 0 0 0v-0.7h0.3l0.3 0.5v-0.6h0.1q0 0 0 0 0.1-0.1 0.1-0.1h0.1v0.1l0.2 0.5h0.1v-0.6h0.3 0.1v0.1l0.1 0.5q0 0 0.1 0l0.1-0.6 0.3-0.1 0.1 0.7 0.2-0.6h0.1 0.2l0.1 0.6 0.2-0.5c0.1-0.1 0.2-0.1 0.2 0 0.1 0 0.2 0 0.2 0.1v0.5q0 0 0 0l0.3-0.5h0.1 0.2v0.7l0.3-0.5c0-0.1 0.1 0 0.2 0q0 0 0 0h0.1v0.1l-0.1 0.6q0 0 0 0l0.4-0.5c0.1 0 0.2 0.1 0.2 0.1h0.1v0.1l-0.2 0.5q0.1 0 0.1 0l0.4-0.4 0.2 0.1v0.1l-0.1 0.5 0.4-0.4h0.1q0 0.1 0 0.1c0.1 0 0.1 0 0.1 0.1h0.1l-0.1 0.1-0.2 0.4q0 0 0.1 0 0 0 0 0.1l0.4-0.4c0.1 0 0.1 0 0.2 0.1q0 0 0 0l0.1 0.1-0.1 0.1-0.2 0.4q0 0 0 0 0 0 0 0l0.5-0.3c0.1 0 0.2 0.2 0.2 0.2v0.1l-0.3 0.4v0.1l0.5-0.3h0.1q0.2 0.2 0.1 0.2v0.1l-0.3 0.4q0 0 0 0 0 0 0 0l0.6-0.2 0.1 0.2-0.4 0.5q0.1 0 0.1 0 0 0 0.1-0.1c0.4-0.1 0.4-0.1 0.5 0 0 0 0.1 0.1 0 0.2q0 0.1-0.1 0.2c-0.1 0-0.2 0.1-0.3 0.2q0 0 0 0 0.1 0 0.1 0l0.5-0.1 0.2 0.3h-0.1q-0.2 0.2-0.4 0.3 0 0 0 0 0 0 0 0l0.6-0.1 0.1 0.4-0.5 0.3q0 0 0 0 0 0 0 0h0.6l0.1 0.2-0.1 0.1-0.5 0.2q0.1 0 0.1 0.1 0 0 0 0h0.5l0.1 0.3-0.5 0.2v0.1h0.6v0.1q0 0 0 0.1c0 0 0 0.1-0.1 0.2l-0.5 0.1 0.6 0.2v0.1q0 0 0 0c0 0.1 0 0.1-0.1 0.2l-0.5 0.1 0.6 0.2v0.1q0 0.1 0 0.1l-0.1 0.1-0.5 0.1q0 0.1 0.1 0.1c0.3 0.1 0.4 0.1 0.4 0.2q0 0 0 0.1 0 0 0 0v0.2h-0.1q-0.3 0-0.5 0 0 0-0.1 0l0.6 0.3-0.1 0.3-0.6-0.1q0 0.1 0 0.1l0.5 0.3-0.1 0.3h-0.1q-0.2 0-0.3-0.1-0.1 0-0.2 0 0 0 0 0 0 0 0 0l0.5 0.4-0.2 0.3-0.5-0.2q-0.1 0.1-0.1 0.1l0.4 0.3c0.1 0.1 0 0.2 0 0.2q0 0 0 0l-0.1 0.1q-0.1 0-0.3-0.1c-0.1 0-0.2 0-0.2-0.1q0 0-0.1 0.1 0 0 0 0 0.1 0 0.1 0.1 0.2 0.1 0.3 0.2v0.1 0.1c0 0-0.1 0.1-0.1 0.1v0.1l-0.1-0.1-0.5-0.2v0.1l0.4 0.4-0.2 0.3-0.6-0.3 0.3 0.5c0 0.1-0.1 0.2-0.1 0.2-0.1 0-0.2 0-0.4-0.2q-0.1-0.1-0.2-0.1 0 0 0 0 0 0 0 0l0.2 0.5c0.1 0.1-0.1 0.2-0.1 0.2-0.1 0-0.2 0-0.4-0.2q-0.1-0.1-0.1-0.1h-0.1l0.3 0.5-0.1 0.1q0 0-0.1 0 0 0.1 0 0.1l-0.1 0.1-0.4-0.5h-0.1l0.2 0.6-0.3 0.2-0.3-0.5q-0.1 0-0.1 0l0.2 0.7h-0.2q0.1 0 0 0c0 0-0.1 0-0.2 0l-0.3-0.4q0 0 0 0 0 0 0 0l0.1 0.6-0.3 0.1-0.3-0.5q0 0-0.1 0 0 0 0 0l0.1 0.6-0.3 0.1-0.3-0.6q0 0 0 0v0.7l-0.2-0.1q0 0.1 0 0.1 0 0-0.1 0h-0.1v-0.1l-0.2-0.5-0.1 0.6h-0.1q0 0 0 0-0.1 0.1-0.2 0l-0.2-0.5zm-0.6-0.8q0.1 0 0.2 0h0.1q0.1 0.3 0.1 0.5l0.1-0.5 0.4-0.1 0.1 0.6 0.1-0.6h0.4l0.2 0.5v-0.5q0-0.1 0-0.1c0.1 0 0.2 0 0.3 0h0.1l0.2 0.4-0.1-0.5h0.1q0 0 0.1 0c0.1-0.1 0.1-0.1 0.2-0.1v0.1l0.2 0.4v-0.5c0-0.1 0-0.1 0.2-0.1q0-0.1 0-0.1h0.1l0.1 0.1 0.2 0.3-0.1-0.5h0.1c0 0 0.1-0.1 0.2-0.1l0.4 0.3-0.2-0.4 0.3-0.3 0.4 0.4-0.2-0.5 0.3-0.2v0.1q0.1 0 0.2 0.1 0.1 0.1 0.2 0.1l-0.3-0.4 0.1-0.1q0 0 0.1 0 0-0.1 0-0.1h0.1 0.1c0 0 0.1 0 0.2 0.1q0.1 0.1 0.1 0.1l-0.3-0.4 0.3-0.2v-0.1l0.1 0.1 0.3 0.2-0.2-0.4v-0.1l0.2-0.2 0.4 0.2q0-0.1-0.1-0.2-0.1 0-0.2-0.1v-0.1-0.1q0 0 0.1 0 0-0.1 0.1-0.2c0 0 0.1 0 0.4 0.1q0 0 0.1 0.1l-0.4-0.3c0-0.1 0-0.2 0-0.2 0.1-0.1 0.1-0.2 0.1-0.2h0.1l0.4 0.1-0.3-0.3h-0.1l0.1-0.1q0 0 0-0.1 0 0 0.1-0.1h0.1q0.1 0 0.2 0 0.1 0 0.2 0l-0.4-0.2q0 0 0-0.1c0 0 0-0.3 0.1-0.3l0.5 0.1-0.4-0.2-0.1-0.1c0 0 0-0.1 0.1-0.2q0 0 0-0.1h0.1q0.2-0.1 0.4-0.1-0.1 0-0.2 0-0.2-0.1-0.2-0.1h-0.1l0.1-0.4 0.5-0.1-0.5-0.1v-0.4l0.5-0.1-0.5-0.1v-0.4l0.5-0.1h-0.5l-0.1-0.4 0.5-0.2h-0.5v-0.1q0 0 0-0.1c-0.1-0.1-0.1-0.1-0.1-0.2h0.1l0.4-0.2h-0.6v-0.1q0 0 0-0.1-0.1-0.1 0-0.2l0.4-0.2-0.5 0.1-0.1-0.1q0 0 0-0.1 0-0.1 0-0.1v-0.1q0.2-0.2 0.3-0.3l-0.5 0.2v-0.1q0-0.1 0-0.1-0.1-0.1-0.1-0.1c0-0.1 0-0.1 0.3-0.4q0.1 0 0.1 0-0.1 0-0.2 0c-0.1 0.1-0.2 0.1-0.3 0.1 0 0-0.1 0-0.1-0.1q-0.1-0.1-0.1-0.1v-0.1l0.3-0.3-0.4 0.1q-0.1 0-0.2-0.1 0 0 0 0l-0.1-0.1 0.1-0.1 0.3-0.3-0.4 0.2h-0.1-0.1l-0.2-0.3 0.3-0.4-0.4 0.3q0 0-0.1-0.1-0.1-0.1-0.1-0.1v-0.1l0.2-0.4-0.4 0.3h-0.1v-0.1q0 0-0.1 0-0.1 0-0.1-0.1v-0.1l0.2-0.4-0.4 0.4-0.3-0.2 0.2-0.5-0.3 0.4h-0.1l-0.1-0.1q0 0 0 0-0.1 0-0.1-0.1h-0.1v-0.1l0.1-0.4-0.2 0.4q-0.1 0-0.3 0 0-0.1 0-0.1h-0.1v-0.1l0.1-0.4-0.3 0.4-0.4-0.1 0.1-0.5-0.3 0.5-0.1-0.1q0 0 0 0c-0.1 0-0.2 0-0.2-0.1v-0.5l-0.2 0.5h-0.4v-0.5l-0.2 0.5h-0.4l-0.1-0.6v0.5q-0.1 0.1-0.2 0.1c-0.1 0-0.2 0-0.2-0.1h-0.1l-0.1-0.4v0.5l-0.4 0.1-0.2-0.6v0.6l-0.3 0.1-0.3-0.5 0.1 0.5-0.1 0.1q0 0-0.1 0c-0.1 0-0.1 0-0.2 0l-0.3-0.5q0 0.2 0.1 0.3 0 0.2 0 0.2v0.2h-0.1q0 0 0 0-0.2 0-0.2 0h-0.1l-0.2-0.4 0.1 0.5-0.1 0.1c0 0-0.1 0.1-0.2 0.1l-0.1-0.1-0.3-0.3q0 0.1 0.1 0.1 0 0.2 0.1 0.3v0.1l-0.3 0.2-0.1-0.1-0.3-0.3q0 0.1 0.1 0.2 0.1 0.2 0.1 0.3l-0.3 0.2-0.4-0.3 0.3 0.4-0.1 0.1v0.1q0 0-0.1 0 0 0.1 0 0.1c-0.1 0-0.2 0-0.5-0.2q0-0.1-0.1-0.1l0.4 0.5h-0.1c-0.1 0.2-0.2 0.2-0.2 0.2h-0.1l-0.4-0.3q0.1 0.1 0.2 0.2c0.1 0.1 0.1 0.2 0.1 0.2l0.1 0.1-0.1 0.1c0 0-0.1 0.1-0.1 0.1-0.1 0.1-0.1 0.1-0.5-0.1q0 0-0.1-0.1 0.1 0.1 0.1 0.1c0.3 0.3 0.3 0.3 0.3 0.4 0 0-0.1 0.2-0.1 0.2h-0.1l-0.5-0.1 0.4 0.3c0 0.1-0.1 0.3-0.1 0.3v0.1l-0.6-0.2 0.5 0.3-0.1 0.2c0 0.1 0 0.1-0.1 0.2l-0.5-0.1 0.5 0.3-0.1 0.3h-0.6l0.5 0.2v0.4h-0.6l0.5 0.2v0.1c0 0.1 0 0.2-0.1 0.2l-0.5 0.1 0.5 0.1v0.1q0 0.1 0 0.2v0.1l-0.6 0.1 0.6 0.1c0 0.1 0 0.3 0 0.3v0.1l-0.6 0.1q0.3 0 0.6 0.1l0.1 0.1q0 0.1 0 0.1v0.1l-0.6 0.2q0.3 0 0.5 0h0.1v0.1c0.1 0 0.1 0.2 0.1 0.2v0.1l-0.6 0.2h0.6l0.1 0.1q0 0.1 0 0.1l0.1 0.1-0.6 0.3 0.6-0.1 0.2 0.4h-0.1q-0.2 0.2-0.4 0.3l0.5-0.1c0.1 0 0.1 0 0.2 0.2v0.1l-0.5 0.4q0 0 0 0l0.6-0.2c0.1 0 0.1 0 0.2 0.2v0.1l-0.4 0.4 0.5-0.3 0.2 0.3-0.4 0.5 0.6-0.3q0.1 0.1 0.2 0.2v0.1q-0.2 0.2-0.3 0.5l0.5-0.4 0.1 0.1q0 0 0.1 0.1l-0.3 0.6 0.5-0.4h0.1q0 0.1 0.1 0.1l0.1 0.1-0.1 0.1q-0.1 0.2-0.2 0.5l0.5-0.5v0.1q0.1 0 0.2 0.1h0.1l-0.2 0.6 0.3-0.5 0.1 0.1q0.1 0 0.2 0l0.1 0.1-0.2 0.6q0.2-0.2 0.3-0.4l0.1-0.1q0.1 0.1 0.2 0.1h0.1l-0.1 0.6q0.1-0.2 0.2-0.4l0.1-0.1h0.1q0.1 0 0.1 0.1h0.1v0.6l0.2-0.5q0.1 0 0.1 0c0.2 0 0.2 0 0.3 0.1q0 0.3 0 0.6l0.2-0.6c0.1 0 0.3 0 0.3 0.1h0.1v0.5z"></path><path fill-rule="evenodd" class="a" d="m143.9 40.7q-0.2 0-0.4 0c-3-0.2-5.4-2.5-5.7-5.4-0.3-1.7 0.3-3.5 1.4-4.8 1.1-1.4 2.8-2.2 4.5-2.2 3.4-0.1 6.2 2.4 6.4 5.7 0.2 1.8-0.5 3.6-1.8 4.9-1.1 1.2-2.7 1.8-4.4 1.8zm-0.1-11.8c-1.6 0.1-3.1 0.8-4.1 2-1 1.2-1.5 2.8-1.3 4.3 0.3 2.6 2.5 4.7 5.1 4.9 1.6 0.1 3.2-0.5 4.4-1.7 1.1-1.1 1.7-2.7 1.6-4.3-0.2-3-2.8-5.3-5.7-5.2z"></path><path fill-rule="evenodd" class="a" d="m143.9 35.9c-0.7 0-1.3-0.6-1.3-1.4 0-0.8 0.6-1.4 1.3-1.4 0.8 0 1.4 0.6 1.4 1.4 0 0.8-0.6 1.4-1.4 1.4zm0-2.4c-0.5 0-1 0.4-1 1 0 0.6 0.5 1 1 1 0.6 0 1.1-0.4 1.1-1 0-0.6-0.5-1-1.1-1z"></path><path class="a" d="m143.1 28.8v0.1q0.1 0 0.1 0.1 0.1 0.1 0.1 0.1 0.3 2.1 0.5 4.1h0.4q1.2-1.9 2.5-3.8-0.1-0.1-0.2-0.1-0.3 0.5-0.6 1-0.6 1-1.3 2-0.2-1.5-0.4-3.1 0 0 0-0.1 0.1-0.1 0.1-0.1 0-0.1 0.1-0.1 0.1-0.1 0.2-0.1 0 0 0-0.1-0.4 0-0.8 0-0.4 0-0.7 0.1z"></path><path class="a" d="m139.4 38.1v-0.1q0 0 0.1-0.1 0-0.1 0.1-0.2 1.6-1.2 3.3-2.5l-0.2-0.3q-2.3-0.1-4.6-0.2 0 0.1 0 0.1 0.6 0 1.2 0.1 1.2 0 2.4 0.1-1.2 0.9-2.5 1.9 0 0-0.1 0-0.1 0-0.2 0 0 0-0.1 0-0.1-0.1-0.1-0.1 0 0-0.1 0 0.1 0.3 0.4 0.7 0.2 0.3 0.4 0.6z"></path><path class="a" d="m149.3 36.7l-0.1-0.1q0 0.1-0.1 0.1-0.1 0-0.2 0-1.9-0.8-3.8-1.6l-0.2 0.3q1.1 2 2.1 4.1 0.1-0.1 0.1-0.1-0.2-0.5-0.5-1-0.6-1.1-1.1-2.2 1.4 0.6 2.8 1.2 0.1 0 0.2 0.1 0 0.1 0 0.1 0.1 0.1 0.1 0.2-0.1 0.1-0.1 0.1 0 0 0.1 0.1 0.2-0.3 0.4-0.7 0.2-0.3 0.3-0.6z"></path><path fill-rule="evenodd" class="a" d="m168.8 118.1h-0.2-0.1v-0.1q-0.1-0.2-0.1-0.5 0 0 0 0l-0.2 0.5v0.1c0 0-0.2 0-0.3 0q0 0 0-0.1l-0.1-0.5q0 0 0 0l-0.2 0.5c-0.1 0.1-0.2 0-0.3 0 0 0-0.1-0.1-0.1-0.1q0-0.3 0-0.5 0 0 0 0l-0.2 0.5h-0.1c-0.1 0-0.2 0-0.2-0.1q-0.1 0-0.1 0v-0.1l0.1-0.5q0 0-0.1 0-0.1 0.2-0.2 0.4v0.1h-0.1q0 0 0 0c-0.1 0-0.2 0-0.3-0.1v-0.1l0.1-0.5q0 0 0 0-0.2 0.2-0.3 0.4l-0.1 0.1c0 0 0 0-0.1-0.1q-0.2 0-0.2-0.1l0.2-0.6q0 0 0 0l-0.4 0.5c-0.1 0-0.3-0.1-0.3-0.1v-0.1l0.2-0.6-0.5 0.4c0 0.1-0.2 0-0.2-0.1-0.1 0-0.1-0.1 0-0.1q0.1-0.3 0.2-0.5 0 0 0 0l-0.5 0.4h-0.1c0-0.1-0.1-0.1-0.1-0.2h-0.1l0.1-0.1 0.2-0.5-0.4 0.3c0 0-0.1 0.1-0.2 0 0 0-0.1-0.1-0.1-0.2q0.2-0.3 0.3-0.5 0 0 0 0l-0.5 0.3q-0.1 0-0.1-0.1c-0.1 0-0.1-0.1-0.1-0.2l0.3-0.5-0.5 0.3h-0.1c0-0.1-0.1-0.2-0.1-0.3l0.4-0.4-0.6 0.2v-0.1c-0.1 0-0.2-0.1-0.2-0.2l0.1-0.1 0.4-0.3-0.6 0.1v-0.1c-0.1 0-0.1-0.1-0.1-0.2q0.2-0.2 0.5-0.4l-0.6 0.1h-0.1c0 0-0.1-0.2-0.1-0.3h0.1l0.5-0.3q0 0 0 0h-0.6-0.1c0-0.1-0.1-0.2 0-0.3q0-0.1 0-0.1l0.5-0.2q-0.3 0-0.5 0h-0.1c-0.1-0.1-0.1-0.3-0.1-0.3l0.1-0.1 0.5-0.2q-0.3 0-0.5 0h-0.1v-0.1c-0.1-0.1-0.1-0.2 0-0.3l0.6-0.2-0.6-0.1-0.1-0.1v-0.2l0.7-0.1q0-0.1 0-0.1l-0.7-0.1 0.1-0.1q0-0.1 0-0.1 0 0 0-0.1l0.1-0.1h0.5q0 0 0-0.1l-0.5-0.2c-0.1 0-0.1-0.1-0.1-0.2q0.1 0 0.1 0l-0.1-0.1h0.2 0.5l-0.6-0.3 0.1-0.3h0.7l-0.6-0.3 0.1-0.1q0 0 0-0.1 0 0 0-0.1h0.1l0.6 0.1q0 0 0 0l-0.5-0.4 0.1-0.3 0.6 0.1q0 0 0 0l-0.4-0.4c0 0 0-0.1 0-0.2q0 0 0 0l0.1-0.1h0.1l0.5 0.2q0 0 0 0c0 0-0.1-0.1-0.2-0.2-0.1-0.1-0.1-0.2-0.2-0.2 0-0.1 0-0.2 0.1-0.2q0 0 0 0v-0.1h0.1c0.1 0 0.1 0.1 0.3 0.1 0.1 0.1 0.2 0.1 0.3 0.2q0-0.1 0-0.1-0.1 0-0.2-0.1c-0.2-0.3-0.2-0.3-0.2-0.4q0-0.1 0.1-0.1 0 0 0 0v-0.1h0.1 0.1l0.4 0.3q0 0 0 0l-0.3-0.5v-0.1c0 0 0.1-0.1 0.2-0.1v-0.1l0.1 0.1q0 0 0.2 0.1c0.1 0.1 0.2 0.2 0.2 0.2q0.1 0 0.1 0l-0.3-0.6c0 0 0-0.1 0.1-0.1l0.1-0.1 0.1 0.1 0.4 0.3q0-0.1-0.1-0.2c-0.1-0.3-0.1-0.4-0.1-0.4 0-0.1 0.1-0.1 0.1-0.1l0.1-0.1 0.1 0.1 0.4 0.4q0-0.1-0.1-0.2 0-0.2-0.1-0.4v-0.1l0.3-0.1 0.4 0.5q0 0 0 0l-0.2-0.7h0.2q0 0 0 0 0.1-0.1 0.1-0.1h0.1l0.3 0.5q0 0 0 0 0 0 0 0 0-0.1 0-0.2c-0.1-0.3-0.1-0.4 0-0.4 0 0 0.2-0.1 0.3-0.1l0.3 0.5q0 0 0 0l-0.1-0.6 0.4-0.1 0.2 0.6h0.1v-0.7h0.1q0 0 0 0 0.1 0 0.1 0 0 0 0 0h0.1l0.2 0.6 0.1-0.7h0.3l0.1 0.1 0.1 0.5q0 0 0 0l0.1-0.6h0.4l0.1 0.6 0.2-0.5v-0.1h0.1 0.2l0.1 0.6v0.1l0.2-0.6q0.1 0 0.2 0c0 0 0.1 0 0.1 0.1v0.5q0.1 0.1 0.1 0.1l0.2-0.5 0.1-0.1 0.3 0.1-0.1 0.6h0.1l0.2-0.5c0.1 0 0.2 0 0.2 0q0.1 0 0.1 0.1h0.1v0.1l-0.1 0.5q0 0 0 0l0.3-0.4 0.1-0.1c0 0 0.2 0.1 0.2 0.2l-0.1 0.5q0 0.1 0 0.1l0.4-0.5 0.3 0.1v0.1l-0.2 0.5 0.1 0.1 0.4-0.5 0.1 0.1q0 0 0 0c0.1 0.1 0.1 0.1 0.1 0.1v0.1l-0.2 0.5q0 0 0 0 0 0 0 0l0.5-0.4q0.1 0 0.1 0.1 0.1 0 0.1 0l0.1 0.1-0.1 0.1-0.2 0.4q0 0 0 0.1 0 0 0 0l0.4-0.3c0.2-0.1 0.3 0.1 0.3 0.1v0.1 0.1l-0.3 0.4 0.5-0.3 0.1 0.1c0.1 0.1 0.1 0.2 0.1 0.2l-0.3 0.4q0 0 0 0 0 0 0 0l0.5-0.2 0.2 0.3-0.4 0.4q0 0 0 0 0.1 0 0.2 0c0.3-0.2 0.4-0.2 0.4-0.1 0 0 0.2 0.2 0.1 0.2v0.1q0 0-0.2 0.1c0 0.1-0.1 0.1-0.2 0.2q0 0 0 0 0 0 0 0l0.6-0.1 0.1 0.3v0.1q-0.2 0.1-0.4 0.2 0 0 0 0.1 0 0 0 0l0.6-0.1 0.1 0.3-0.5 0.3q0 0 0 0 0 0 0 0h0.6v0.3 0.1l-0.5 0.2q0 0 0 0 0 0 0 0h0.6l0.1 0.3-0.6 0.2v0.1l0.7 0.1-0.1 0.1q0 0 0 0 0 0 0 0c0 0.1 0 0.1 0 0.2h-0.1l-0.4 0.1v0.1l0.6 0.1v0.1q0 0 0 0 0 0.2-0.1 0.2l-0.5 0.1v0.1l0.5 0.1v0.1q0 0.1 0 0.2l-0.1 0.1h-0.5v0.1q0.1 0 0.2 0c0.3 0.1 0.3 0.1 0.3 0.2q0.1 0.1 0 0.1 0 0.1 0 0.1v0.1h-0.1q-0.2 0-0.5 0 0 0 0 0.1l0.5 0.2v0.3h-0.6q0 0 0 0l0.5 0.3-0.1 0.3h-0.1q-0.2 0-0.3 0-0.1-0.1-0.2-0.1 0 0 0 0 0 0.1 0 0.1l0.4 0.3-0.1 0.3-0.6-0.1q0 0 0 0l0.4 0.4c0 0 0 0.1 0 0.1q-0.1 0.1-0.1 0.1v0.1h-0.1q0-0.1-0.2-0.1c-0.1-0.1-0.2-0.1-0.3-0.1q0 0 0 0 0 0 0 0 0.1 0.1 0.1 0.1 0.1 0.2 0.2 0.3h0.1v0.1c0 0-0.1 0.1-0.1 0.2h-0.1l-0.5-0.2 0.3 0.5-0.2 0.2-0.5-0.3v0.1l0.3 0.4c0 0.1-0.2 0.2-0.2 0.2-0.1 0.1-0.1 0-0.4-0.2q0 0-0.1-0.1 0 0.1 0 0.1 0 0-0.1 0l0.3 0.4c0 0.1-0.2 0.2-0.2 0.3 0 0-0.1-0.1-0.4-0.3q0 0-0.1-0.1l0.2 0.6q-0.1 0.1-0.1 0.1 0 0 0 0l-0.1 0.1-0.1-0.1-0.4-0.3 0.2 0.6-0.3 0.1-0.4-0.4q0 0 0 0l0.2 0.6h-0.2q0 0 0 0c0 0-0.1 0.1-0.2 0l-0.3-0.4q0 0 0 0 0 0 0 0l0.1 0.6-0.4 0.1-0.3-0.5q0 0 0 0 0 0 0 0l0.1 0.6-0.4 0.1-0.2-0.6q-0.1 0.1-0.1 0.1v0.6h-0.1q0 0 0 0-0.1 0-0.1 0h-0.1v-0.1l-0.2-0.4h-0.1v0.6h-0.1q0 0 0 0-0.2 0-0.2 0l-0.1-0.1-0.1-0.5zm-0.7-0.8h0.1q0.1 0 0.2 0h0.1v0.1q0 0.2 0.1 0.5l0.1-0.6h0.4l0.1 0.5 0.1-0.5 0.3-0.1 0.2 0.5v-0.5h0.1c0 0 0.2-0.1 0.2-0.1h0.1v0.1l0.2 0.4v-0.6h0.1q0 0 0 0c0.2 0 0.2 0 0.3 0l0.2 0.4-0.1-0.4v-0.1c0.1 0 0.1 0 0.2-0.1q0.1 0 0.1 0l0.1-0.1v0.1l0.3 0.4-0.1-0.5v-0.1c0 0 0.2-0.1 0.2-0.1h0.1l0.3 0.4-0.1-0.5 0.3-0.2 0.4 0.4-0.3-0.5 0.3-0.2h0.1q0 0 0.2 0.2 0.1 0 0.1 0.1l-0.2-0.4v-0.1q0.1-0.1 0.1-0.1 0.1 0 0.1 0v-0.1h0.1q0.1 0 0.3 0.2 0 0 0.1 0.1l-0.3-0.5 0.2-0.2h0.1 0.1l0.3 0.2-0.3-0.3v-0.1l0.2-0.3 0.5 0.2q-0.1-0.1-0.1-0.1-0.1-0.1-0.2-0.2l-0.1-0.1h0.1q0-0.1 0-0.1 0.1-0.1 0.1-0.1c0.1-0.1 0.1-0.1 0.4 0.1q0.1 0 0.1 0l-0.3-0.3c-0.1-0.1 0-0.1 0-0.2 0.1-0.1 0.1-0.1 0.1-0.1v-0.1h0.1l0.4 0.1-0.4-0.2v-0.1-0.1q0.1 0 0.1 0 0-0.1 0-0.1l0.1-0.1q0.2 0 0.3 0.1 0.1 0 0.2 0l-0.5-0.3v-0.1c0 0 0.1-0.2 0.2-0.2h0.4l-0.4-0.2c0-0.1 0-0.1 0-0.3q0 0 0 0l0.1-0.1q0.3 0 0.5 0-0.1 0-0.2-0.1-0.2 0-0.2-0.1h-0.1v-0.4h0.5l-0.4-0.2v-0.3l0.5-0.1-0.5-0.1v-0.4l0.5-0.2h-0.5l-0.1-0.4 0.5-0.2h-0.5l-0.1-0.1q0 0 0 0c0-0.2 0-0.2 0-0.3l0.4-0.2-0.5 0.1v-0.1q0-0.1 0-0.1-0.1-0.1 0-0.2v-0.1l0.4-0.2-0.6 0.1v-0.1q0 0 0 0-0.1-0.1-0.1-0.2l0.1-0.1q0.1-0.1 0.3-0.2l-0.5 0.1v-0.1q0 0-0.1-0.1 0-0.1 0-0.1c0-0.1 0-0.1 0.3-0.4q0 0 0 0 0 0-0.1 0.1c-0.2 0-0.2 0.1-0.3 0.1-0.1 0-0.1-0.1-0.2-0.2q0 0 0 0l-0.1-0.1 0.1-0.1 0.3-0.3-0.4 0.2q-0.1 0-0.2-0.1 0-0.1 0-0.1l-0.1-0.1 0.1-0.1 0.2-0.3-0.4 0.2h-0.1l-0.2-0.2 0.3-0.4-0.4 0.2c-0.1 0-0.1 0-0.2-0.1q0 0 0 0v-0.1h-0.1v-0.1l0.2-0.4-0.3 0.3h-0.1-0.1q0 0 0 0-0.1-0.1-0.1-0.2v-0.1l0.2-0.3-0.4 0.3-0.3-0.2 0.1-0.5-0.3 0.4h-0.1q0 0-0.1-0.1 0 0-0.1 0v-0.1l0.1-0.5-0.3 0.4q-0.1 0.1-0.2 0 0 0-0.1 0l-0.1-0.1 0.1-0.1v-0.4l-0.2 0.5-0.4-0.1v-0.6l-0.2 0.5h-0.1q0 0-0.1 0c-0.1-0.1-0.1-0.1-0.2-0.1v-0.1-0.4l-0.1 0.5-0.4-0.1-0.1-0.5-0.1 0.5h-0.4l-0.1-0.5-0.1 0.4q0 0.1-0.2 0.1c0 0-0.1 0-0.2 0v-0.1l-0.1-0.4-0.1 0.6h-0.3l-0.2-0.5v0.5l-0.4 0.1-0.2-0.5v0.6h-0.1q0 0 0 0c-0.1 0-0.2 0.1-0.2 0h-0.1l-0.2-0.4q0 0.1 0 0.2 0.1 0.2 0.1 0.3v0.1h-0.1q0 0-0.1 0c-0.1 0.1-0.1 0.1-0.2 0l-0.3-0.4 0.2 0.6h-0.1c0 0-0.2 0.1-0.2 0.1h-0.1l-0.3-0.4q0 0.1 0 0.2 0.1 0.1 0.1 0.3h0.1l-0.3 0.2h-0.1l-0.4-0.4q0.1 0.2 0.1 0.3 0.1 0.1 0.2 0.2v0.1l-0.3 0.2-0.4-0.4 0.2 0.5v0.1h-0.1q0 0 0 0 0 0.1-0.1 0.1c-0.1 0.1-0.1 0-0.4-0.2q-0.1 0-0.1-0.1l0.3 0.5v0.1c-0.2 0.1-0.2 0.1-0.2 0.1h-0.1l-0.4-0.2q0.1 0.1 0.1 0.1c0.1 0.2 0.2 0.2 0.2 0.3v0.1c0 0-0.1 0.2-0.1 0.2-0.1 0-0.1 0-0.5-0.2q0 0-0.1 0 0 0 0.1 0.1c0.3 0.2 0.3 0.3 0.3 0.4 0 0-0.1 0.1-0.1 0.1l-0.1 0.1h-0.1l-0.4-0.2 0.4 0.3v0.1c0 0-0.1 0.2-0.1 0.2l-0.1 0.1-0.5-0.1 0.5 0.3-0.1 0.1q0 0 0 0c0 0.1-0.1 0.2-0.1 0.2l-0.5-0.1 0.5 0.3-0.1 0.4-0.6-0.1 0.5 0.2-0.1 0.4h-0.6l0.6 0.2v0.1c-0.1 0.2-0.1 0.2-0.1 0.3h-0.5l0.5 0.2q0 0.2 0 0.3l-0.6 0.1 0.5 0.1 0.1 0.1c0 0 0 0.2 0 0.3h-0.1l-0.5 0.2q0.2 0 0.5 0h0.1v0.1q0 0.1 0 0.2v0.1l-0.5 0.2q0.2 0 0.5 0h0.1c0 0 0 0.3 0 0.3l-0.5 0.3 0.6-0.1v0.1q0.1 0.1 0.1 0.2v0.1l-0.5 0.3 0.6-0.1 0.1 0.3q-0.3 0.2-0.5 0.4l0.6-0.2c0 0 0.1 0.1 0.2 0.2v0.1l-0.5 0.4q0 0 0 0l0.6-0.2c0 0 0.1 0.1 0.1 0.2l0.1 0.1-0.5 0.4 0.6-0.2 0.2 0.3-0.4 0.4 0.6-0.3v0.1q0.1 0.1 0.1 0.1l0.1 0.1-0.1 0.1q-0.1 0.2-0.3 0.4l0.6-0.4v0.1q0.1 0.1 0.1 0.1l0.1 0.1-0.3 0.5 0.5-0.4v0.1q0.1 0 0.2 0.1h0.1l-0.1 0.1q-0.1 0.3-0.2 0.5l0.4-0.4h0.1q0.1 0.1 0.2 0.1v0.1l-0.2 0.5 0.4-0.4h0.1q0.1 0 0.1 0.1h0.1l-0.1 0.6q0.1-0.2 0.3-0.4v-0.1l0.1 0.1q0.1 0 0.2 0v0.1l-0.1 0.6q0.2-0.3 0.3-0.5l0.1-0.1v0.1q0.1 0 0.2 0l0.1 0.1-0.1 0.6 0.3-0.5q0-0.1 0.1-0.1c0.2 0.1 0.2 0.1 0.2 0.1h0.1l-0.1 0.1q0 0.2 0 0.5l0.3-0.5q0-0.1 0.1-0.1c0.2 0.1 0.2 0.1 0.2 0.1l0.1 0.6zm-5.5-2.5q0 0 0 0z"></path><path fill-rule="evenodd" class="a" d="m168.7 117q-0.2 0-0.5-0.1c-2.9-0.2-5.3-2.4-5.7-5.4-0.2-1.7 0.3-3.5 1.5-4.8 1.1-1.3 2.8-2.1 4.5-2.2 3.4-0.1 6.2 2.4 6.4 5.8 0.1 1.8-0.5 3.5-1.8 4.8-1.2 1.2-2.8 1.9-4.4 1.9zm-0.2-11.8c-1.5 0-3 0.7-4 1.9-1.1 1.2-1.5 2.8-1.3 4.4 0.3 2.6 2.4 4.6 5.1 4.8 1.6 0.1 3.2-0.5 4.4-1.6 1.1-1.2 1.7-2.8 1.6-4.4-0.3-3-2.8-5.2-5.8-5.1z"></path><path fill-rule="evenodd" class="a" d="m168.7 112.1c-0.8 0-1.4-0.6-1.4-1.4 0-0.7 0.6-1.3 1.4-1.3 0.8 0 1.4 0.6 1.4 1.3 0 0.8-0.6 1.4-1.4 1.4zm0-2.4c-0.6 0-1 0.5-1 1 0 0.6 0.4 1.1 1 1.1 0.6 0 1-0.5 1-1.1 0-0.5-0.4-1-1-1z"></path><path class="a" d="m167.9 105v0.1q0 0 0.1 0.1 0.1 0.1 0.1 0.1 0.2 2.1 0.5 4.2h0.3q1.3-2 2.5-3.9 0 0-0.1-0.1-0.3 0.5-0.6 1-0.7 1.1-1.4 2.1-0.1-1.6-0.3-3.1 0-0.1 0-0.2 0-0.1 0.1-0.1 0 0 0.1-0.1 0.1 0 0.1 0 0-0.1 0-0.1-0.3-0.1-0.7 0-0.4 0-0.7 0z"></path><path class="a" d="m164.1 114.3h0.1q0-0.1 0-0.2 0.1-0.1 0.1-0.1 1.7-1.3 3.3-2.5l-0.1-0.3q-2.3-0.2-4.6-0.3 0 0.1 0 0.2 0.5 0 1.1 0 1.3 0.1 2.5 0.2-1.3 0.9-2.5 1.8-0.1 0-0.2 0.1 0 0-0.1 0 0 0-0.1-0.1-0.1-0.1-0.1-0.1-0.1 0-0.1 0 0.1 0.4 0.3 0.7 0.2 0.4 0.4 0.6z"></path><path class="a" d="m174.1 112.9h-0.1q-0.1 0-0.1 0-0.2 0-0.2 0-1.9-0.8-3.8-1.6l-0.2 0.3q1 2.1 2.1 4.1 0 0 0.1-0.1-0.3-0.5-0.5-1-0.6-1.1-1.1-2.2 1.4 0.6 2.8 1.3 0.1 0 0.1 0.1 0.1 0 0.1 0.1 0 0 0 0.1 0 0.1 0 0.2 0 0 0.1 0 0.2-0.3 0.4-0.7 0.2-0.3 0.3-0.6z"></path><path fill-rule="evenodd" class="a" d="m104.4 164.7h-0.3-0.1v-0.1q0-0.2-0.1-0.5 0 0 0 0l-0.2 0.6c0 0-0.2 0-0.3 0v-0.1l-0.1-0.5q0 0 0 0l-0.2 0.5c-0.1 0.1-0.2 0-0.2 0-0.1 0-0.2-0.1-0.2-0.1q0-0.3 0-0.5 0 0 0 0l-0.2 0.5h-0.1c0 0-0.2 0-0.2 0q0-0.1-0.1-0.1l0.1-0.6q0 0 0 0-0.2 0.2-0.3 0.5h-0.1q0 0 0 0c-0.1 0-0.2 0-0.3-0.1l0.1-0.6q0 0 0 0-0.2 0.2-0.3 0.4v0.1h-0.1c0 0 0 0-0.1-0.1q-0.2 0-0.2-0.1l0.2-0.5q0 0 0 0l-0.4 0.4c-0.1 0-0.3-0.1-0.3-0.1v-0.1l0.2-0.5q0 0 0 0l-0.5 0.4c0 0-0.2-0.1-0.2-0.1-0.1-0.1 0-0.2 0-0.2q0.1-0.2 0.2-0.5 0 0 0 0l-0.5 0.4h-0.1c0 0-0.1-0.1-0.1-0.2v-0.1l0.2-0.5-0.4 0.3c0 0-0.1 0.1-0.2 0 0 0-0.1-0.1-0.1-0.2q0.2-0.3 0.3-0.5 0 0 0 0l-0.5 0.3q0 0-0.1-0.1c0 0-0.1-0.1-0.1-0.2l0.3-0.4-0.5 0.2h-0.1c0-0.1-0.1-0.2-0.1-0.2v-0.1l0.4-0.4-0.6 0.2v-0.1c-0.1 0-0.1-0.1-0.1-0.2v-0.1l0.4-0.3-0.6 0.1c0 0-0.1-0.2-0.1-0.3q0.2-0.2 0.5-0.4l-0.6 0.1c-0.1 0-0.2-0.2-0.1-0.3l0.5-0.3q0 0 0 0h-0.6c-0.1 0-0.2-0.2-0.1-0.3q0 0 0-0.1l0.5-0.2q-0.3 0-0.5 0h-0.1c-0.1-0.1-0.1-0.2-0.1-0.3l0.1-0.1 0.5-0.2q-0.3 0-0.5 0h-0.1v-0.1c0 0-0.1-0.2 0-0.2v-0.1l0.6-0.1-0.6-0.2-0.1-0.1v-0.2l0.7-0.1q0 0 0 0l-0.7-0.2 0.1-0.1q0 0 0-0.1 0 0 0-0.1l0.1-0.1h0.5q0 0 0 0l-0.5-0.2c-0.1-0.1-0.1-0.2 0-0.2q0-0.1 0-0.1l-0.1-0.1h0.2 0.5l-0.5-0.3v-0.3h0.7l-0.6-0.3 0.1-0.1q0 0 0 0 0-0.1 0-0.1l0.1-0.1 0.6 0.1q0 0 0 0l-0.5-0.4 0.1-0.3 0.6 0.2q0 0 0.1-0.1l-0.5-0.4c0 0 0-0.1 0-0.1q0.1-0.1 0.1-0.1v-0.1l0.1 0.1 0.5 0.2q0 0 0-0.1c0 0-0.1-0.1-0.2-0.2q-0.1-0.1-0.2-0.2c0-0.1 0.1-0.1 0.1-0.2q0 0 0 0v-0.1h0.1c0.1 0 0.1 0.1 0.3 0.2 0.1 0 0.2 0.1 0.3 0.1q0 0 0 0-0.1-0.1-0.1-0.2c-0.3-0.3-0.3-0.3-0.3-0.4q0 0 0.1-0.1 0 0 0 0v-0.1h0.1 0.1l0.4 0.3q0.1 0 0.1 0l-0.4-0.5v-0.1c0.1 0 0.1-0.1 0.2-0.1h0.1q0 0 0.2 0.1c0.1 0.1 0.2 0.2 0.3 0.2q0 0 0 0l-0.3-0.5q0-0.1 0.1-0.2l0.1-0.1 0.1 0.1 0.4 0.3q0-0.1 0-0.1c-0.2-0.4-0.2-0.4-0.2-0.5 0 0 0.1-0.1 0.2-0.1h0.1l0.4 0.4q0-0.1-0.1-0.2 0-0.2-0.1-0.4l0.3-0.2 0.4 0.5q0 0 0 0l-0.2-0.7h0.2q0 0 0 0 0.1 0 0.1 0h0.1l0.3 0.4q0 0 0 0 0 0 0.1 0-0.1 0-0.1-0.1c-0.1-0.4-0.1-0.5 0-0.5 0 0 0.2-0.1 0.3-0.1v0.1l0.3 0.4q0 0 0 0l-0.1-0.6 0.4-0.1 0.2 0.6h0.1v-0.7h0.1q0 0 0 0 0.1 0 0.1 0h0.1v0.1l0.2 0.5 0.1-0.6 0.3-0.1v0.1h0.1l0.1 0.5q0 0 0 0l0.1-0.6h0.4l0.1 0.6 0.2-0.5v-0.1h0.1l0.2 0.1 0.1 0.6 0.2-0.5c0-0.1 0.1-0.1 0.2-0.1 0.1 0 0.1 0 0.2 0.1v0.6q0 0 0 0l0.2-0.5 0.1-0.1 0.3 0.1-0.1 0.6h0.1l0.3-0.4c0-0.1 0.1-0.1 0.1 0q0.1 0 0.1 0h0.1v0.1l-0.1 0.5q0 0 0 0l0.3-0.4h0.1c0-0.1 0.2 0 0.2 0v0.1h0.1l-0.2 0.6q0 0 0.1 0l0.4-0.5 0.2 0.2v0.1l-0.2 0.5h0.1l0.4-0.4h0.1c0.1 0.1 0.1 0.1 0.1 0.1v0.1l-0.2 0.5q0 0 0 0 0 0 0 0l0.5-0.3c0 0 0.1 0 0.2 0q0 0.1 0 0.1h0.1l-0.1 0.1-0.2 0.5q0 0 0 0 0 0 0 0l0.4-0.3c0.2 0 0.3 0.1 0.3 0.1v0.1 0.1l-0.3 0.4 0.5-0.3 0.1 0.1q0.1 0.1 0.1 0.2l-0.3 0.4q0 0 0 0 0 0.1 0 0.1l0.5-0.3 0.2 0.3-0.4 0.4q0 0 0 0 0 0 0 0.1 0.1-0.1 0.2-0.1c0.3-0.1 0.4-0.1 0.4-0.1 0.1 0.1 0.2 0.2 0.1 0.3q0 0-0.2 0.1c0 0.1-0.1 0.2-0.2 0.2q0 0 0 0 0 0.1 0 0.1l0.6-0.2 0.1 0.3v0.1q-0.2 0.1-0.4 0.3 0 0 0 0 0 0 0 0l0.6-0.1 0.1 0.3-0.5 0.3q0 0 0 0 0 0 0 0.1l0.6-0.1v0.3 0.1l-0.5 0.2q0 0 0 0 0 0 0 0h0.6l0.1 0.4-0.6 0.2 0.7 0.1-0.1 0.1q0 0 0 0c0 0.1 0.1 0.2 0 0.2l-0.5 0.2 0.6 0.1v0.1q0 0 0 0.1 0 0.1-0.1 0.1v0.1l-0.5 0.1 0.5 0.2q0 0.1 0 0.2v0.1h-0.1-0.5v0.1q0.1 0 0.2 0c0.3 0.2 0.3 0.2 0.4 0.2q0 0.1-0.1 0.2 0 0 0 0l0.1 0.1h-0.2q-0.2 0-0.5 0 0 0 0 0.1l0.6 0.2-0.1 0.3h-0.6q0 0 0 0l0.5 0.3-0.1 0.3h-0.1q-0.2 0-0.3 0-0.1 0-0.2 0 0 0 0 0 0 0 0 0l0.4 0.3-0.1 0.3-0.6-0.1q0 0 0 0l0.4 0.4c0 0.1 0 0.1 0 0.2q0 0-0.1 0v0.1h-0.1q0 0-0.2-0.1c-0.1 0-0.2-0.1-0.3-0.1q0 0 0 0 0 0 0 0 0.1 0.1 0.1 0.2 0.1 0.1 0.3 0.2v0.1c0 0-0.1 0.2-0.1 0.2h-0.1l-0.5-0.2 0.3 0.5-0.2 0.2-0.5-0.3v0.1l0.3 0.4c0 0.1-0.2 0.2-0.2 0.2 0 0.1-0.1 0.1-0.4-0.1q0-0.1-0.1-0.1 0 0 0 0 0 0 0 0l0.2 0.5c0 0.1-0.2 0.2-0.2 0.2 0 0-0.1 0-0.3-0.3q-0.1 0-0.2-0.1v0.1l0.2 0.5v0.1q-0.1 0-0.1 0 0 0 0 0l-0.1 0.1-0.1-0.1-0.3-0.3h-0.1l0.2 0.6-0.3 0.1-0.4-0.4q0 0 0 0l0.2 0.6h-0.2q0 0 0 0c0 0.1-0.1 0.1-0.2 0.1v-0.1l-0.3-0.4q0 0 0 0 0 0 0 0l0.1 0.6-0.3 0.1-0.3-0.5q-0.1 0-0.1 0 0 0 0 0l0.1 0.6-0.4 0.1-0.2-0.5q0 0-0.1 0v0.6h-0.1q0 0 0 0-0.1 0-0.1 0h-0.1v-0.1l-0.2-0.4-0.1 0.6h-0.1q-0.2 0-0.2 0l-0.2-0.6zm-0.7-0.8h0.1q0.1 0 0.2 0h0.1v0.1q0.1 0.2 0.1 0.5l0.1-0.6h0.4l0.1 0.5 0.1-0.5 0.4-0.1 0.1 0.5v-0.4l0.1-0.1q0 0 0 0c0 0 0.2-0.1 0.2-0.1h0.1v0.1l0.2 0.4v-0.5h0.1q0-0.1 0.1-0.1c0.1 0 0.1 0 0.2 0l0.2 0.4-0.1-0.4c0.1-0.1 0.1-0.1 0.2-0.2q0.1 0 0.1 0h0.1l0.3 0.4-0.1-0.5v-0.1c0 0 0.2-0.1 0.3-0.1l0.3 0.4-0.1-0.5 0.3-0.2 0.4 0.4-0.3-0.5 0.3-0.2h0.1q0 0 0.2 0.2 0.1 0 0.2 0.1l-0.3-0.4v-0.1q0.1 0 0.1-0.1 0.1 0 0.1 0v-0.1h0.1q0.1 0 0.3 0.2 0 0 0.1 0.1l-0.3-0.4 0.3-0.3h0.1l0.3 0.2-0.3-0.3v-0.1l0.2-0.3 0.5 0.2q-0.1 0-0.1-0.1-0.1-0.1-0.2-0.2h-0.1l0.1-0.1q0 0 0-0.1 0.1-0.1 0.1-0.1c0.1-0.1 0.1 0 0.4 0.1q0.1 0 0.1 0l-0.3-0.3c0 0 0-0.1 0-0.1 0.1-0.2 0.1-0.2 0.1-0.2h0.1l0.4 0.1-0.4-0.3v-0.1h0.1q0-0.1 0-0.1 0-0.1 0-0.1l0.1-0.1q0.2 0 0.3 0.1 0.1 0 0.2 0l-0.4-0.2q-0.1 0-0.1-0.1c0.1-0.1 0.1-0.3 0.2-0.3h0.5l-0.5-0.2c0-0.1 0-0.1 0-0.2q0.1-0.1 0.1-0.1v-0.1h0.1q0.2 0 0.4 0-0.1 0-0.2-0.1-0.2 0-0.2 0l-0.1-0.1 0.1-0.4h0.5l-0.5-0.1v-0.4l0.5-0.1-0.5-0.1v-0.4l0.5-0.1-0.5-0.1-0.1-0.4 0.5-0.1-0.5-0.1v-0.1q-0.1 0-0.1 0 0-0.2 0-0.2v-0.1l0.4-0.2-0.5 0.1v-0.1q0 0 0-0.1-0.1-0.1 0-0.2l0.4-0.2h-0.6v-0.1q0 0 0 0 0-0.1-0.1-0.2l0.1-0.1q0.2-0.1 0.3-0.2l-0.5 0.1v-0.1q0 0-0.1-0.1 0 0 0-0.1c0-0.1 0-0.1 0.3-0.3q0-0.1 0.1-0.1-0.1 0.1-0.2 0.1c-0.2 0.1-0.2 0.1-0.3 0.1-0.1 0-0.1-0.1-0.2-0.2q0 0 0 0v-0.1-0.1l0.3-0.3-0.4 0.2q-0.1 0-0.2-0.1 0-0.1 0-0.1h-0.1l0.1-0.1 0.2-0.4-0.4 0.3v-0.1h-0.1l-0.2-0.2 0.3-0.4-0.4 0.2c0 0-0.1 0-0.2-0.1q0 0 0 0l-0.1-0.1 0.1-0.1 0.2-0.3-0.4 0.3-0.1-0.1q-0.1 0-0.1 0-0.1-0.1-0.1-0.2l0.2-0.4-0.4 0.3-0.3-0.2 0.2-0.4-0.4 0.3h-0.1q0 0-0.1 0 0-0.1-0.1-0.1v-0.1l0.1-0.4-0.3 0.3c0 0.1-0.1 0.1-0.2 0q0 0-0.1 0v-0.1-0.5l-0.2 0.5-0.4-0.1 0.1-0.6-0.3 0.5h-0.1q0 0 0 0c-0.2 0-0.2 0-0.2-0.1l-0.1-0.1v-0.4l-0.1 0.5h-0.4l-0.1-0.6-0.1 0.5h-0.4l-0.1-0.5-0.1 0.4q0 0.1-0.2 0.1c0 0-0.1 0.1-0.2 0l-0.1-0.5v0.6h-0.4l-0.2-0.5v0.5l-0.4 0.1-0.2-0.5v0.6h-0.1c-0.1 0.1-0.2 0.1-0.2 0.1v-0.1l-0.3-0.4q0 0.1 0 0.2 0.1 0.3 0.1 0.3v0.1h-0.1q0 0-0.1 0-0.1 0.1-0.2 0.1v-0.1l-0.3-0.3 0.2 0.5h-0.1c0 0-0.2 0.1-0.2 0.1h-0.1l-0.3-0.4q0 0.1 0 0.2 0.1 0.1 0.1 0.3l0.1 0.1-0.3 0.1h-0.1l-0.3-0.3q0 0.1 0.1 0.2 0.1 0.2 0.1 0.2v0.1l-0.3 0.2-0.4-0.4 0.2 0.5v0.1h-0.1q0 0 0 0.1 0 0-0.1 0c0 0.1-0.1 0-0.4-0.2q0 0-0.1-0.1l0.3 0.5v0.1c-0.2 0.2-0.2 0.2-0.2 0.2h-0.1l-0.4-0.3q0.1 0.1 0.1 0.2c0.1 0.1 0.2 0.2 0.2 0.2v0.1c0 0-0.1 0.2-0.1 0.2-0.1 0-0.1 0-0.5-0.2q0 0-0.1 0 0 0 0.1 0.1c0.3 0.2 0.3 0.3 0.3 0.4 0 0-0.1 0.1-0.1 0.1l-0.1 0.1-0.5-0.2 0.4 0.4c0 0.1-0.1 0.2-0.1 0.2v0.1h-0.1l-0.5-0.1 0.5 0.3-0.1 0.1q0 0 0 0c0 0.1 0 0.2-0.1 0.2l-0.5-0.1 0.5 0.3-0.1 0.4-0.6-0.1 0.5 0.3-0.1 0.3h-0.6l0.6 0.2v0.1c0 0.2-0.1 0.2-0.1 0.3h-0.1-0.4l0.5 0.2v0.1q0 0.1 0 0.2v0.1l-0.6 0.1 0.5 0.1h0.1c0 0 0 0.2 0 0.3l-0.6 0.2q0.3 0 0.5 0h0.1v0.1q0 0.1 0.1 0.2v0.1l-0.6 0.2q0.2 0 0.5 0h0.1c0 0.1 0.1 0.3 0.1 0.3h-0.1l-0.5 0.3h0.6 0.1q0 0.1 0 0.2v0.1l-0.5 0.3 0.6-0.1 0.1 0.3v0.1q-0.2 0.1-0.5 0.3l0.6-0.2c0 0.1 0.1 0.1 0.2 0.3l-0.5 0.4q0 0 0 0l0.6-0.2c0 0 0.1 0.1 0.1 0.2l0.1 0.1-0.5 0.5 0.6-0.3 0.2 0.3-0.4 0.5 0.6-0.3q0.1 0.1 0.2 0.1v0.1 0.1q-0.2 0.2-0.4 0.4l0.6-0.3q0.1 0.1 0.2 0.1v0.1l-0.3 0.5 0.5-0.4v0.1q0.1 0 0.2 0.1l0.1 0.1h-0.1q-0.1 0.3-0.2 0.5l0.4-0.4h0.1q0.1 0.1 0.2 0.1v0.1l-0.2 0.6 0.4-0.5h0.1q0.1 0.1 0.2 0.1l-0.1 0.6q0.1-0.2 0.3-0.4v-0.1l0.1 0.1q0.1 0 0.2 0.1h0.1l-0.1 0.6q0.1-0.2 0.2-0.5h0.1q0.1 0 0.2 0l0.1 0.1-0.1 0.6 0.3-0.5q0.1-0.1 0.1 0c0.2 0 0.2 0 0.2 0l0.1 0.1q0 0.3 0 0.5l0.2-0.5q0-0.1 0.1 0c0.1 0 0.2 0 0.2 0l0.1 0.6z"></path><path fill-rule="evenodd" class="a" d="m104.2 163.6q-0.2 0-0.5 0c-2.9-0.3-5.3-2.5-5.7-5.4-0.2-1.8 0.3-3.5 1.5-4.9 1.1-1.3 2.8-2.1 4.5-2.2 3.3-0.1 6.2 2.5 6.4 5.8 0.2 1.8-0.5 3.6-1.8 4.9-1.2 1.1-2.7 1.8-4.4 1.8zm-0.2-11.8c-1.5 0-3 0.7-4 1.9-1 1.2-1.5 2.8-1.3 4.4 0.3 2.6 2.5 4.6 5.1 4.8 1.6 0.2 3.2-0.4 4.4-1.6 1.1-1.2 1.7-2.7 1.6-4.4-0.2-3-2.8-5.2-5.8-5.1z"></path><path fill-rule="evenodd" class="a" d="m104.2 158.7c-0.7 0-1.4-0.6-1.4-1.3 0-0.8 0.7-1.4 1.4-1.4 0.8 0 1.4 0.6 1.4 1.4 0 0.7-0.6 1.3-1.4 1.3zm0-2.4c-0.6 0-1 0.5-1 1.1 0 0.5 0.4 1 1 1 0.6 0 1.1-0.5 1.1-1 0-0.6-0.5-1.1-1.1-1.1z"></path><path class="a" d="m103.4 151.6v0.1q0 0 0.1 0.1 0.1 0.1 0.1 0.2 0.2 2 0.5 4.1h0.3q1.3-1.9 2.5-3.9 0 0-0.1 0-0.3 0.4-0.6 0.9-0.7 1.1-1.4 2.1-0.1-1.6-0.3-3.1 0 0 0-0.2 0 0 0.1-0.1 0 0 0.1-0.1 0.1 0 0.1 0 0 0 0.1-0.1-0.4 0-0.8 0-0.4 0-0.7 0z"></path><path class="a" d="m99.7 160.9q0-0.1 0-0.2 0.1-0.1 0.1-0.1 1.7-1.3 3.3-2.5l-0.1-0.3q-2.3-0.1-4.6-0.3 0 0.1 0 0.2 0.6 0 1.1 0 1.3 0.1 2.5 0.2-1.3 0.9-2.5 1.8-0.1 0.1-0.2 0.1 0 0-0.1 0 0 0-0.1-0.1-0.1 0-0.1-0.1-0.1 0-0.1 0.1 0.1 0.3 0.3 0.7 0.3 0.3 0.5 0.5z"></path><path class="a" d="m109.6 159.5h-0.1q0 0-0.1 0.1-0.2 0-0.2-0.1-1.9-0.8-3.8-1.6l-0.2 0.3q1 2.1 2.1 4.1 0 0 0.1 0-0.3-0.5-0.5-1.1-0.6-1.1-1.1-2.2 1.4 0.7 2.8 1.3 0.1 0 0.1 0.1 0.1 0 0.1 0.1 0 0 0 0.1 0 0.1 0 0.2 0 0 0.1 0 0.2-0.2 0.4-0.6 0.2-0.4 0.3-0.7z"></path></g></svg>